<?xml version="1.0" encoding="utf-8"?>
<!-- Generator: Adobe Illustrator 27.5.0, SVG Export Plug-In . SVG Version: 6.00 Build 0)  -->
<svg version="1.1" xmlns="http://www.w3.org/2000/svg" xmlns:xlink="http://www.w3.org/1999/xlink" x="0px" y="0px"
	 viewBox="0 0 500 500" style="enable-background:new 0 0 500 500;" xml:space="preserve">
<g id="OBJECTS">
	<path style="fill:#E1F9F8;" d="M246.074,32.895c0,0-53.146-10.29-86.359,29.584c-33.213,39.874-33.213,41.16-68.887,46.305
		c-35.674,5.145-62.736,48.78-44.285,97.063s-26.108,70.15-20.435,110.024c5.673,39.874,33.09,49.182,47.851,64.618
		c14.762,15.435,18.918,87.809,94.366,82.016c49.134-3.773,71.849-10.794,113.905,0.078
		c109.158,28.22,154.689-54.966,152.228-98.698c-2.46-43.733,6.545-59.756,27.457-88.316c20.912-28.56,18.042-95.183-27.883-117.478
		c-41.47-20.133-15.445-41.403-34.717-71.03c-22.962-35.3-56.136-24.782-78.181-27.297
		C291.064,56.333,266.106,33.999,246.074,32.895z"/>
	<path style="fill:#B9EAE5;" d="M111.887,328.09l10.915,113.293l60.957-7.523l1.283,8.048l131.592-1.51l2.444-14.809
		c0,0,53.624,2.616,85.411-29.649c-7.66,1.82-43.016,0.69-43.016,0.69l-120.717,0.625L111.887,328.09z"/>
	<g>
		<g>
			
				<ellipse transform="matrix(0.7071 -0.7071 0.7071 0.7071 -105.7028 302.1055)" style="fill:#A7EADF;" cx="311.822" cy="278.647" rx="109.399" ry="109.399"/>
			<ellipse style="fill:#B8F2E7;" cx="311.822" cy="247.855" rx="89.785" ry="78.607"/>
			<path style="fill:#5ECCB7;" d="M398.632,260.195c1.368-0.805,2.596-1.306,3.764-2.34c1.216-1.076,1.885-1.858,2.432-3.442
				c0.624-1.809,0.623-3.963,0.171-5.834c-0.753-3.119-4.405-4.185-5.111-7.236c-0.616-2.666,0.629-5.086,0.794-7.669
				c0.092-1.44-0.124-2.905-0.058-4.344c0.1-2.197,1.79-3.286,2.321-5.372c0.449-1.765,0.462-4.082-0.232-5.775
				c-0.233-0.568-0.538-1.123-0.851-1.675c-19.741-28.549-52.703-47.258-90.039-47.258c-2.45,0-4.88,0.089-7.29,0.248
				c0.028,0.965,0.149,1.531,0.97,2.258c0.971,0.86,2.102,0.759,3.204,1.297c2.209,1.078-0.426,3.636,0.346,5.345
				c0.263,0.583,1.132,0.622,1.689,0.794c0.258-0.042,0.512-0.018,0.76,0.073c0.057,0.115,0.114,0.23,0.171,0.345
				c0.641,0.364,0.448,0.2,1.151,0.393c1.64,0.45,0.473,2.918,0.799,4.187c0.397,1.545,2.961,2.074,4.253,2.051
				c1.971-0.035,3.565,0.215,5.42,0.933c1.063,0.411,2.215,0.833,3.344,1.057c0.527,0.104,1.043,0.06,1.536,0.31
				c0.679,0.345,1.67,1.682,2.073,2.341c0.52,0.849,0.652,2.652,0.33,3.595c-1.796,0.321-3.031,0.575-2.868,2.696
				c0.213,2.779,3.778,3.246,5.743,4.505c1.02,0.654,2.392,1.174,3.274,2.001c0.598,0.56,1.091,1.092,1.74,1.611
				c0.783,0.626,1.279,1.598,1.867,2.442c0.478,0.686,0.939,1.73,1.09,2.6c0.177,1.021,0.078,1.901-0.632,2.574
				c-0.508,0.481-0.997,0.711-1.458,1.304c-0.513,0.659-0.946,1.334-1.653,1.852c-0.798,0.584-1.66,0.505-2.643,0.471
				c-0.804-0.027-1.567-0.164-2.284-0.547c-0.309-0.165-0.858-0.693-1.307-0.786c-0.993-0.207-1.639,0.008-1.666,1.032
				c-0.046,1.741,0.637,3.852-1.121,4.869c-1.746,1.009-3.965,0.72-5.899,0.785c-1.409,0.047-1.451-0.221-2.503-1.164
				c-0.719-0.645-1.194-0.885-2.14-0.925c-1.9-0.08-3.351-0.217-3.994,1.911c-0.43,1.422-0.068,3.546-0.068,5.05
				c0,1.193,0.428,3.381-0.22,4.26c-0.468,0.635-1.432,0.693-2.081,0.928c-1.282,0.465-2.359,1.366-3.698,1.815
				c-1.498,0.503-2.297,1.725-3.542,2.643c-1.357,1.001-2.366,1.762-3.303,3.163c-0.817,1.222-1.747,2.453-2.099,3.872
				c-0.528,2.125-1.167,4.581-1.275,6.758c-0.109,2.202,0.589,4.338,1.854,6.111c0.886,1.24,2.132,2.21,3.16,3.326
				c0.643,0.698,1.217,1.474,1.971,2.045c0.945,0.715,2.023,1.477,3.044,2.076c1.694,0.993,3.079,0.807,4.998,0.804
				c0.923-0.001,2.055,0.194,2.95-0.06c1.134-0.322,1.781-1.07,3.013-1.199c1.116-0.116,2.32-0.119,3.217,0.639
				c1.021,0.861,0.787,2.031,2.216,2.317c0.97,0.194,2.966,0.121,3.712-0.473c1.026-0.818,0.943-1.189,2.435-1.453
				c1.052-0.187,2.078-0.213,3.142-0.205c1.86,0.013,2.789,0.761,4.137,1.982c0.524,0.475,0.99,1.019,1.516,1.486
				c1.097,0.974,1.265,0.704,2.409,1.183c1.102,0.462,2.255,1.113,3.429,1.592c1.961,0.8,3.985,1.243,6.053,1.67
				c3.117,0.644,6.264,0.355,9.443,0.414c2.155,0.04,1.128-0.31,2.457-1.467c1.238-1.078,5.536,0.156,6.781,0.406
				c0.965,0.194,2.004,0.289,2.909,0.684c0.497,0.217,0.9,0.568,1.428,0.706c1.023,0.268,2.285,0.057,3.342,0.064
				c0,0,1.797,0.178,2.071,0.062c0.625-0.265,0.428-0.642,0.435-1.23c0.018-1.728,0.129-2.956,0.568-4.641
				c0.432-1.659,0.015-4.186,2.158-4.921c1.107-0.379,3.006-0.041,4.159-0.041c1.846-0.001,3.691,0,5.537,0.033
				C394.835,262.149,396.552,261.418,398.632,260.195z"/>
			<path style="fill:#6FD8C6;" d="M306.552,169.394c-0.676,0.034-1.346,0.087-2.019,0.134c0.03,0.944,0.157,1.507,0.968,2.226
				c0.971,0.86,2.102,0.759,3.204,1.297c2.209,1.078-0.426,3.636,0.346,5.345c0.263,0.583,1.132,0.622,1.689,0.794
				c0.258-0.042,0.512-0.018,0.76,0.073c0.057,0.115,0.114,0.23,0.171,0.345c0.641,0.364,0.448,0.2,1.151,0.393
				c1.64,0.45,0.473,2.918,0.799,4.187c0.397,1.545,2.961,2.074,4.253,2.051c1.971-0.035,3.565,0.215,5.42,0.933
				c1.063,0.411,2.215,0.833,3.344,1.057c0.527,0.104,1.043,0.06,1.536,0.31c0.679,0.345,1.67,1.682,2.073,2.341
				c0.52,0.849,0.652,2.652,0.33,3.595c-1.796,0.321-3.031,0.575-2.868,2.696c0.213,2.779,3.778,3.246,5.743,4.505
				c1.02,0.654,2.392,1.174,3.274,2.001c0.598,0.56,1.091,1.092,1.74,1.611c0.783,0.626,1.279,1.598,1.867,2.442
				c0.478,0.686,0.939,1.73,1.09,2.6c0.177,1.021,0.078,1.901-0.632,2.574c-0.508,0.481-0.997,0.711-1.458,1.304
				c-0.513,0.659-0.946,1.334-1.653,1.852c-0.798,0.584-1.66,0.505-2.643,0.471c-0.804-0.027-1.567-0.164-2.284-0.547
				c-0.309-0.165-0.858-0.693-1.307-0.786c-0.993-0.207-1.639,0.008-1.666,1.032c-0.046,1.741,0.637,3.852-1.121,4.869
				c-1.746,1.009-3.965,0.72-5.899,0.785c-1.409,0.047-1.451-0.221-2.503-1.164c-0.719-0.645-1.194-0.885-2.14-0.925
				c-1.9-0.08-3.351-0.217-3.994,1.911c-0.43,1.422-0.068,3.546-0.068,5.05c0,1.193,0.428,3.381-0.22,4.26
				c-0.468,0.635-1.432,0.693-2.081,0.928c-1.282,0.465-2.359,1.366-3.698,1.815c-1.498,0.503-2.297,1.725-3.542,2.643
				c-1.357,1.001-2.366,1.762-3.303,3.163c-0.817,1.222-1.747,2.453-2.099,3.872c-0.528,2.125-1.167,4.581-1.275,6.758
				c-0.109,2.202,0.589,4.338,1.854,6.111c0.886,1.24,2.132,2.21,3.16,3.326c0.643,0.698,1.217,1.474,1.971,2.045
				c0.945,0.715,2.023,1.477,3.044,2.076c1.694,0.993,3.079,0.807,4.998,0.804c0.923-0.001,2.055,0.194,2.95-0.06
				c1.134-0.322,1.781-1.07,3.013-1.199c1.116-0.116,2.32-0.119,3.217,0.639c1.021,0.861,0.787,2.031,2.216,2.317
				c0.97,0.194,2.966,0.121,3.712-0.473c1.026-0.818,0.943-1.189,2.435-1.453c1.052-0.187,2.078-0.213,3.142-0.205
				c1.86,0.013,2.789,0.761,4.137,1.982c0.524,0.475,0.99,1.019,1.516,1.486c1.097,0.974,1.265,0.704,2.409,1.183
				c1.102,0.462,2.255,1.113,3.429,1.592c1.961,0.8,3.985,1.243,6.053,1.67c3.117,0.644,6.264,0.355,9.443,0.414
				c2.155,0.04,1.128-0.31,2.457-1.467c1.238-1.078,5.536,0.156,6.781,0.406c0.965,0.194,2.004,0.289,2.909,0.684
				c0.497,0.217,0.9,0.568,1.428,0.706c1.023,0.268,2.285,0.057,3.342,0.064c0,0,1.797,0.178,2.071,0.062
				c0.625-0.265,0.428-0.642,0.435-1.23c0.018-1.728,0.129-2.956,0.568-4.641c0.432-1.659,0.015-4.186,2.158-4.921
				c1.107-0.379,3.006-0.041,4.159-0.041c1.846-0.001,3.691,0,5.537,0.033c2.451,0.044,4.168-0.686,6.248-1.91
				c0.72-0.423,1.399-0.766,2.053-1.143c0.596-3.659,0.922-7.394,0.922-11.197c0-1.286-0.041-2.563-0.111-3.834
				c-0.732-0.764-1.357-1.596-1.607-2.68c-0.485-2.098,0.178-4.045,0.565-6.038c-6.613-36.068-41.241-63.933-83.732-65.935
				c-0.167-0.007-0.333-0.017-0.5-0.024c-1.458-0.062-2.924-0.097-4.4-0.097c-1.426,0-2.842,0.037-4.252,0.094
				C307.23,169.356,306.892,169.377,306.552,169.394z"/>
			<path style="fill:#5ECCB7;" d="M353.376,353.837c-1.514-1.368-4.713-0.783-6.189,0.321c-0.827,0.62-1.2,1.088-2.245,1.19
				c0.368-0.036-1.886-0.022-1.72-0.025c-4.948,0.086,2.319,0.533-9.007-0.305c-5.905-0.318-11.738-1.123-17.501-2.416
				c-0.875-0.432-1.75-0.864-2.625-1.296c-1.152-1.221-1.206-2.794-1.683-4.298c-0.558-1.76-1.81-3.206-2.533-4.885
				c-0.467-1.083-0.464-2.212-0.391-3.4c0.061-1.002,0.441-1.842,0.428-2.883c-0.008-0.643-0.001-1.289,0-1.932
				c0.001-0.799,0.301-2.202-0.02-2.971c-1.492-3.581-7.238-1.176-9.716-0.667c-2.628,0.539-5.158,0.122-7.715-0.46
				c-1.51-0.344-3.686-0.039-4.446-1.83c-0.44-1.036,0.024-2.416,0.251-3.41c0.422-1.849,0.769-3.529,1.84-5.181
				c0.998-1.54,2.186-2.679,3.827-3.424c1.25-0.567,3.522-1.755,1.93-3.37c-0.452-0.459-1.17-0.376-1.634-0.858
				c-0.552-0.573-0.547-1.179-0.5-1.92c0.096-1.504,1.347-2.509,2.735-3.026c1.816-0.677,3.664-1.258,5.477-1.957
				c1.427-0.55,5.27-0.607,5.946-2.101c0.204-0.451,0.013-1.888-0.025-2.345c-0.062-0.759-0.301-1.508-0.411-2.263
				c-0.402-2.757-3.579-2.752-5.677-3.626c-2.333-0.972-4.448-2.469-5.655-4.672c-0.484-0.883-0.739-1.78-1.069-2.683h-29.631
				c0.112,0.937,0.153,1.843,0.153,2.874c0.001,2.413,0.004,4.826,0,7.239c-0.001,0.98-0.063,1.971-0.031,2.948
				c0.039,1.178,0.486,1.584,0.781,2.605c0.042,0.38,0.095,0.759,0.158,1.137c0.111,0.09,0.223,0.179,0.334,0.268
				c0.266,0.565,0.418,0.836,0.435,1.523c0.024,0.935,0.001,1.89-0.011,2.827c-0.025,1.885-0.888,2.333-2.289,3.469
				c-1.109,0.9-2.003,0.683-3.181,0.178c-1.652-0.709-3.543-0.414-5.343-0.414c-1.177,0-2.353,0.011-3.53-0.008
				c-0.741-0.012-2.41-0.268-2.969,0.394c-0.134,0.159-0.45,1.168-0.513,1.344c-0.293,0.813-0.413,1.236-0.427,2.102
				c-0.009,0.604,0.247,1.452-0.032,2c-0.261,0.513-1.162,0.867-1.639,1.13c-0.906,0.499-1.461,0.455-2.463,0.48
				c-3.72,0.091-0.642,5.008-2.897,6.19c-0.358,0.188-1.133,0.046-1.467,0.042c-1.383-0.016-2.758,0.109-4.137-0.068
				c-1.636-0.209-3.341-0.425-4.551-1.531c-0.815-0.745-1.704-1.279-2.603-1.911c-0.555-0.39-0.831-0.862-1.333-1.274
				c-0.325-0.267-0.895-0.38-1.163-0.681c-0.437-0.49-0.948-1.501-1.226-2.074c-0.546-1.127-1.305-2.204-2.137-3.17
				c-0.425-0.493-0.368-0.428-0.967-0.784c-0.403-0.241-0.728-0.647-1.107-0.864c-0.743-0.424-2.594-0.072-3.442-0.072
				c-1.225,0-2.604,0.282-3.636-0.386c-1.046-0.677-2.047-1.809-2.875-2.738c-1.323-1.485-2.964-3.038-3.983-4.755
				c-0.694-1.169-1.479-2.069-2.361-2.981c10.767,49.107,54.513,85.865,106.853,85.865c8.048,0,15.889-0.877,23.442-2.526
				c0.057-0.751,0.089-1.542-0.13-2.114c-0.339-0.888-1.74-1.426-2.519-1.887c-0.784-0.464-1.632-0.817-2.481-1.139
				c-1.322-0.502-4.447-1.184-4.918-2.689c0.022-0.78,0.029-1.56,0.023-2.34c-0.055-0.44-0.06-0.879-0.013-1.318
				c0.068-0.138,2.723-1.322,1.823-0.911c2.473-1.129,4.917-0.821,7.568-0.822c2.462-0.001,5.383,0.398,7.699-0.713
				c1.444-0.693,1.837-2.103,2.485-3.474c0.71-1.501,1.47-3.588,2.5-4.935c0.67-0.877,1.879-1.187,2.867-1.559
				c1.039-0.391,3.144-0.46,3.997-1.189C355.644,359.168,354.492,354.846,353.376,353.837z"/>
			<path style="fill:#6FD8C6;" d="M307.861,300.388c-0.062-0.759-0.301-1.508-0.411-2.263c-0.402-2.757-3.579-2.752-5.677-3.626
				c-2.333-0.972-4.448-2.469-5.655-4.672c-0.689-1.258-0.908-2.544-1.553-3.835c-0.724-1.45-1.111-2.702-2.41-3.854
				c-1.527-1.355-2.965-0.936-4.656-0.625c-1.543,0.284-3.604,0.126-5.135-0.051c-1.109-0.128-5.898,1.323-6.814,0.725l-5.584-1.532
				c-0.212,0.695-0.675,1.141-1.691,1.427c-1.008,0.284-2.364,0.021-2.943,1.115c-0.398,0.752-0.231,1.977-0.084,2.797
				c0.248,1.384,0.322,2.58,0.322,4.024c0.001,2.413,0.004,4.826,0,7.239c-0.001,0.98-0.063,1.971-0.031,2.948
				c0.039,1.178,0.486,1.584,0.781,2.605c0.042,0.38,0.095,0.759,0.158,1.137c0.111,0.09,0.223,0.179,0.334,0.268
				c0.266,0.565,0.418,0.836,0.435,1.523c0.024,0.935,0.001,1.89-0.011,2.827c-0.025,1.885-0.888,2.333-2.289,3.469
				c-1.109,0.9-2.003,0.683-3.181,0.178c-0.698-0.299-1.44-0.415-2.198-0.454c8.616,5.41,18.363,9.52,28.882,11.997
				c0.355-1.534,0.742-2.961,1.654-4.367c0.998-1.54,2.186-2.679,3.827-3.424c1.25-0.567,3.522-1.755,1.93-3.37
				c-0.452-0.459-1.17-0.376-1.634-0.858c-0.552-0.573-0.547-1.179-0.5-1.92c0.096-1.504,1.347-2.509,2.735-3.026
				c1.816-0.677,3.664-1.258,5.477-1.957c1.427-0.55,5.27-0.607,5.946-2.101C308.09,302.281,307.898,300.845,307.861,300.388z"/>
			<path style="fill:#6FD8C6;" d="M297.342,208.201c1.198-0.384,1.204,2.069,1.078,2.721c-0.696,0.186-1.688-0.07-1.931,0.852
				c-0.148,0.56,0.324,1.457,0.563,1.897c0.336,0.617,0.702,0.84,0.841,1.49c0.185,0.867,0.704,1.992-0.268,2.52
				c-0.697,0.378-1.741,0.192-2.506,0.189c-0.313-0.001-0.662-0.056-0.971-0.021c-0.607,0.069-1.045,0.512-1.661,0.596
				c-0.387,0.053-0.882-0.105-1.082,0.389c-0.099,0.244,0.03,0.663,0.129,0.963c0.261,0.79,0.29,1.376,0.283,2.231
				c-0.009,1.017-0.631,1.329-1.103,2.175c-0.279,0.499-0.417,0.982-0.519,1.553c-0.03,0.171-0.005,0.485-0.088,0.636
				c-0.115,0.208-0.37,0.238-0.452,0.387c-0.387,0.705,0.079,1.748-0.311,2.548c-0.521,1.07-1.22,1.946-2.161,2.638
				c-0.335,0.246-0.687,0.468-1.016,0.712c-0.68,0.503-1.255,0.571-2.045,0.837c-1.083,0.364-2.062,1.111-2.738,2.037
				c-0.612,0.836-0.751,1.498-0.916,2.487c-0.142,0.849-0.533,1.463-0.528,2.359c0.003,0.605-0.086,1.255,0.041,1.853
				c0.173,0.816,0.684,1.429,1.118,2.105c0.738,1.149,1.237,2.41,2.026,3.513c1.413,1.978-1.301,2.355-2.782,2.33
				c-1.113-0.019-2.485,0.284-3.176-0.761c-0.371-0.561-0.714-1.296-0.908-1.937c-0.221-0.733-0.088-1.492-0.504-2.16
				c-0.388-0.623-0.833-0.882-1.33-1.344c-0.172-0.16-0.245-0.388-0.431-0.549c-0.445-0.384-0.957-0.401-1.523-0.428
				c-1.6-0.076-3.213-0.011-4.816-0.009c-0.915,0.001-2.013,0.339-2.685-0.347c-1.121-1.145-2.017-3.035-2.172-4.633
				c-0.145-1.5,0.157-2.812,0.572-4.213c0.449-1.514,0.19-2.924-0.27-4.422c-0.241-0.786-0.712-1.396-1.457-1.814
				c-0.275-0.154-0.591-0.207-0.878-0.319c-0.453-0.178-0.815-0.487-1.254-0.691c-0.421-0.196-0.86-0.199-1.267-0.466
				c-0.266-0.174-0.466-0.432-0.738-0.608c-0.707-0.458-1.565-0.474-2.036-1.248c-0.455-0.746-1.054-1.607-1.33-2.435
				c-0.397-1.193-0.405-2.905-0.464-4.165c-0.114-2.428,0.28-5.184,1.788-7.139c0.705-0.914,1.239-1.848,2.238-2.431
				c0.969-0.566,2.064-1.212,2.955-1.907c1.69-1.318,2.693-3.206,4.24-4.636c0.6-0.555,1.34-0.785,2.105-1.063
				c2.296-0.834,4.158-1.876,6.144-3.271c1.798-1.263,2.506-2.656,3.479-4.597c0.844-1.682,1.751-3.341,2.566-5.037
				c1.4-2.912,5.062-2.571,7.823-2.592c1.631-0.012,2.838,0.658,3.946,1.849c1.075,1.156,1.372,2.806,1.64,4.337
				c0.188,1.071,0.012,2.193,0.105,3.277c0.089,1.033-0.007,2.412,0.801,3.161c0.942,0.873,2.985,0.646,4.154,0.662
				c1.253,0.017,2.915-0.223,3.978,0.669c0.846,0.71,1.202,2.349,0.693,3.322c-0.465,0.891-1.075,1.566-1.662,2.35
				c-0.495,0.661-0.46,0.698-0.542,1.515C300.019,207.165,299.451,207.625,297.342,208.201z"/>
			<path style="fill:#5ECCB7;" d="M413.554,318.956c-0.498,0.378-1.03,0.667-1.599,0.759c-0.731,0.117-1.427-0.111-2.17,0.135
				c-0.946,0.313-1.719,1.005-2.678,1.304c-0.513,0.159-0.991,0.024-1.463,0.145c-0.685,0.174-1.808,0.63-2.416,0.947
				c-1.806,0.941-2.795,3.752-4.864,4.096c-1.084,0.18-2.33-0.081-3.335-0.386c-0.711-0.216-1.174-0.733-1.836-0.939
				c-0.212-0.066-0.591,0.102-0.798,0.069c-0.403-0.065-0.757-0.261-1.149-0.347c-1.253-0.272-3.717-0.445-4.867,0.096
				c-1.403,0.66-1.017,2.264-1.042,3.562c-0.019,0.985-0.042,1.096-0.813,1.69c-0.708,0.545-1.167,0.922-2.051,1.104
				c-0.975,0.201-1.989-0.095-2.938,0.12c-0.295,0.067-0.42,0.28-0.709,0.345c-0.485,0.11-0.952-0.025-1.448,0.004
				c-1.293,0.075-2.413,0.786-3.671,1.048c-1.527,0.318-3.06,0.052-4.583,0.311c-1.934,0.329-2.891,1.458-2.428,3.488
				c0.755,3.312,5.688,1.882,8.048,2.244c1.806,0.277,3.818,2.564,3.975,4.379c0.072,0.835,0.179,2.33-0.183,3.087
				c-0.426,0.892-1.183,1.31-1.408,2.351c-0.39,1.807-0.076,3.899,0.743,5.509c0.691,1.358,1.475,2.95,1.72,4.477
				c0.731,0.208,1.477,0.31,2.215,0.467c0.906,0.192,1.471,0.775,2.352,0.869c0.287,0.031,0.582,0.041,0.879,0.043
				C397.451,348.741,407.289,334.753,413.554,318.956z"/>
		</g>
		<polygon style="fill:#D6EDE8;" points="336.08,289.323 363.945,293.809 321.886,397.741 		"/>
	</g>
	<g>
		<g>
			<path style="fill:#8DDB95;" d="M193.7,226.599c0,0-14.337-2.749-21.01-7.272c-6.673-4.522-11.512-14.747-16.162-17.423
				c8.202-2.83,17.025-0.457,25.227,6.201C192.339,216.699,193.7,226.599,193.7,226.599z"/>
			<path style="fill:#55A560;" d="M193.7,226.599c0,0-0.824-0.503-2.31-1.51c-2.699-1.829-7.581-5.323-13.678-10.494
				c-9.454-8.017-16.623-11.857-19.414-12.622c3.81,0.569,11.561,5.216,18.84,10.985C184.417,218.728,192.829,224.618,193.7,226.599
				z"/>
			<path style="fill:#55A560;" d="M192.288,225.295c0,0-4.411-6.394-9.328-11.266c-4.917-4.873-13.44-9.589-19.605-11.374
				c3.094,0.418,10.677,2.13,19.61,9.93c8.933,7.8,10.32,13.754,10.32,13.754s-8.624-3.159-13.242-6.343
				c-4.618-3.184-15.532-13.298-16.583-14.503c2.488,1.625,10.231,9.271,14.164,11.553
				C181.558,219.328,191.471,224.831,192.288,225.295z"/>
			<path style="fill:#55A560;" d="M162.913,206.697c0,0,3.598,7.623,9.528,11.074c5.93,3.451,13.112,6.843,17.834,7.385
				c-9.055-3.743-13.449-5.538-18.301-8.788C167.123,213.117,162.913,206.697,162.913,206.697z"/>
		</g>
		<g>
			<path style="fill:#8DDB95;" d="M193.835,227.826c0,0,0.02-14.599,3.215-21.999c3.195-7.4,12.334-14.066,14.093-19.135
				c4.314,7.529,3.633,16.639-1.375,25.942C203.306,224.638,193.835,227.826,193.835,227.826z"/>
			<path style="fill:#55A560;" d="M193.835,227.826c0,0,0.34-0.903,1.051-2.552c1.292-2.993,3.812-8.443,7.751-15.399
				c6.108-10.787,8.539-18.547,8.769-21.432c0.153,3.85-2.962,12.332-7.268,20.562C199.831,217.235,195.618,226.6,193.835,227.826z"
				/>
			<path style="fill:#55A560;" d="M194.852,226.196c0,0,5.456-5.529,9.323-11.271c3.867-5.742,6.907-14.996,7.507-21.386
				c0.168,3.118-0.096,10.887-6.088,21.121c-5.992,10.234-11.581,12.709-11.581,12.709s1.491-9.063,3.755-14.195
				c2.264-5.132,10.16-17.744,11.146-19.002c-1.131,2.748-7.195,11.785-8.701,16.075
				C198.708,214.539,195.155,225.306,194.852,226.196z"/>
			<path style="fill:#55A560;" d="M207.629,193.861c0,0-6.815,4.96-9.097,11.431c-2.281,6.471-4.271,14.161-3.92,18.9
				c1.984-9.595,2.925-14.247,5.211-19.621C202.11,199.197,207.629,193.861,207.629,193.861z"/>
		</g>
		<g>
			<path style="fill:#8DDB95;" d="M199.962,249.457c0,0,0.02-14.599,3.215-21.999c3.195-7.401,12.334-14.066,14.093-19.135
				c4.314,7.529,3.633,16.64-1.375,25.942C209.434,246.269,199.962,249.457,199.962,249.457z"/>
			<path style="fill:#55A560;" d="M199.962,249.457c0,0,0.34-0.903,1.051-2.551c1.292-2.993,3.812-8.443,7.751-15.4
				c6.108-10.787,8.539-18.547,8.769-21.432c0.153,3.85-2.962,12.332-7.268,20.562C205.959,238.866,201.745,248.231,199.962,249.457
				z"/>
			<path style="fill:#55A560;" d="M200.98,247.827c0,0,5.456-5.529,9.323-11.27c3.867-5.742,6.907-14.996,7.507-21.386
				c0.168,3.118-0.096,10.887-6.088,21.122c-5.992,10.234-11.581,12.709-11.581,12.709s1.491-9.063,3.755-14.195
				c2.264-5.132,10.16-17.744,11.146-19.002c-1.131,2.748-7.195,11.785-8.701,16.075C204.835,236.17,201.283,246.937,200.98,247.827
				z"/>
			<path style="fill:#55A560;" d="M213.756,215.492c0,0-6.815,4.96-9.097,11.431c-2.281,6.471-4.271,14.161-3.92,18.9
				c1.984-9.595,2.925-14.247,5.211-19.621C208.238,220.828,213.756,215.492,213.756,215.492z"/>
		</g>
		<g>
			<path style="fill:#55A560;" d="M207.112,252.932c-13.44-10.04-15.811-37.393-15.905-38.552l0.979-0.08
				c0.023,0.279,2.43,28.071,15.513,37.845L207.112,252.932z"/>
		</g>
		<g>
			<path style="fill:#8DDB95;" d="M192.314,218.514c0,0-10.035-10.603-12.812-18.17c-2.777-7.567-0.737-18.693-2.95-23.581
				c8.311,2.491,14.089,9.568,16.861,19.763C196.989,209.682,192.314,218.514,192.314,218.514z"/>
			<path style="fill:#55A560;" d="M192.638,220.09c0,0-0.7-2.464-1.319-4.15c-1.123-3.061-3.047-8.748-4.979-16.505
				c-2.995-12.029-6.574-19.331-8.393-21.582c2.761,2.687,6.341,10.984,8.883,19.918
				C189.372,206.705,193.087,217.973,192.638,220.09z"/>
			<path style="fill:#55A560;" d="M191.929,216.631c0,0,0.151-7.766-0.996-14.593c-1.148-6.827-5.314-15.632-9.277-20.68
				c2.268,2.146,7.425,7.963,10.124,19.511c2.699,11.548,0.348,17.191,0.348,17.191s-5.157-7.6-7.048-12.881
				s-4.846-19.864-4.996-21.456c1.071,2.771,2.894,13.501,4.755,17.649C186.701,205.522,191.536,215.778,191.929,216.631z"/>
			<path style="fill:#55A560;" d="M178.937,184.382c0,0-1.529,8.29,1.271,14.554c2.8,6.264,6.651,13.211,10.168,16.407
				c-5.166-8.326-7.686-12.348-9.727-17.819C178.608,192.052,178.937,184.382,178.937,184.382z"/>
		</g>
	</g>
	<g>
		<g>
			<path style="fill:#8DDB95;" d="M98.315,315.393c0,0-11.875,8.491-19.751,10.208c-7.876,1.716-18.619-1.826-23.763-0.302
				c3.604-7.893,11.405-12.649,21.883-14.001C90.204,309.554,98.315,315.393,98.315,315.393z"/>
			<path style="fill:#55A560;" d="M98.315,315.393c0,0-0.932,0.25-2.686,0.633c-3.186,0.694-9.082,1.823-17.031,2.676
				c-12.326,1.322-20.048,3.869-22.527,5.364c3.039-2.368,11.748-4.78,20.945-6.076C86.214,316.692,96.279,314.658,98.315,315.393z"
				/>
			<path style="fill:#55A560;" d="M96.397,315.516c0,0-7.673-1.212-14.592-1.009c-6.919,0.203-16.212,3.126-21.754,6.362
				c2.436-1.953,8.903-6.266,20.712-7.361c11.809-1.095,17.077,2.005,17.077,2.005s-8.234,4.07-13.724,5.22
				c-5.49,1.151-20.34,2.085-21.937,2.016c2.892-0.682,13.769-1.021,18.134-2.297C84.677,319.176,95.498,315.789,96.397,315.516z"/>
			<path style="fill:#55A560;" d="M62.675,323.977c0,0,8.003,2.648,14.59,0.731c6.588-1.917,13.996-4.782,17.644-7.829
				c-8.954,3.979-13.282,5.925-18.982,7.199C70.227,325.352,62.675,323.977,62.675,323.977z"/>
		</g>
		<g>
			<path style="fill:#8DDB95;" d="M117.644,323.72c0,0-10.074,10.566-17.489,13.727c-7.415,3.162-18.631,1.695-23.398,4.155
				c2.062-8.428,8.833-14.562,18.872-17.852C108.583,319.503,117.644,323.72,117.644,323.72z"/>
			<path style="fill:#55A560;" d="M117.644,323.72c0,0-0.869,0.421-2.52,1.124c-2.999,1.279-8.58,3.492-16.228,5.819
				c-11.86,3.608-18.969,7.556-21.123,9.489c2.542-2.895,10.645-6.896,19.436-9.893C106,327.263,115.507,323.379,117.644,323.72z"/>
			<path style="fill:#55A560;" d="M115.783,324.2c0,0-7.764,0.247-14.523,1.743c-6.759,1.496-15.339,6.108-20.177,10.325
				c2.027-2.375,7.572-7.823,18.966-11.111c11.395-3.288,17.151-1.23,17.151-1.23s-7.325,5.54-12.502,7.699
				c-5.177,2.159-19.59,5.858-21.171,6.09c2.713-1.212,13.334-3.582,17.382-5.654C104.956,329.991,114.951,324.636,115.783,324.2z"
				/>
			<path style="fill:#55A560;" d="M84.243,338.828c0,0,8.357,1.102,14.469-2.016c6.112-3.117,12.853-7.319,15.865-10.996
				c-8.05,5.586-11.937,8.309-17.297,10.628C91.919,338.764,84.243,338.828,84.243,338.828z"/>
		</g>
		<g>
			<path style="fill:#8DDB95;" d="M99.297,316.141c0,0-10.562-10.078-13.721-17.494c-3.159-7.416-1.688-18.632-4.147-23.4
				c8.427,2.065,14.558,8.839,17.846,18.879C103.516,307.082,99.297,316.141,99.297,316.141z"/>
			<path style="fill:#55A560;" d="M99.297,316.141c0,0-0.42-0.869-1.124-2.521c-1.277-3-3.489-8.581-5.813-16.23
				c-3.604-11.861-7.549-18.971-9.481-21.126c2.895,2.543,6.892,10.647,9.886,19.44C95.758,304.496,99.638,314.004,99.297,316.141z"
				/>
			<path style="fill:#55A560;" d="M98.817,314.28c0,0-0.244-7.764-1.738-14.523c-1.494-6.759-6.103-15.341-10.318-20.181
				c2.374,2.028,7.821,7.575,11.104,18.97s1.224,17.151,1.224,17.151s-5.538-7.327-7.694-12.505
				c-2.157-5.178-5.851-19.592-6.082-21.174c1.211,2.713,3.577,13.336,5.647,17.384C93.03,303.451,98.381,313.447,98.817,314.28z"/>
			<path style="fill:#55A560;" d="M84.2,282.734c0,0-1.105,8.356,2.01,14.47c3.115,6.113,7.315,12.855,10.99,15.868
				c-5.583-8.052-8.305-11.94-10.622-17.301C84.261,290.411,84.2,282.734,84.2,282.734z"/>
		</g>
		<g>
			<path style="fill:#55A560;" d="M126.637,323.829c-16.538,2.816-37.988-14.323-38.893-15.054l0.617-0.764
				c0.218,0.176,22.011,17.59,38.11,14.849L126.637,323.829z"/>
		</g>
		<g>
			<path style="fill:#8DDB95;" d="M91.502,310.824c0,0-14.599-0.039-21.995-3.243c-7.396-3.204-14.05-12.352-19.116-14.118
				c7.534-4.304,16.644-3.611,25.94,1.409C88.326,301.348,91.502,310.824,91.502,310.824z"/>
			<path style="fill:#55A560;" d="M91.502,310.824c0,0-0.903-0.341-2.55-1.055c-2.992-1.296-8.438-3.823-15.389-7.771
				c-10.779-6.122-18.536-8.563-21.42-8.797c3.85-0.148,12.329,2.978,20.553,7.295C80.919,304.814,90.278,309.039,91.502,310.824z"
				/>
			<path style="fill:#55A560;" d="M89.873,309.804c0,0-5.522-5.463-11.258-9.338c-5.737-3.875-14.987-6.926-21.376-7.535
				c3.118-0.164,10.887,0.11,21.114,6.116c10.226,6.005,12.694,11.598,12.694,11.598s-9.061-1.503-14.19-3.774
				c-5.129-2.271-17.731-10.183-18.988-11.171c2.746,1.135,11.775,7.21,16.063,8.722C78.221,305.934,88.984,309.5,89.873,309.804z"
				/>
			<path style="fill:#55A560;" d="M57.555,296.986c0,0,4.951,6.822,11.419,9.112c6.468,2.29,14.155,4.289,18.895,3.944
				c-9.592-1.997-14.243-2.944-19.614-5.237C62.884,302.511,57.555,296.986,57.555,296.986z"/>
		</g>
	</g>
	<g>
		<path style="fill:#55A560;" d="M291.9,426.613c0,0,14.075-45.454,60.736-59.273c46.661-13.82,57.384-11.712,65.044-27.574
			c-8.681,54.606-50.426,69.925-77.617,76.563S291.9,426.613,291.9,426.613z"/>
		<path style="fill:#47994F;" d="M355,372.164c3.147-2.36,6.285-4.736,8.945-8.069c-3.521,0.979-7.272,2.049-11.31,3.245
			c-46.661,13.82-60.736,59.273-60.736,59.273s10.825-1.882,27.004-5.404C316.907,399.565,338.473,385.018,355,372.164z"/>
		<path style="fill:#5FB267;" d="M362.746,364.431c5.069,13.864,18.416,21.051,32.691,22.9
			c10.532-11.144,18.877-26.393,22.243-47.565C410.609,354.409,400.902,353.748,362.746,364.431z"/>
		<g>
			<g>
				<path style="fill:#8DDB95;" d="M290.275,429.174c-0.13,0-0.26-0.051-0.358-0.151c-0.192-0.197-0.189-0.514,0.01-0.707
					c0.269-0.262,27.116-26.306,48.394-36.216c7.417-3.455,15.96-6.828,24.222-10.09c15.56-6.142,31.648-12.494,40.304-19.476
					c6.7-5.404,11.292-13.355,11.338-13.434c0.137-0.242,0.443-0.323,0.682-0.186c0.24,0.137,0.323,0.442,0.186,0.682
					c-0.046,0.082-4.732,8.195-11.578,13.718c-8.773,7.076-24.934,13.457-40.563,19.627c-8.248,3.256-16.777,6.623-24.167,10.065
					c-21.122,9.839-47.851,35.766-48.118,36.026C290.526,429.127,290.4,429.174,290.275,429.174z"/>
			</g>
			<g>
				<path style="fill:#8DDB95;" d="M394.313,368.732c-0.032,0-0.065-0.004-0.098-0.013c-0.2-0.055-0.318-0.261-0.265-0.46
					l2.893-10.666c0.055-0.201,0.263-0.319,0.46-0.265c0.2,0.055,0.318,0.261,0.265,0.46l-2.893,10.666
					C394.629,368.622,394.478,368.732,394.313,368.732z"/>
			</g>
			<g>
				<path style="fill:#8DDB95;" d="M400.676,377.694c-0.005,0-0.01,0-0.015,0c-4.94-0.188-9.813-1.96-13.717-4.99
					c-0.164-0.127-0.193-0.362-0.066-0.525c0.127-0.165,0.363-0.193,0.525-0.066c3.782,2.935,8.501,4.65,13.287,4.832
					c0.206,0.008,0.368,0.183,0.36,0.39C401.043,377.535,400.877,377.694,400.676,377.694z"/>
			</g>
			<g>
				<path style="fill:#8DDB95;" d="M393.318,386.333c-0.007,0-0.015,0-0.022-0.001c-3.843-0.223-7.816-0.453-11.642-1.39
					c-4.344-1.061-7.84-2.892-10.392-5.441c-0.146-0.146-0.147-0.384-0.001-0.53c0.147-0.147,0.384-0.147,0.53-0.001
					c2.454,2.451,5.832,4.216,10.04,5.244c3.76,0.92,7.698,1.148,11.507,1.37c0.207,0.012,0.365,0.19,0.353,0.396
					C393.68,386.179,393.515,386.333,393.318,386.333z"/>
			</g>
			<g>
				<path style="fill:#8DDB95;" d="M382.375,395.904c-0.021,0-0.041-0.002-0.063-0.005c-8.156-1.384-15.723-5.94-20.762-12.499
					c-0.126-0.164-0.095-0.399,0.069-0.526c0.164-0.123,0.4-0.095,0.526,0.069c4.924,6.411,12.319,10.864,20.291,12.216
					c0.204,0.035,0.342,0.228,0.308,0.433C382.714,395.775,382.555,395.904,382.375,395.904z"/>
			</g>
			<g>
				<path style="fill:#8DDB95;" d="M368.532,401.883c-0.019,0-0.038-0.001-0.059-0.005c-8.668-1.363-16.757-5.631-22.774-12.016
					c-0.143-0.15-0.136-0.388,0.016-0.529c0.15-0.141,0.389-0.137,0.529,0.016c5.905,6.264,13.841,10.45,22.347,11.789
					c0.204,0.032,0.344,0.224,0.312,0.429C368.874,401.751,368.714,401.883,368.532,401.883z"/>
			</g>
			<g>
				<path style="fill:#8DDB95;" d="M358.322,406.934c-0.008,0-0.017,0-0.025-0.001c-10.085-0.692-19.864-4.018-28.283-9.615
					c-0.172-0.115-0.219-0.348-0.105-0.52c0.115-0.172,0.347-0.219,0.521-0.105c8.31,5.526,17.964,8.809,27.918,9.492
					c0.207,0.014,0.363,0.193,0.349,0.399C358.683,406.783,358.518,406.934,358.322,406.934z"/>
			</g>
			<g>
				<path style="fill:#8DDB95;" d="M341.085,413.488c-0.008,0-0.017,0-0.025-0.001c-8.156-0.56-16.296-3.505-22.92-8.293
					c-0.168-0.121-0.205-0.355-0.084-0.523c0.122-0.168,0.357-0.205,0.523-0.084c6.512,4.707,14.514,7.603,22.531,8.152
					c0.207,0.014,0.363,0.193,0.349,0.4C341.445,413.336,341.28,413.488,341.085,413.488z"/>
			</g>
			<g>
				<path style="fill:#8DDB95;" d="M323.062,417.527c-5.281,0-10.539-1.525-14.992-4.379c-0.175-0.111-0.226-0.344-0.113-0.518
					c0.112-0.176,0.345-0.225,0.518-0.113c4.871,3.12,10.741,4.606,16.497,4.191c0.23-0.022,0.386,0.141,0.401,0.347
					c0.015,0.207-0.141,0.387-0.347,0.401C324.371,417.503,323.716,417.527,323.062,417.527z"/>
			</g>
			<g>
				<path style="fill:#8DDB95;" d="M310.467,411.591c-0.2,0-0.366-0.157-0.375-0.359c-0.268-6.251,1.279-12.695,4.356-18.145
					c0.102-0.18,0.33-0.243,0.511-0.142c0.18,0.102,0.244,0.33,0.142,0.511c-3.008,5.328-4.521,11.63-4.259,17.744
					c0.009,0.206-0.152,0.382-0.359,0.391C310.478,411.591,310.472,411.591,310.467,411.591z"/>
			</g>
			<g>
				<path style="fill:#8DDB95;" d="M322.157,402.532c-0.006,0-0.013,0-0.02-0.001c-0.207-0.011-0.366-0.187-0.354-0.394
					c0.39-7.436,3.049-14.825,7.487-20.806c0.123-0.167,0.357-0.2,0.524-0.077c0.166,0.123,0.201,0.358,0.077,0.524
					c-4.352,5.863-6.958,13.107-7.341,20.397C322.522,402.376,322.355,402.532,322.157,402.532z"/>
			</g>
			<g>
				<path style="fill:#8DDB95;" d="M336.006,394.111c-0.012,0-0.024-0.001-0.037-0.002c-0.206-0.021-0.356-0.204-0.336-0.41
					c0.768-7.788,4.094-15.263,9.362-21.049c0.141-0.152,0.376-0.164,0.53-0.024c0.152,0.14,0.164,0.377,0.024,0.53
					c-5.16,5.666-8.418,12.988-9.171,20.617C336.36,393.966,336.197,394.111,336.006,394.111z"/>
			</g>
			<g>
				<path style="fill:#8DDB95;" d="M350.761,387.464c-0.028,0-0.058-0.003-0.087-0.011c-0.202-0.048-0.326-0.25-0.277-0.451
					c1.813-7.582,6.057-14.569,11.946-19.675c0.157-0.135,0.394-0.118,0.529,0.037c0.136,0.157,0.119,0.394-0.037,0.529
					c-5.773,5.005-9.932,11.853-11.71,19.282C351.084,387.349,350.931,387.464,350.761,387.464z"/>
			</g>
			<g>
				<path style="fill:#8DDB95;" d="M370.793,379.288c-0.035,0-0.072-0.005-0.108-0.016c-0.198-0.06-0.311-0.268-0.251-0.468
					c1.835-6.105,4.706-11.785,8.533-16.884c0.125-0.165,0.359-0.198,0.525-0.074c0.165,0.124,0.198,0.359,0.074,0.525
					c-3.774,5.027-6.605,10.629-8.414,16.649C371.104,379.184,370.954,379.288,370.793,379.288z"/>
			</g>
			<g>
				<path style="fill:#8DDB95;" d="M382.721,374.4c-0.052,0-0.104-0.011-0.155-0.033c-0.188-0.086-0.271-0.309-0.186-0.497
					c1.612-3.552,2.841-7.29,3.652-11.109c0.043-0.201,0.237-0.33,0.445-0.289c0.202,0.043,0.332,0.242,0.289,0.445
					c-0.823,3.872-2.069,7.662-3.703,11.264C382.999,374.318,382.863,374.4,382.721,374.4z"/>
			</g>
		</g>
	</g>
	<g>
		<path style="fill:#69B776;" d="M300.916,401.222c0,0-0.218-47.583,40.143-74.771c40.361-27.189,51.222-28.397,53.767-45.827
			c8.111,54.694-27.11,81.837-51.055,96.331C319.826,391.448,300.916,401.222,300.916,401.222z"/>
		<path style="fill:#55A560;" d="M338.949,327.92c-38.24,27.396-38.033,73.302-38.033,73.302s18.808-9.721,42.659-24.15
			C336.94,361.568,338.617,345.044,338.949,327.92z"/>
		<path style="fill:#73BF7D;" d="M341.059,326.45c-1.926,1.298-3.759,2.643-5.505,4.026c15.285,9.587,34.171,8.324,51.776,3.349
			c7.075-13.989,10.729-31.406,7.497-53.202C392.281,298.053,381.42,299.261,341.059,326.45z"/>
		<g>
			<g>
				<path style="fill:#A1E2AA;" d="M300.134,404.152c-0.124,0.039-0.263,0.03-0.387-0.037c-0.243-0.13-0.334-0.433-0.203-0.677
					c0.178-0.33,17.97-33.232,35.291-49.072c6.038-5.522,13.174-11.304,20.076-16.895c12.998-10.53,26.438-21.418,32.599-30.676
					c4.769-7.166,6.762-16.129,6.782-16.218c0.058-0.272,0.326-0.441,0.595-0.382c0.27,0.058,0.441,0.325,0.382,0.594
					c-0.019,0.092-2.054,9.238-6.926,16.561c-6.245,9.383-19.745,20.321-32.801,30.898c-6.89,5.581-14.016,11.354-20.031,16.855
					c-17.195,15.725-34.908,48.48-35.085,48.809C300.361,404.032,300.255,404.114,300.134,404.152z"/>
			</g>
			<g>
				<path style="fill:#A1E2AA;" d="M381.232,315.268c-0.031,0.01-0.064,0.016-0.097,0.017c-0.207,0.008-0.382-0.153-0.391-0.359
					l-0.442-11.043c-0.008-0.208,0.155-0.383,0.359-0.391c0.207-0.008,0.382,0.153,0.39,0.359l0.443,11.042
					C381.501,315.068,381.389,315.218,381.232,315.268z"/>
			</g>
			<g>
				<path style="fill:#A1E2AA;" d="M389.992,321.906c-0.005,0.001-0.009,0.003-0.014,0.004c-4.769,1.304-9.948,1.076-14.582-0.643
					c-0.195-0.072-0.293-0.288-0.221-0.481c0.071-0.195,0.288-0.293,0.481-0.221c4.489,1.664,9.505,1.884,14.125,0.621
					c0.199-0.054,0.406,0.064,0.461,0.263C390.294,321.645,390.184,321.846,389.992,321.906z"/>
			</g>
			<g>
				<path style="fill:#A1E2AA;" d="M385.566,332.356c-0.007,0.002-0.014,0.004-0.021,0.006c-3.732,0.941-7.592,1.914-11.522,2.169
					c-4.462,0.291-8.346-0.406-11.546-2.071c-0.184-0.096-0.256-0.322-0.16-0.506c0.096-0.184,0.322-0.256,0.506-0.16
					c3.077,1.602,6.829,2.271,11.151,1.988c3.862-0.251,7.688-1.215,11.388-2.147c0.201-0.051,0.405,0.071,0.455,0.272
					C385.865,332.1,385.754,332.297,385.566,332.356z"/>
			</g>
			<g>
				<path style="fill:#A1E2AA;" d="M378.001,344.77c-0.02,0.006-0.04,0.01-0.061,0.014c-8.195,1.128-16.78-0.946-23.556-5.691
					c-0.169-0.119-0.21-0.352-0.092-0.523c0.12-0.167,0.354-0.211,0.523-0.092c6.621,4.637,15.012,6.665,23.022,5.562
					c0.205-0.028,0.395,0.115,0.423,0.32C378.285,344.545,378.172,344.716,378.001,344.77z"/>
			</g>
			<g>
				<path style="fill:#A1E2AA;" d="M366.591,354.629c-0.018,0.006-0.037,0.01-0.057,0.013c-8.677,1.302-17.674-0.341-25.331-4.625
					c-0.181-0.101-0.246-0.329-0.144-0.51c0.101-0.179,0.33-0.247,0.51-0.144c7.513,4.202,16.339,5.814,24.855,4.537
					c0.204-0.031,0.395,0.11,0.426,0.315C366.878,354.4,366.765,354.574,366.591,354.629z"/>
			</g>
			<g>
				<path style="fill:#A1E2AA;" d="M358.368,362.511c-0.008,0.002-0.016,0.005-0.025,0.007c-9.828,2.367-20.154,2.13-29.865-0.682
					c-0.199-0.058-0.313-0.266-0.256-0.465c0.058-0.199,0.265-0.313,0.465-0.256c9.585,2.777,19.78,3.01,29.48,0.674
					c0.202-0.049,0.405,0.075,0.452,0.276C358.667,362.259,358.555,362.453,358.368,362.511z"/>
			</g>
			<g>
				<path style="fill:#A1E2AA;" d="M343.893,373.937c-0.007,0.002-0.016,0.005-0.025,0.007c-7.948,1.914-16.596,1.548-24.352-1.031
					c-0.197-0.065-0.302-0.277-0.237-0.474c0.066-0.197,0.278-0.303,0.474-0.237c7.624,2.535,16.126,2.895,23.939,1.013
					c0.202-0.049,0.405,0.075,0.452,0.276C344.191,373.685,344.079,373.878,343.893,373.937z"/>
			</g>
			<g>
				<path style="fill:#A1E2AA;" d="M327.913,383.2c-5.038,1.585-10.511,1.708-15.615,0.323c-0.2-0.054-0.318-0.26-0.263-0.46
					c0.054-0.201,0.261-0.318,0.46-0.263c5.583,1.514,11.629,1.17,16.995-0.954c0.213-0.09,0.41,0.018,0.487,0.21
					c0.076,0.193-0.018,0.411-0.21,0.487C329.155,382.784,328.538,383.004,327.913,383.2z"/>
			</g>
			<g>
				<path style="fill:#A1E2AA;" d="M314.118,381.319c-0.191,0.06-0.397-0.04-0.466-0.23c-2.132-5.882-2.59-12.494-1.291-18.616
					c0.043-0.202,0.242-0.331,0.445-0.288c0.202,0.043,0.332,0.242,0.288,0.445c-1.27,5.985-0.821,12.451,1.264,18.204
					c0.07,0.194-0.031,0.41-0.225,0.48C314.128,381.315,314.122,381.317,314.118,381.319z"/>
			</g>
			<g>
				<path style="fill:#A1E2AA;" d="M322.55,369.168c-0.006,0.002-0.012,0.004-0.019,0.005c-0.201,0.052-0.405-0.068-0.456-0.269
					c-1.86-7.21-1.542-15.057,0.897-22.094c0.067-0.196,0.281-0.298,0.477-0.231c0.195,0.068,0.299,0.281,0.231,0.477
					c-2.391,6.899-2.703,14.592-0.88,21.66C322.85,368.91,322.739,369.108,322.55,369.168z"/>
			</g>
			<g>
				<path style="fill:#A1E2AA;" d="M333.232,356.978c-0.011,0.004-0.024,0.006-0.036,0.009c-0.203,0.042-0.401-0.088-0.444-0.29
					c-1.605-7.66-0.676-15.788,2.612-22.888c0.088-0.188,0.309-0.269,0.499-0.182c0.187,0.088,0.27,0.31,0.182,0.499
					c-3.221,6.954-4.131,14.916-2.559,22.419C333.527,356.734,333.414,356.921,333.232,356.978z"/>
			</g>
			<g>
				<path style="fill:#A1E2AA;" d="M345.311,346.209c-0.027,0.009-0.056,0.014-0.086,0.016c-0.207,0.015-0.386-0.141-0.4-0.347
					c-0.546-7.777,1.404-15.715,5.49-22.353c0.11-0.176,0.34-0.231,0.516-0.124c0.177,0.109,0.232,0.34,0.124,0.516
					c-4.005,6.507-5.916,14.287-5.382,21.908C345.585,346.002,345.473,346.158,345.311,346.209z"/>
			</g>
			<g>
				<path style="fill:#A1E2AA;" d="M361.965,332.397c-0.033,0.011-0.07,0.017-0.108,0.018c-0.207,0.003-0.377-0.163-0.38-0.371
					c-0.082-6.374,0.952-12.654,3.072-18.667c0.07-0.195,0.283-0.297,0.479-0.229c0.195,0.069,0.297,0.283,0.228,0.479
					c-2.091,5.928-3.11,12.121-3.028,18.407C362.23,332.204,362.119,332.349,361.965,332.397z"/>
			</g>
			<g>
				<path style="fill:#A1E2AA;" d="M371.876,324.154c-0.049,0.016-0.103,0.021-0.158,0.015c-0.206-0.025-0.352-0.213-0.327-0.418
					c0.472-3.872,0.522-7.807,0.149-11.693c-0.019-0.205,0.127-0.386,0.338-0.409c0.206-0.02,0.389,0.131,0.409,0.338
					c0.377,3.941,0.326,7.93-0.151,11.856C372.117,323.992,372.012,324.111,371.876,324.154z"/>
			</g>
		</g>
	</g>
	<g>
		<path style="fill:#55A560;" d="M168.523,309.72c0,0-6.143-39.786-43.481-57.138c-37.338-17.352-46.573-16.918-51.017-31.143
			c0.494,46.777,33.531,64.774,55.465,73.702C151.424,304.068,168.523,309.72,168.523,309.72z"/>
		<path style="fill:#47994F;" d="M122.465,256.326c-2.341-2.365-4.673-4.743-6.486-7.862c2.825,1.256,5.832,2.617,9.063,4.118
			c37.337,17.352,43.48,57.138,43.48,57.138s-8.826-2.918-21.93-7.871C150.948,283.981,134.703,269.133,122.465,256.326z"/>
		<path style="fill:#5FB267;" d="M116.942,248.893c-5.962,10.975-18.023,15.334-30.199,15.112
			c-7.432-10.632-12.526-24.429-12.717-42.566C78.128,234.57,86.333,235.221,116.942,248.893z"/>
		<g>
			<g>
				<path style="fill:#8DDB95;" d="M169.566,312.064c0.109,0.016,0.224-0.01,0.319-0.082c0.185-0.141,0.221-0.406,0.079-0.593
					c-0.192-0.252-19.432-25.378-36.01-36.311c-5.779-3.811-12.51-7.694-19.02-11.448c-12.26-7.07-24.938-14.381-31.316-21.297
					c-4.937-5.354-7.794-12.578-7.823-12.649c-0.084-0.22-0.331-0.326-0.548-0.24c-0.218,0.085-0.325,0.33-0.24,0.548
					c0.028,0.074,2.944,7.446,7.989,12.916c6.465,7.01,19.199,14.354,31.514,21.456c6.499,3.748,13.22,7.623,18.978,11.421
					c16.457,10.853,35.612,35.866,35.803,36.118C169.361,311.994,169.46,312.049,169.566,312.064z"/>
			</g>
			<g>
				<path style="fill:#8DDB95;" d="M89.99,248.578c0.027,0.004,0.055,0.005,0.083,0.002c0.174-0.021,0.299-0.179,0.279-0.352
					l-1.098-9.285c-0.021-0.175-0.18-0.3-0.352-0.279c-0.174,0.021-0.299,0.179-0.278,0.352l1.098,9.285
					C89.739,248.447,89.852,248.558,89.99,248.578z"/>
			</g>
			<g>
				<path style="fill:#8DDB95;" d="M83.553,255.29c0.004,0.001,0.008,0.001,0.012,0.002c4.158,0.456,8.455-0.424,12.099-2.475
					c0.153-0.086,0.207-0.279,0.121-0.432c-0.086-0.154-0.28-0.207-0.431-0.121c-3.529,1.987-7.691,2.838-11.719,2.396
					c-0.173-0.019-0.331,0.107-0.35,0.281C83.265,255.112,83.385,255.265,83.553,255.29z"/>
			</g>
			<g>
				<path style="fill:#8DDB95;" d="M88.64,263.433c0.006,0.001,0.012,0.002,0.018,0.002c3.244,0.29,6.598,0.59,9.915,0.281
					c3.767-0.35,6.92-1.449,9.372-3.265c0.141-0.104,0.171-0.303,0.067-0.444c-0.104-0.141-0.303-0.171-0.444-0.066
					c-2.358,1.747-5.404,2.805-9.053,3.144c-3.261,0.304-6.585,0.007-9.8-0.28c-0.175-0.016-0.329,0.113-0.344,0.287
					C88.356,263.259,88.475,263.408,88.64,263.433z"/>
			</g>
			<g>
				<path style="fill:#8DDB95;" d="M96.611,272.799c0.017,0.003,0.035,0.003,0.053,0.004c6.998-0.147,13.895-3.021,18.926-7.886
					c0.126-0.122,0.129-0.323,0.007-0.449c-0.122-0.123-0.323-0.129-0.449-0.007c-4.916,4.755-11.657,7.565-18.497,7.707
					c-0.175,0.004-0.314,0.149-0.311,0.324C96.344,272.649,96.461,272.777,96.611,272.799z"/>
			</g>
			<g>
				<path style="fill:#8DDB95;" d="M107.455,279.52c0.016,0.002,0.032,0.004,0.05,0.003c7.423-0.066,14.722-2.635,20.55-7.232
					c0.138-0.108,0.162-0.308,0.053-0.445c-0.108-0.136-0.308-0.163-0.445-0.053c-5.719,4.51-12.879,7.03-20.164,7.095
					c-0.175,0.002-0.315,0.145-0.314,0.32C107.185,279.367,107.303,279.497,107.455,279.52z"/>
			</g>
			<g>
				<path style="fill:#8DDB95;" d="M115.373,285.013c0.007,0.001,0.014,0.002,0.021,0.002c8.526,0.671,17.123-0.899,24.863-4.54
					c0.158-0.075,0.226-0.264,0.152-0.423c-0.075-0.158-0.263-0.226-0.423-0.152c-7.64,3.595-16.127,5.144-24.542,4.482
					c-0.175-0.014-0.328,0.117-0.341,0.291C115.091,284.842,115.21,284.989,115.373,285.013z"/>
			</g>
			<g>
				<path style="fill:#8DDB95;" d="M128.987,292.635c0.007,0.001,0.014,0.002,0.021,0.002c6.896,0.543,14.073-0.912,20.21-4.098
					c0.156-0.08,0.216-0.272,0.135-0.428c-0.081-0.156-0.273-0.216-0.428-0.135c-6.033,3.132-13.089,4.563-19.868,4.029
					c-0.175-0.014-0.328,0.117-0.341,0.291C128.704,292.464,128.823,292.611,128.987,292.635z"/>
			</g>
			<g>
				<path style="fill:#8DDB95;" d="M143.57,298.251c4.42,0.655,9.009,0.03,13.09-1.806c0.16-0.072,0.231-0.26,0.159-0.419
					c-0.072-0.161-0.261-0.231-0.419-0.159c-4.464,2.007-9.561,2.523-14.326,1.462c-0.19-0.047-0.34,0.07-0.379,0.24
					c-0.038,0.172,0.07,0.341,0.24,0.379C142.477,298.069,143.022,298.17,143.57,298.251z"/>
			</g>
			<g>
				<path style="fill:#8DDB95;" d="M154.847,294.845c0.167,0.025,0.326-0.086,0.358-0.254c0.999-5.198,0.504-10.783-1.396-15.726
					c-0.063-0.163-0.246-0.245-0.41-0.182c-0.163,0.063-0.245,0.246-0.182,0.41c1.857,4.832,2.341,10.294,1.364,15.378
					c-0.033,0.171,0.08,0.339,0.252,0.372C154.838,294.844,154.843,294.845,154.847,294.845z"/>
			</g>
			<g>
				<path style="fill:#8DDB95;" d="M146.186,285.813c0.005,0.001,0.011,0.002,0.017,0.002c0.175,0.017,0.33-0.111,0.345-0.285
					c0.596-6.271-0.713-12.786-3.686-18.341c-0.082-0.155-0.274-0.212-0.429-0.13c-0.154,0.082-0.213,0.275-0.13,0.429
					c2.915,5.447,4.198,11.833,3.614,17.981C145.901,285.638,146.02,285.789,146.186,285.813z"/>
			</g>
			<g>
				<path style="fill:#8DDB95;" d="M135.64,277.048c0.01,0.001,0.021,0.002,0.031,0.003c0.175,0.008,0.324-0.127,0.332-0.302
					c0.323-6.613-1.533-13.281-5.225-18.777c-0.099-0.145-0.294-0.184-0.441-0.086c-0.145,0.098-0.184,0.295-0.086,0.441
					c3.616,5.382,5.435,11.914,5.119,18.392C135.362,276.884,135.48,277.025,135.64,277.048z"/>
			</g>
			<g>
				<path style="fill:#8DDB95;" d="M124.116,269.656c0.024,0.003,0.049,0.005,0.074,0.002c0.175-0.015,0.304-0.169,0.288-0.343
					c-0.577-6.57-3.262-12.944-7.558-17.948c-0.115-0.132-0.315-0.148-0.448-0.035c-0.133,0.115-0.149,0.315-0.035,0.448
					c4.211,4.905,6.842,11.151,7.409,17.59C123.86,269.52,123.974,269.635,124.116,269.656z"/>
			</g>
			<g>
				<path style="fill:#8DDB95;" d="M108.365,260.33c0.029,0.004,0.061,0.005,0.093,0c0.173-0.025,0.293-0.186,0.268-0.36
					c-0.779-5.336-2.477-10.447-5.048-15.188c-0.084-0.154-0.276-0.21-0.43-0.127c-0.154,0.083-0.21,0.276-0.127,0.43
					c2.535,4.676,4.21,9.715,4.977,14.978C108.118,260.204,108.23,260.31,108.365,260.33z"/>
			</g>
			<g>
				<path style="fill:#8DDB95;" d="M98.988,254.759c0.043,0.006,0.089,0.004,0.134-0.008c0.168-0.049,0.265-0.225,0.218-0.393
					c-0.909-3.172-1.474-6.453-1.679-9.75c-0.011-0.174-0.158-0.306-0.337-0.297c-0.175,0.011-0.308,0.161-0.297,0.337
					c0.209,3.343,0.782,6.669,1.702,9.886C98.766,254.656,98.869,254.742,98.988,254.759z"/>
			</g>
		</g>
	</g>
	<g>
		<path style="fill:#69B776;" d="M161.351,296.532c0,0,15.8-37.027-6.737-71.484c-22.538-34.456-30.609-38.967-26.868-53.392
			c-24.29,39.979-5.745,72.712,8.164,91.878C149.818,282.7,161.351,296.532,161.351,296.532z"/>
		<path style="fill:#55A560;" d="M155.776,226.887c20.816,33.922,5.575,69.645,5.575,69.645s-11.471-13.757-25.328-32.842
			C146.289,253.782,150.41,240.347,155.776,226.887z"/>
		<path style="fill:#73BF7D;" d="M154.614,225.048c1.076,1.645,2.063,3.295,2.97,4.947c-15.067,2.454-29.377-4.735-41.468-14.396
			c-0.921-13.231,1.951-28.011,11.631-43.943C124.005,186.081,132.077,190.592,154.614,225.048z"/>
		<g>
			<g>
				<path style="fill:#A1E2AA;" d="M160.998,299.073c0.084,0.071,0.195,0.109,0.314,0.099c0.232-0.022,0.403-0.228,0.381-0.461
					c-0.03-0.316-3.094-31.813-11.396-49.853c-2.894-6.289-6.559-13.141-10.103-19.768c-6.676-12.48-13.578-25.384-15.34-34.625
					c-1.364-7.154,0.026-14.797,0.039-14.873c0.044-0.231-0.109-0.451-0.338-0.493c-0.23-0.043-0.451,0.109-0.493,0.338
					c-0.015,0.078-1.433,7.877-0.039,15.187c1.787,9.367,8.72,22.33,15.425,34.865c3.539,6.615,7.198,13.456,10.081,19.722
					c8.241,17.909,11.292,49.265,11.322,49.58C160.861,298.905,160.917,299.004,160.998,299.073z"/>
			</g>
			<g>
				<path style="fill:#A1E2AA;" d="M126.965,203.133c0.021,0.018,0.044,0.033,0.07,0.045c0.159,0.074,0.348,0.006,0.423-0.152
					l3.972-8.464c0.075-0.16,0.005-0.35-0.152-0.423c-0.159-0.074-0.348-0.006-0.423,0.152l-3.972,8.464
					C126.821,202.889,126.859,203.043,126.965,203.133z"/>
			</g>
			<g>
				<path style="fill:#A1E2AA;" d="M117.955,205.431c0.003,0.003,0.006,0.005,0.009,0.008c3.29,2.583,7.403,4.107,11.581,4.289
					c0.175,0.008,0.323-0.128,0.33-0.303c0.008-0.176-0.128-0.324-0.303-0.33c-4.046-0.177-8.03-1.653-11.217-4.156
					c-0.137-0.108-0.338-0.084-0.446,0.054C117.804,205.128,117.825,205.321,117.955,205.431z"/>
			</g>
			<g>
				<path style="fill:#A1E2AA;" d="M117.973,215.033c0.004,0.004,0.009,0.008,0.014,0.011c2.601,1.96,5.291,3.986,8.271,5.476
					c3.383,1.693,6.641,2.425,9.682,2.178c0.175-0.014,0.305-0.167,0.291-0.342c-0.014-0.175-0.167-0.305-0.342-0.291
					c-2.925,0.238-6.07-0.473-9.347-2.113c-2.929-1.465-5.595-3.473-8.173-5.415c-0.14-0.106-0.339-0.078-0.444,0.062
					C117.824,214.735,117.845,214.925,117.973,215.033z"/>
			</g>
			<g>
				<path style="fill:#A1E2AA;" d="M119.793,227.196c0.013,0.011,0.027,0.021,0.043,0.031c6.019,3.572,13.394,4.775,20.235,3.301
					c0.171-0.037,0.28-0.206,0.243-0.378c-0.038-0.169-0.206-0.28-0.378-0.243c-6.686,1.441-13.894,0.266-19.777-3.226
					c-0.151-0.089-0.346-0.04-0.435,0.111C119.645,226.928,119.677,227.098,119.793,227.196z"/>
			</g>
			<g>
				<path style="fill:#A1E2AA;" d="M125.451,238.631c0.012,0.01,0.025,0.02,0.04,0.029c6.338,3.865,13.892,5.54,21.269,4.715
					c0.174-0.019,0.3-0.176,0.28-0.35c-0.02-0.173-0.176-0.301-0.35-0.28c-7.238,0.809-14.649-0.834-20.869-4.627
					c-0.149-0.091-0.344-0.044-0.436,0.106C125.302,238.359,125.333,238.532,125.451,238.631z"/>
			</g>
			<g>
				<path style="fill:#A1E2AA;" d="M129.273,247.478c0.005,0.004,0.011,0.009,0.017,0.013c6.885,5.074,15.014,8.281,23.509,9.279
					c0.174,0.02,0.331-0.105,0.352-0.279c0.02-0.174-0.104-0.331-0.279-0.352c-8.386-0.983-16.41-4.15-23.206-9.158
					c-0.141-0.105-0.34-0.074-0.443,0.067C129.123,247.183,129.147,247.371,129.273,247.478z"/>
			</g>
			<g>
				<path style="fill:#A1E2AA;" d="M136.805,261.141c0.005,0.004,0.011,0.009,0.017,0.013c5.568,4.103,12.431,6.659,19.326,7.196
					c0.175,0.014,0.327-0.117,0.341-0.292c0.013-0.175-0.118-0.327-0.292-0.341c-6.777-0.528-13.525-3.04-18.998-7.074
					c-0.141-0.104-0.34-0.074-0.444,0.067C136.656,260.846,136.68,261.034,136.805,261.141z"/>
			</g>
			<g>
				<path style="fill:#A1E2AA;" d="M146.222,273.613c3.407,2.891,7.634,4.785,12.069,5.381c0.174,0.024,0.334-0.098,0.356-0.272
					c0.024-0.175-0.1-0.334-0.272-0.356c-4.85-0.654-9.451-2.908-12.937-6.326c-0.137-0.14-0.326-0.12-0.449,0.004
					c-0.123,0.126-0.121,0.327,0.004,0.449C145.39,272.881,145.8,273.254,146.222,273.613z"/>
			</g>
			<g>
				<path style="fill:#A1E2AA;" d="M157.596,276.677c0.129,0.11,0.322,0.099,0.439-0.026c3.594-3.886,6.124-8.89,7.121-14.09
					c0.033-0.171-0.08-0.337-0.252-0.371c-0.172-0.033-0.338,0.079-0.371,0.252c-0.976,5.084-3.45,9.977-6.965,13.778
					c-0.118,0.128-0.111,0.33,0.018,0.449C157.589,276.672,157.593,276.675,157.596,276.677z"/>
			</g>
			<g>
				<path style="fill:#A1E2AA;" d="M155.013,264.434c0.004,0.003,0.008,0.007,0.013,0.01c0.139,0.106,0.338,0.08,0.444-0.06
					c3.819-5.01,6.148-11.233,6.558-17.521c0.012-0.175-0.121-0.325-0.296-0.337c-0.174-0.012-0.326,0.121-0.337,0.296
					c-0.402,6.165-2.686,12.265-6.429,17.177C154.863,264.134,154.885,264.325,155.013,264.434z"/>
			</g>
			<g>
				<path style="fill:#A1E2AA;" d="M150.689,251.421c0.008,0.006,0.016,0.013,0.025,0.019c0.144,0.1,0.342,0.063,0.441-0.081
					c3.767-5.445,5.713-12.087,5.482-18.704c-0.007-0.175-0.153-0.312-0.329-0.306c-0.175,0.007-0.312,0.153-0.306,0.329
					c0.227,6.48-1.679,12.987-5.369,18.32C150.539,251.134,150.565,251.316,150.689,251.421z"/>
			</g>
			<g>
				<path style="fill:#A1E2AA;" d="M144.808,239.057c0.018,0.016,0.039,0.03,0.062,0.041c0.157,0.08,0.347,0.017,0.426-0.139
					c2.98-5.884,4.068-12.714,3.063-19.232c-0.028-0.173-0.189-0.292-0.362-0.266c-0.174,0.027-0.292,0.189-0.266,0.362
					c0.985,6.389-0.081,13.083-3,18.849C144.663,238.805,144.698,238.964,144.808,239.057z"/>
			</g>
			<g>
				<path style="fill:#A1E2AA;" d="M136.36,222.817c0.023,0.019,0.049,0.036,0.079,0.049c0.161,0.07,0.347-0.003,0.418-0.164
					c2.158-4.943,3.415-10.179,3.737-15.563c0.01-0.175-0.123-0.325-0.298-0.336c-0.174-0.01-0.325,0.123-0.336,0.298
					c-0.317,5.309-1.557,10.473-3.685,15.346C136.217,222.58,136.256,222.729,136.36,222.817z"/>
			</g>
			<g>
				<path style="fill:#A1E2AA;" d="M131.341,213.135c0.033,0.028,0.073,0.05,0.118,0.064c0.169,0.048,0.344-0.051,0.392-0.219
					c0.904-3.174,2.158-6.258,3.725-9.166c0.082-0.153,0.028-0.343-0.129-0.43c-0.154-0.083-0.347-0.025-0.43,0.129
					c-1.588,2.949-2.859,6.076-3.777,9.293C131.206,212.929,131.249,213.057,131.341,213.135z"/>
			</g>
		</g>
	</g>
	<g>
		<polygon style="fill:#434C77;" points="189.658,374.837 190.73,433.86 308.193,431.427 308.193,294.831 190.73,296.019 		"/>
		<path style="fill:#F9E6E1;" d="M308.234,407.59c0,0-4.468,7.149-1.915,19.277c-27.702,0.766-114.59,2.872-114.59,2.872
			s7.1-8.234-0.471-16.851C201.798,412.026,308.234,407.59,308.234,407.59z"/>
		<polygon style="fill:#EFC8BB;" points="195,415.377 208.688,414.939 222.378,414.579 249.759,413.981 277.144,413.557 
			290.837,413.406 304.532,413.334 290.844,413.773 277.154,414.133 249.773,414.73 222.388,415.153 208.695,415.304 		"/>
		<polygon style="fill:#EFC8BB;" points="195,417.419 208.688,416.982 222.378,416.622 249.759,416.024 277.144,415.599 
			290.837,415.449 304.532,415.377 290.844,415.816 277.154,416.176 249.773,416.773 222.388,417.196 208.695,417.346 		"/>
		<polygon style="fill:#EFC8BB;" points="195,419.462 208.688,419.024 222.378,418.664 249.759,418.066 277.144,417.642 
			290.837,417.491 304.532,417.419 290.844,417.858 277.154,418.219 249.773,418.815 222.388,419.238 208.695,419.389 		"/>
		<polygon style="fill:#EFC8BB;" points="195,421.504 208.688,421.067 222.378,420.707 249.759,420.109 277.144,419.684 
			290.837,419.534 304.532,419.462 290.844,419.901 277.154,420.261 249.773,420.858 222.388,421.281 208.695,421.432 		"/>
		<polygon style="fill:#EFC8BB;" points="195,423.547 208.688,423.109 222.378,422.749 249.759,422.151 277.144,421.727 
			290.837,421.576 304.532,421.505 290.844,421.943 277.154,422.304 249.773,422.9 222.388,423.324 208.695,423.474 		"/>
		<polygon style="fill:#EFC8BB;" points="195,425.59 208.688,425.152 222.378,424.792 249.759,424.194 277.144,423.769 
			290.837,423.619 304.532,423.547 290.844,423.986 277.154,424.346 249.773,424.943 222.388,425.366 208.695,425.517 		"/>
		<polygon style="fill:#EFC8BB;" points="195,427.632 208.688,427.195 222.378,426.835 249.759,426.236 277.144,425.812 
			290.837,425.661 304.532,425.59 290.844,426.028 277.154,426.389 249.773,426.985 222.388,427.409 208.695,427.559 		"/>
		<polygon style="fill:#565D8B;" points="189.658,353.444 189.73,411.487 311.802,409.959 308.193,273.438 190.73,274.626 		"/>
		<path style="fill:#465177;" d="M236.714,410.514l3.733-8.657l34.34-10.097l-18.766-6.128l-66.295,23.41l0.003,2.445l22.699-0.284
			c7.07-2.356,14.283-4.764,19.592-6.55C233.17,407.845,236.714,410.514,236.714,410.514z"/>
		<path style="fill:#465177;" d="M308.193,273.438l-117.463,1.188l-1.071,78.818l0.046,37.802
			c5.272-1.034,11.077-1.646,14.295-8.082c0,4,0,8,0,12c6.516-1.862,10.428-7.19,10.938-13.564l96.612,18.851L308.193,273.438z"/>
		<g>
			<polygon style="fill:#6D77AA;" points="189.73,434.881 189.73,411.487 311.781,408.959 311.822,410.959 191.73,413.446 
				191.73,432.84 308.172,430.427 308.213,432.427 			"/>
		</g>
	</g>
	<g>
		<g>
			<polygon style="fill:#D6EDE8;" points="324.408,209.626 346.038,224.984 347.456,238.486 353.999,232.23 383.529,252.879 
				392.854,184.15 			"/>
			<g>
				<polygon style="fill:#FFFFFF;" points="331.56,184.651 400.007,159.174 353.191,200.009 				"/>
				<polygon style="fill:#FFFFFF;" points="361.152,207.255 390.682,227.904 400.007,159.174 				"/>
				<polygon style="fill:#F4DDD7;" points="353.191,200.009 354.609,213.511 400.007,159.174 				"/>
				<polygon style="fill:#EAC3BB;" points="361.152,207.255 354.609,213.511 400.007,159.174 				"/>
			</g>
		</g>
		<g>
			<path style="fill:#FFFFFF;" d="M336.473,365.852c-1.772,0-3.556-0.063-5.304-0.186l0.141-1.994
				c1.701,0.12,3.438,0.181,5.159,0.181l0.754-0.005l0.023,2L336.473,365.852z M342.304,365.627l-0.152-1.994
				c1.957-0.15,3.935-0.38,5.879-0.684l0.309,1.977C346.344,365.236,344.314,365.473,342.304,365.627z M326.131,365.139
				c-1.997-0.276-4.01-0.639-5.982-1.076l0.434-1.953c1.919,0.426,3.879,0.779,5.823,1.049L326.131,365.139z M353.313,363.985
				l-0.432-1.953c1.906-0.422,3.834-0.927,5.729-1.499l0.578,1.914C357.246,363.035,355.269,363.552,353.313,363.985z
				 M315.246,362.804c-1.929-0.565-3.866-1.213-5.759-1.93l0.709-1.871c1.844,0.699,3.731,1.332,5.61,1.881L315.246,362.804z
				 M363.986,360.835l-0.695-1.875c1.846-0.685,3.69-1.444,5.48-2.258l0.828,1.82C367.766,359.357,365.877,360.135,363.986,360.835z
				 M304.813,358.932c-1.818-0.822-3.647-1.729-5.435-2.697l0.951-1.76c1.747,0.945,3.532,1.832,5.308,2.635L304.813,358.932z
				 M374.143,356.292l-0.936-1.768c1.748-0.925,3.477-1.92,5.139-2.958l1.059,1.697
				C377.702,354.326,375.933,355.345,374.143,356.292z M295.005,353.699c-1.698-1.049-3.397-2.178-5.051-3.354l1.16-1.629
				c1.617,1.15,3.28,2.255,4.941,3.281L295.005,353.699z M383.612,350.454l-1.16-1.629c1.617-1.153,3.196-2.37,4.692-3.617
				l1.28,1.537C386.891,348.023,385.271,349.272,383.612,350.454z M285.916,347.318c-1.555-1.228-3.116-2.536-4.641-3.888
				l1.326-1.496c1.497,1.326,3.029,2.609,4.555,3.814L285.916,347.318z M392.21,343.374l-1.381-1.447
				c1.45-1.382,2.829-2.815,4.1-4.26l1.502,1.32C395.121,340.477,393.701,341.952,392.21,343.374z M277.579,340.002
				c-1.423-1.378-2.849-2.829-4.237-4.313l1.461-1.367c1.366,1.461,2.769,2.889,4.168,4.244L277.579,340.002z M399.632,335.037
				l-1.605-1.191c1.208-1.629,2.296-3.281,3.231-4.912l1.734,0.994C402.018,331.627,400.887,333.347,399.632,335.037z
				 M269.974,331.944c-1.301-1.501-2.598-3.065-3.854-4.648l1.566-1.244c1.239,1.562,2.518,3.104,3.8,4.584L269.974,331.944z
				 M405.271,325.343l-1.844-0.774c0.502-1.195,0.924-2.388,1.254-3.546c0.194-0.681,0.378-1.352,0.552-2.018l1.935,0.504
				c-0.178,0.682-0.365,1.368-0.563,2.063C406.253,322.806,405.805,324.074,405.271,325.343z M263.058,323.304
				c-1.182-1.593-2.36-3.245-3.504-4.913l1.648-1.131c1.131,1.647,2.295,3.279,3.461,4.853L263.058,323.304z M408.305,314.579
				l-1.961-0.391c0.396-1.988,0.704-3.953,0.916-5.842l1.988,0.225C409.028,310.515,408.712,312.536,408.305,314.579z
				 M256.77,314.204c-0.399-0.618-0.798-1.243-1.192-1.875l1.695-1.061c0.391,0.624,0.783,1.241,1.177,1.852L256.77,314.204z
				 M409.607,303.5l-2-0.053c0.013-0.472,0.02-0.939,0.02-1.402c0-1.529-0.07-3.031-0.21-4.465l1.99-0.193
				c0.146,1.497,0.22,3.064,0.22,4.658C409.627,302.525,409.62,303.011,409.607,303.5z M406.647,292.773
				c-0.441-1.946-1.041-3.805-1.78-5.524l1.838-0.789c0.787,1.831,1.424,3.806,1.894,5.87L406.647,292.773z M402.592,283.008
				c-1.061-1.613-2.302-3.102-3.685-4.422l1.381-1.447c1.492,1.426,2.829,3.03,3.974,4.77L402.592,283.008z M395.14,275.605
				c-1.574-1.026-3.306-1.918-5.146-2.649l0.738-1.859c1.964,0.78,3.814,1.733,5.499,2.832L395.14,275.605z M385.366,271.499
				c-1.825-0.44-3.768-0.758-5.773-0.945l0.188-1.992c2.1,0.197,4.136,0.531,6.053,0.992L385.366,271.499z M372.064,270.369
				c-1.174,0-2.307-0.019-3.402-0.056l0.066-1.999c1.678,0.056,3.444,0.068,5.308,0.038l0.653-0.008l0.01,2l-0.629,0.008
				C373.388,270.363,372.72,270.369,372.064,270.369z M363.613,269.997c-2.145-0.205-4.176-0.5-6.034-0.878l0.398-1.96
				c1.79,0.364,3.75,0.649,5.825,0.847L363.613,269.997z M352.633,267.8c-2.086-0.71-3.98-1.586-5.631-2.604l1.049-1.702
				c1.523,0.939,3.282,1.751,5.227,2.413L352.633,267.8z M342.917,261.932c-1.449-1.499-2.626-3.181-3.598-5.142l1.791-0.889
				c0.88,1.774,1.941,3.292,3.244,4.641L342.917,261.932z M337.503,251.934c-0.235-0.864-0.449-1.787-0.634-2.743
				c-0.167-0.865-0.251-1.801-0.251-2.782c0.001-0.23,0.005-0.458,0.014-0.688l1.998,0.071c-0.007,0.209-0.011,0.416-0.012,0.621
				c0,0.851,0.072,1.659,0.215,2.399c0.175,0.906,0.377,1.78,0.6,2.596L337.503,251.934z M339.35,241.061l-1.941-0.481
				c0.448-1.808,1.092-3.77,1.913-5.833l1.857,0.74C340.392,237.465,339.776,239.34,339.35,241.061z M343.181,230.977l-1.799-0.875
				c0.844-1.734,1.799-3.54,2.839-5.368l1.738,0.989C344.94,227.513,344.006,229.281,343.181,230.977z M348.511,221.465
				l-1.693-1.064c1.916-3.048,3.326-4.982,3.385-5.063l1.615,1.18C351.804,216.536,350.387,218.481,348.511,221.465z"/>
		</g>
	</g>
	<g>
		<g>
			<g>
				<g>
					<polygon style="fill:#53C1AC;" points="136.437,407.83 143.585,429.022 256.328,392.164 256.549,375.568 					"/>
					<polygon style="fill:#8DE2D2;" points="255.772,375.777 255.562,391.526 143.316,428.222 143.585,429.022 256.328,392.164 
						256.549,375.568 					"/>
					<path style="fill:#FFF2F0;" d="M254.011,374.93c0,0-6.255,8.17,0,14.298c-27.447,8.681-109.277,33.766-109.277,33.766
						l-8.298-13.596L254.011,374.93z"/>
					<path style="fill:#EFC8BB;" d="M145.148,421.79c8.752-2.913,17.537-5.721,26.327-8.514l26.406-8.26l26.474-8.038l13.261-3.941
						l13.292-3.84l-13.148,4.308l-13.179,4.207l-26.406,8.258l-26.474,8.037C162.864,416.647,154.022,419.271,145.148,421.79z"/>
					<path style="fill:#EFC8BB;" d="M144.287,420.306c8.753-2.913,17.537-5.721,26.327-8.514l26.406-8.26l26.474-8.038l13.261-3.941
						l13.292-3.84l-13.148,4.308l-13.179,4.207l-26.406,8.258l-26.474,8.037C162.002,415.164,153.161,417.787,144.287,420.306z"/>
					<path style="fill:#EFC8BB;" d="M143.425,418.822c8.753-2.913,17.537-5.722,26.327-8.514l26.405-8.259l26.474-8.038
						l13.261-3.941l13.292-3.84l-13.148,4.308l-13.179,4.207l-26.406,8.258l-26.474,8.037
						C161.141,413.679,152.299,416.303,143.425,418.822z"/>
					<path style="fill:#EFC8BB;" d="M142.563,417.338c8.753-2.913,17.537-5.722,26.327-8.514l26.406-8.259l26.474-8.038
						l13.261-3.941l13.292-3.84l-13.148,4.308l-13.179,4.207l-26.406,8.258l-26.474,8.037
						C160.279,412.195,151.437,414.819,142.563,417.338z"/>
					<path style="fill:#EFC8BB;" d="M141.702,415.854c8.753-2.913,17.537-5.721,26.327-8.514l26.406-8.259l26.474-8.038
						l13.261-3.941l13.292-3.84l-13.148,4.308l-13.179,4.207l-26.406,8.258l-26.474,8.037
						C159.417,410.711,150.576,413.335,141.702,415.854z"/>
					<path style="fill:#EFC8BB;" d="M140.84,414.37c8.753-2.913,17.537-5.721,26.327-8.514l26.405-8.259l26.474-8.038l13.261-3.941
						l13.292-3.84l-13.148,4.308l-13.179,4.207l-26.406,8.258l-26.474,8.037C158.556,409.227,149.714,411.851,140.84,414.37z"/>
					<path style="fill:#EFC8BB;" d="M139.978,412.886c8.753-2.913,17.537-5.721,26.327-8.514l26.406-8.259l26.474-8.038
						l13.261-3.941l13.292-3.84l-13.148,4.308l-13.179,4.207l-26.406,8.258l-26.474,8.037
						C157.694,407.743,148.852,410.367,139.978,412.886z"/>
					<polygon style="fill:#6FD8C6;" points="133.502,413.189 256.549,374.302 198.954,270.89 101.332,295.721 					"/>
					<path style="fill:#80E0CE;" d="M133.502,413.189l66.334-20.963c-28.726-3.341-58.137-11.5-80.025-29.031L133.502,413.189z"/>
					<polygon style="fill:#8DE2D2;" points="256.549,374.302 133.182,412.021 133.502,413.189 256.549,375.568 					"/>
				</g>
				<path style="fill:#D64716;" d="M231.366,390.107c0,0,2.746,4.589,3.608,13.328c0.862,8.74,5.45,12.857,5.45,12.857l1.723-5.745
					l5.752,1.628c0,0-4.558-6.79-4.891-11.708c-0.333-4.917-3.447-13.046-3.447-13.046L231.366,390.107z"/>
			</g>
			<polygon style="fill:#D6EDE8;" points="130.024,288.423 107.977,319.984 116.105,349.664 228.2,383.262 252.975,393.26 
				256.328,392.164 256.516,376.787 			"/>
		</g>
		<g>
			<g>
				<g>
					<polygon style="fill:#D64716;" points="105.185,333.156 208.983,375.256 321.886,397.741 347.242,281.488 244.863,267.136 
						162.594,229.767 					"/>
					<polygon style="fill:#EF6630;" points="344.567,281.113 320.354,392.124 207.451,369.639 107.449,329.079 105.185,333.156 
						208.983,375.256 321.886,397.741 347.242,281.488 					"/>
				</g>
				<path style="fill:#FFF6F3;" d="M111.887,328.09l55.62-96.091l11.593-5.462c0,0,9.192,5.617,26.426,7.915
					c17.234,2.298,37.149,13.021,40.979,27.958c22.596-9.958,39.83-8.809,53.617,0c13.787,8.809,28.723,12.351,34.085,11.202
					l7.66,7.502l-22.787,108.445c0,0-19.723-9.191-36.957-15.702c-17.234-6.511-51.191-16.455-63.064-16.085
					c-11.872,0.37-18.319-12.255-18.319-12.255s-35.425-3.83-50.362-9.957C135.44,329.431,111.887,328.09,111.887,328.09z"/>
				<path style="fill:#FFFAF8;" d="M121.015,317.686c0,0,16.851,13.532,39.319,18.638c22.468,5.106,51.575,18,51.575,18
					l34.596-91.915c-3.83-14.936-23.745-25.66-40.979-27.957s-26.426-7.915-26.426-7.915l-11.41,5.376L121.015,317.686z"/>
				<g>
					<g>
						<path style="fill:#F9E6E1;" d="M208.525,336.966c-10.612-17.372-35.634-19.633-45.899-19.799
							c-15.853-0.255-20.057-6.794-20.228-7.072l0.638-0.393c0.04,0.064,4.209,6.468,19.602,6.716
							c10.39,0.168,35.721,2.469,46.527,20.158L208.525,336.966z"/>
					</g>
					<g>
						<path style="fill:#F9E6E1;" d="M211.354,330.099c-10.696-17.845-37.498-19.792-45.458-19.964
							c-15.594-0.338-19.84-6.641-20.013-6.909l0.629-0.407c0.041,0.063,4.253,6.239,19.4,6.566
							c8.057,0.174,35.191,2.153,46.085,20.329L211.354,330.099z"/>
					</g>
					<g>
						<path style="fill:#F9E6E1;" d="M214.185,323.232c-10.478-17.825-37.107-19.915-45.018-20.131
							c-15.335-0.419-19.622-6.486-19.797-6.744l0.62-0.422c0.042,0.06,4.297,6.01,19.198,6.416
							c8.009,0.219,34.971,2.343,45.644,20.5L214.185,323.232z"/>
					</g>
					<g>
						<path style="fill:#F9E6E1;" d="M217.015,316.364c-10.258-17.802-36.713-20.035-44.577-20.296
							c-15.076-0.5-19.404-6.333-19.581-6.581l0.61-0.436c0.041,0.058,4.339,5.782,18.996,6.268
							c7.962,0.264,34.751,2.534,45.202,20.671L217.015,316.364z"/>
					</g>
					<g>
						<path style="fill:#F9E6E1;" d="M219.845,309.497c-7.973-14.124-28.027-19.83-44.137-20.461
							c-14.816-0.582-19.186-6.18-19.365-6.417l0.599-0.451c0.042,0.055,4.383,5.553,18.795,6.118
							c7.916,0.311,34.536,2.729,44.761,20.842L219.845,309.497z"/>
					</g>
					<g>
						<path style="fill:#F9E6E1;" d="M222.675,302.63c-7.793-14.099-27.682-19.899-43.697-20.627
							c-14.557-0.662-18.966-6.024-19.147-6.253l0.587-0.466c0.042,0.053,4.426,5.325,18.594,5.969
							c16.217,0.737,36.376,6.645,44.319,21.014L222.675,302.63z"/>
					</g>
					<g>
						<path style="fill:#F9E6E1;" d="M225.505,295.762c-7.609-14.068-27.333-19.965-43.256-20.793
							c-14.296-0.741-18.747-5.868-18.93-6.086l0.574-0.482c0.043,0.051,4.471,5.097,18.395,5.82
							c16.126,0.838,36.12,6.843,43.877,21.184L225.505,295.762z"/>
					</g>
					<g>
						<path style="fill:#F9E6E1;" d="M228.335,288.895c-7.424-14.037-26.986-20.029-42.816-20.958
							c-14.037-0.823-18.527-5.714-18.711-5.922l0.561-0.499c0.044,0.049,4.515,4.869,18.195,5.673
							c16.035,0.939,35.866,7.043,43.436,21.354L228.335,288.895z"/>
					</g>
					<g>
						<path style="fill:#F9E6E1;" d="M231.165,282.026c-7.244-14.013-27.355-20.137-42.376-21.123
							c-13.777-0.904-18.306-5.559-18.492-5.758l0.545-0.515c0.044,0.047,4.559,4.642,17.996,5.524
							c15.216,0.999,35.606,7.236,42.993,21.527L231.165,282.026z"/>
					</g>
					<g>
						<path style="fill:#F9E6E1;" d="M233.995,275.158c-7.054-13.971-26.999-20.199-41.936-21.288
							c-13.515-0.985-18.085-5.404-18.272-5.592l0.529-0.531c0.045,0.044,4.604,4.413,17.798,5.375
							c15.132,1.102,35.356,7.447,42.551,21.698L233.995,275.158z"/>
					</g>
					<g>
						<path style="fill:#F9E6E1;" d="M236.826,268.291c-6.861-13.924-26.642-20.259-41.497-21.453
							c-13.255-1.066-17.862-5.25-18.052-5.428l0.512-0.548c0.045,0.042,4.648,4.186,17.601,5.227
							c15.05,1.21,35.109,7.664,42.108,21.869L236.826,268.291z"/>
					</g>
					<g>
						<path style="fill:#F9E6E1;" d="M239.656,261.423c-6.666-13.872-26.284-20.316-41.057-21.618
							c-12.994-1.148-17.64-5.095-17.831-5.262l0.493-0.566c0.046,0.04,4.693,3.958,17.404,5.079
							c14.97,1.32,34.865,7.886,41.667,22.042L239.656,261.423z"/>
					</g>
				</g>
				<g>
					<g>
						<path style="fill:#F9E6E1;" d="M299.325,361.564c-12.153,0-21.801-6.835-31.15-13.46c-7.153-5.067-13.909-9.853-21.152-10.962
							c-15.244-2.339-22.009,4.542-22.076,4.611l-0.543-0.517c0.281-0.297,7.069-7.232,22.733-4.837
							c7.419,1.136,14.245,5.973,21.473,11.093c9.886,7.004,20.113,14.249,33.207,13.224l0.059,0.748
							C301.012,361.531,300.162,361.564,299.325,361.564z"/>
					</g>
					<g>
						<path style="fill:#F9E6E1;" d="M301.745,354.18c-11.935,0.001-21.501-6.629-30.771-13.052
							c-7.06-4.892-13.728-9.512-20.821-10.625c-15.083-2.377-22.43,4.507-22.502,4.576l-0.522-0.539
							c0.306-0.296,7.661-7.214,23.141-4.777c7.263,1.139,13.999,5.807,21.132,10.749c9.697,6.72,19.711,13.664,32.386,12.853
							l0.049,0.748C303.132,354.158,302.433,354.18,301.745,354.18z"/>
					</g>
					<g>
						<path style="fill:#F9E6E1;" d="M304.181,346.801c-11.718,0.001-21.208-6.425-30.401-12.648
							c-6.968-4.716-13.55-9.171-20.494-10.289c-14.957-2.424-22.852,4.471-22.93,4.54l-0.5-0.559
							c0.08-0.072,8.256-7.198,23.549-4.722c7.108,1.145,13.757,5.645,20.795,10.408c9.51,6.438,19.315,13.113,31.562,12.479
							l0.037,0.75C305.256,346.788,304.716,346.801,304.181,346.801z"/>
					</g>
					<g>
						<path style="fill:#F9E6E1;" d="M306.644,339.429c-11.504,0-20.928-6.223-30.052-12.247
							c-6.879-4.542-13.376-8.833-20.175-9.955c-14.761-2.464-23.272,4.432-23.356,4.502l-0.48-0.576
							c0.087-0.072,8.839-7.193,23.96-4.666c6.955,1.148,13.517,5.482,20.465,10.069c9.319,6.153,18.93,12.527,30.73,12.104
							l0.025,0.75C307.387,339.422,307.013,339.429,306.644,339.429z"/>
					</g>
					<g>
						<path style="fill:#F9E6E1;" d="M309.133,332.063c-11.292,0-20.656-6.023-29.72-11.852c-6.793-4.368-13.209-8.495-19.863-9.623
							c-14.6-2.512-23.692,4.394-23.782,4.464l-0.461-0.592c0.093-0.071,9.434-7.179,24.369-4.611
							c6.805,1.154,13.284,5.32,20.144,9.732c9.125,5.869,18.571,11.947,29.89,11.727l0.014,0.75
							C309.526,332.06,309.328,332.063,309.133,332.063z"/>
					</g>
					<g>
						<path style="fill:#F9E6E1;" d="M311.655,324.705c-11.083,0-20.401-5.826-29.413-11.462c-6.71-4.195-13.049-8.159-19.56-9.295
							c-14.438-2.546-24.112,4.355-24.208,4.425l-0.442-0.605c0.099-0.072,10.018-7.169,24.78-4.558
							c6.655,1.16,13.055,5.162,19.828,9.397c8.922,5.579,18.148,11.348,29.016,11.348c0.01,0,0.018,0,0.028,0v0.75
							C311.674,324.705,311.665,324.705,311.655,324.705z"/>
					</g>
					<g>
						<path style="fill:#F9E6E1;" d="M313.644,317.353c-10.632-0.192-19.746-5.724-28.56-11.072
							c-6.633-4.025-12.897-7.827-19.271-8.97c-14.264-2.59-24.529,4.315-24.632,4.384l-0.426-0.617
							c0.104-0.072,10.604-7.149,25.191-4.505c6.51,1.167,12.833,5.005,19.526,9.067c8.729,5.297,17.755,10.775,28.185,10.963
							L313.644,317.353z"/>
					</g>
					<g>
						<path style="fill:#F9E6E1;" d="M315.604,310.001c-10.163-0.394-19.059-5.622-27.661-10.679
							c-6.561-3.857-12.758-7.499-18.999-8.65c-14.103-2.635-24.947,4.274-25.056,4.344l-0.408-0.629
							c0.109-0.071,11.189-7.147,25.602-4.452c6.37,1.176,12.622,4.851,19.241,8.741c8.522,5.01,17.335,10.189,27.31,10.575
							L315.604,310.001z"/>
					</g>
					<g>
						<path style="fill:#F9E6E1;" d="M317.564,302.647c-9.69-0.591-18.359-5.515-26.743-10.276
							c-6.496-3.69-12.632-7.176-18.745-8.338c-13.938-2.679-25.365,4.233-25.479,4.303l-0.395-0.639
							c0.116-0.071,11.783-7.136,26.014-4.4c6.234,1.185,12.423,4.7,18.975,8.422c8.31,4.72,16.902,9.6,26.418,10.181
							L317.564,302.647z"/>
					</g>
					<g>
						<path style="fill:#F9E6E1;" d="M319.522,295.296c-9.207-0.786-17.64-5.403-25.795-9.868
							c-6.441-3.527-12.526-6.858-18.52-8.033c-13.775-2.724-25.783,4.19-25.903,4.261l-0.379-0.647
							c0.121-0.072,12.375-7.127,26.427-4.351c6.106,1.197,12.241,4.556,18.735,8.112c8.087,4.428,16.449,9.006,25.499,9.777
							L319.522,295.296z"/>
					</g>
					<g>
						<path style="fill:#F9E6E1;" d="M321.48,287.942c-8.713-0.975-16.895-5.28-24.808-9.444c-6.402-3.37-12.45-6.553-18.334-7.743
							c-13.602-2.765-26.198,4.149-26.325,4.22l-0.365-0.654c0.127-0.072,12.958-7.127,26.839-4.3
							c5.989,1.211,12.084,4.418,18.535,7.814c7.851,4.132,15.969,8.404,24.542,9.362L321.48,287.942z"/>
					</g>
					<g>
						<path style="fill:#F9E6E1;" d="M323.437,280.589c-8.202-1.156-16.111-5.145-23.761-9.001
							c-6.385-3.22-12.415-6.261-18.207-7.471c-13.429-2.81-26.614,4.106-26.746,4.177l-0.353-0.662
							c0.135-0.071,13.552-7.111,27.254-4.249c5.888,1.23,11.961,4.293,18.391,7.535c7.595,3.829,15.447,7.789,23.528,8.929
							L323.437,280.589z"/>
					</g>
				</g>
				<path style="fill:#F7DDD2;" d="M201.032,365.188c0,0-4.187-17.758-19.37-19.891c-15.01-2.109-55.413-7.25-69.775-17.207
					c11.681-7.468,20.681-14.336,20.681-14.336s13.404,10.698,39.447,11.081c26.043,0.383,36.447,23.745,39.894,29.489
					c15.702-9.191,30.191-16.277,44.745-3.638c14.553,12.638,44.234,22.404,55.149,16.851c6.511,16.085,7.277,22.021,7.277,22.021
					s-35.426-6.319-55.915-13.213c-20.489-6.894-23.483-23.266-43.781-6.798c-0.467-0.642-2.745-2.043-4.234-3.07
					c-3.633-2.508-5.74-4.477-10.862-2.658L201.032,365.188z"/>
				<g>
					<path style="fill:#EFC8BB;" d="M215.149,366.477c3.134-3.314,6.836-6.145,11.009-8.096c2.09-0.952,4.334-1.661,6.661-1.823
						c2.316-0.206,4.693,0.221,6.864,0.916c4.412,1.331,8.577,3.39,12.486,5.787c3.915,2.399,7.613,5.096,11.396,7.625
						c3.679,2.632,7.942,4.274,12.211,5.817c4.288,1.512,8.678,2.735,13.089,3.866c4.416,1.113,8.879,2.053,13.374,2.804
						c4.491,0.781,9.023,1.334,13.583,1.59c-9.145-0.115-18.226-1.618-27.138-3.646c-4.461-1.019-8.869-2.274-13.207-3.754
						c-1.085-0.371-2.166-0.75-3.233-1.177c-1.077-0.396-2.133-0.851-3.187-1.315c-1.059-0.449-2.084-0.989-3.109-1.524
						l-1.505-0.886l-1.436-0.946c-3.789-2.57-7.457-5.282-11.315-7.68c-3.847-2.411-7.938-4.407-12.238-5.83
						c-2.16-0.733-4.344-1.165-6.59-1.019c-2.24,0.107-4.438,0.757-6.511,1.642C222.183,360.596,218.437,363.325,215.149,366.477z"
						/>
					<path style="fill:#EFC8BB;" d="M215.149,362.558c2.97-3.43,6.507-6.395,10.48-8.659c2.012-1.088,4.155-1.95,6.401-2.479
						c2.26-0.486,4.614-0.498,6.902-0.093c4.495,0.886,8.825,2.611,12.759,4.943c3.959,2.303,7.594,5.059,11.259,7.724
						c3.678,2.655,7.23,5.484,11.274,7.449c4.025,2.015,8.302,3.511,12.646,4.731c4.353,1.2,8.809,2.049,13.308,2.507
						c4.494,0.475,9.056,0.508,13.538-0.231c-4.443,0.963-9.047,1.032-13.581,0.719c-4.539-0.362-9.044-1.131-13.463-2.252
						c-4.42-1.115-8.742-2.654-12.856-4.66c-1.022-0.514-2.026-1.069-3.024-1.631c-0.96-0.623-1.969-1.2-2.885-1.866
						c-1.877-1.287-3.714-2.626-5.55-3.961c-3.652-2.693-7.25-5.456-11.127-7.745c-3.853-2.334-8.07-3.99-12.458-4.978
						c-2.175-0.427-4.417-0.466-6.616-0.041c-2.185,0.467-4.294,1.271-6.299,2.293C221.865,356.417,218.281,359.284,215.149,362.558
						z"/>
					<path style="fill:#EFC8BB;" d="M213.313,357.771c1.639-1.517,3.414-2.883,5.25-4.159c1.834-1.28,3.751-2.447,5.749-3.467
						c3.977-2.056,8.346-3.488,12.882-3.774c4.556-0.181,9.077,1.092,13.063,3.185c4.036,2.041,7.652,4.74,11.208,7.438
						c3.534,2.735,7.005,5.525,10.704,7.975c3.659,2.52,7.708,4.337,11.907,5.763c4.201,1.423,8.581,2.303,12.99,2.84
						c2.208,0.242,4.429,0.421,6.655,0.407c2.219-0.036,4.462-0.152,6.614-0.76c-2.122,0.713-4.379,0.923-6.608,1.025
						c-2.238,0.089-4.477-0.015-6.71-0.185c-4.454-0.441-8.89-1.243-13.176-2.595c-4.284-1.321-8.444-3.223-12.17-5.734
						c-3.762-2.456-7.276-5.239-10.813-7.944c-3.525-2.713-7.086-5.403-11.014-7.422c-3.885-2.086-8.231-3.281-12.62-3.228
						c-4.391,0.185-8.716,1.499-12.695,3.446C220.508,352.472,216.764,354.95,213.313,357.771z"/>
					<path style="fill:#EFC8BB;" d="M131.866,318.324c2.923,2.337,6.34,3.965,9.849,5.164c3.514,1.214,7.168,2.003,10.863,2.372
						c7.404,0.64,14.933,0.534,22.386,1.783c3.72,0.638,7.366,1.832,10.744,3.541c3.385,1.706,6.446,3.978,9.251,6.472
						c5.606,5.003,10.442,10.909,13.885,17.562c-1.876-3.236-4.096-6.253-6.51-9.09c-2.409-2.841-5.042-5.49-7.879-7.89
						c-2.853-2.376-5.834-4.619-9.159-6.241c-3.308-1.639-6.854-2.768-10.509-3.37c-7.311-1.313-14.823-1.196-22.297-2.005
						c-3.736-0.467-7.422-1.351-10.942-2.674c-1.754-0.676-3.47-1.455-5.1-2.385C134.816,320.64,133.24,319.597,131.866,318.324z"/>
					<path style="fill:#EFC8BB;" d="M126.887,319.984c3.13,2.512,6.602,4.579,10.262,6.178c3.648,1.621,7.485,2.827,11.418,3.449
						c3.921,0.655,7.937,0.536,11.964,0.755c4.018,0.183,8.039,0.453,12.043,0.976c3.997,0.543,7.985,1.37,11.8,2.787
						c1.89,0.739,3.765,1.561,5.486,2.665c1.731,1.088,3.326,2.359,4.803,3.741c2.966,2.757,5.596,5.835,7.989,9.072
						c1.181,1.632,2.307,3.301,3.361,5.015c1.051,1.713,2.045,3.47,2.832,5.32c-1.815-3.583-4.132-6.879-6.584-10.039
						c-2.457-3.157-5.133-6.153-8.114-8.797c-1.489-1.324-3.072-2.532-4.741-3.576c-1.672-1.055-3.501-1.841-5.349-2.548
						c-3.731-1.355-7.66-2.139-11.617-2.65c-3.956-0.547-7.952-0.846-11.953-1.058c-2.001-0.102-4.005-0.186-6.009-0.257
						l-3.032-0.213c-1.005-0.125-2.006-0.293-3.008-0.438C140.482,328.873,132.924,325.29,126.887,319.984z"/>
					<path style="fill:#EFC8BB;" d="M122.802,324.324c3.324,2.238,6.898,4.073,10.591,5.58c3.7,1.484,7.533,2.656,11.46,3.277
						c7.882,1.154,15.917,1.015,23.935,1.521c4.007,0.283,8.039,0.767,11.945,1.895c3.916,1.123,7.531,3.188,10.651,5.732
						c3.167,2.511,5.989,5.41,8.553,8.507c1.253,1.573,2.459,3.184,3.538,4.88c1.067,1.697,2.07,3.462,2.687,5.373
						c-1.521-3.716-4.024-6.911-6.601-9.938c-2.618-3.008-5.477-5.818-8.65-8.215c-3.154-2.413-6.618-4.418-10.434-5.466
						c-3.809-1.07-7.783-1.518-11.761-1.773c-7.956-0.589-16.021-0.429-23.996-1.763
						C136.786,332.432,129.25,329.082,122.802,324.324z"/>
					<path style="fill:#EFC8BB;" d="M116.93,327.005c3.611,1.79,7.343,3.315,11.134,4.657c3.784,1.361,7.637,2.525,11.536,3.485
						c1.945,0.502,3.916,0.885,5.876,1.318c1.977,0.344,3.946,0.739,5.938,0.979c3.967,0.585,7.979,0.807,12.005,1.099
						c4.017,0.317,8.049,0.62,12.058,1.26c3.99,0.648,8.023,1.629,11.624,3.599c3.608,1.943,6.696,4.696,9.343,7.752
						c2.602,3.109,4.831,6.485,6.91,9.937c-2.269-3.33-4.574-6.641-7.277-9.612c-2.696-2.961-5.783-5.589-9.332-7.395
						c-3.549-1.806-7.457-2.787-11.408-3.382c-3.958-0.602-7.976-0.871-11.993-1.163c-8.022-0.523-16.151-1.453-23.936-3.65
						C131.612,333.769,123.989,330.914,116.93,327.005z"/>
				</g>
				<polygon style="fill:#F9E6E1;" points="132.568,313.754 179.1,226.537 167.507,231.999 111.887,328.09 				"/>
				<polygon style="fill:#F9E6E1;" points="311.802,367.537 334.206,273.611 341.866,281.113 319.079,389.558 				"/>
			</g>
			<path style="fill:#FFC81A;" d="M248.928,261.376c0,0-30.764,82.893-33.445,90.889c-2.681,7.995-3.255,27.91-5.17,33.464
				s-6.511,12.012-6.511,12.012l-1.149-6.076l-5.745,3.447c0,0,4.213-7.277,7.276-16.851c3.064-9.574,2.787-19.797,4.936-28.856
				c2.149-9.059,35.074-87.933,36.548-89.57C247.142,258.197,248.928,261.376,248.928,261.376z"/>
		</g>
	</g>
</g>
<g id="TEXT">
	<g>
		<g>
			
				<text transform="matrix(1 0 0 1 143.3445 138.6284)" style="fill:#414A6D; font-family:'Boogaloo-Regular'; font-size:47.1203px;">BOOK DAY</text>
		</g>
		<text transform="matrix(1 0 0 1 197.2894 91.9365)" style="fill:#414A6D; font-size:28.3092px;">WORLD</text>
	</g>
</g>
</svg>
