<svg xmlns="http://www.w3.org/2000/svg" viewBox="0 0 1920 993" preserveAspectRatio="xMidYMid" width="1920" height="993" xmlns:xlink="http://www.w3.org/1999/xlink" style="shape-rendering:auto;display:block;background-position-x:0%;background-position-y:0%;background-size:auto;background-origin:padding-box;background-clip:border-box;background:scroll rgb(255, 255, 255) none  repeat;width:1920px;height:993px;;animation:none"><g><linearGradient y2="0" y1="0" x2="1" x1="0" id="lg-0.2545556709434116"><stop offset="0" stop-color="#ff00ff"></stop>

  
<stop offset="1" stop-color="#00ffff"></stop></linearGradient>
<path opacity="0.4" fill="url(#lg-0.2545556709434116)" d="M 0 0 M 0 925.027 Q 192 874.459 384 865.035 T 768 825.623 T 1152 837.02 T 1536 717.319 T 1920 728.522 L 1920 247.333 Q 1728 272.293 1536 267.199 T 1152 240.008 T 768 174.917 T 384 158.648 T 0 147.271 Z" style="fill:url('#lg-0.2545556709434116');opacity:0.4;;animation:none"></path>
<path opacity="0.4" fill="url(#lg-0.2545556709434116)" d="M 0 0 M 0 939.485 Q 192 878.267 384 870.928 T 768 854.576 T 1152 787.003 T 1536 801.268 T 1920 703.711 L 1920 274.164 Q 1728 299.419 1536 289.876 T 1152 168.622 T 768 138.078 T 384 176.349 T 0 112.894 Z" style="fill:url('#lg-0.2545556709434116');opacity:0.4;;animation:none"></path>
<path opacity="0.4" fill="url(#lg-0.2545556709434116)" d="M 0 0 M 0 888.348 Q 192 894.221 384 889.133 T 768 863.017 T 1152 740.97 T 1536 717.802 T 1920 715.198 L 1920 234.651 Q 1728 253.543 1536 248.6 T 1152 219.359 T 768 183.776 T 384 113.586 T 0 97.1804 Z" style="fill:url('#lg-0.2545556709434116');opacity:0.4;;animation:none"></path>
<path opacity="0.4" fill="url(#lg-0.2545556709434116)" d="M 0 0 M 0 913.88 Q 192 847.369 384 844.04 T 768 826.505 T 1152 809.814 T 1536 717.845 T 1920 705.912 L 1920 294.537 Q 1728 232.949 1536 230.674 T 1152 200.814 T 768 167.164 T 384 155.422 T 0 138.248 Z" style="fill:url('#lg-0.2545556709434116');opacity:0.4;;animation:none"></path>
<g></g></g><!-- [ldio] generated by https://loading.io -->


</svg>