<?xml version="1.0" encoding="utf-8"?>
<!-- Generator: Adobe Illustrator 27.5.0, SVG Export Plug-In . SVG Version: 6.00 Build 0)  -->
<svg version="1.1" xmlns="http://www.w3.org/2000/svg" xmlns:xlink="http://www.w3.org/1999/xlink" x="0px" y="0px"
	 viewBox="0 0 750 500" style="enable-background:new 0 0 750 500;" xml:space="preserve">
<g id="OBJECTS">
	<g>
		<path style="fill:#FFEBEA;" d="M692.14,438.74c2.18,2.85,10.57,11.06,7.77,11.06H93.74c-11.02,0-33.04,1.29-41.74-5.47
			c-12.67-9.83-23.91-24.42-21.5-56.5c3.33-44.33,81.38-72.2,74.17-107.83c-4.3-21.21-13.31-35.18-30.47-50.72
			s-34.78-32.06-42.52-53.51c-7.75-21.45-2.14-49.21,18.58-59.94c16.66-8.63,37.45-4.14,55.42-9.8c0.91-0.29,1.81-0.6,2.69-0.93
			c1.49-0.56,2.95-1.18,4.36-1.86c23.49-11.23,36.61-37.82,56.93-54.94c32.22-27.14,85.58-26.62,117.23,1.14
			c6.94,6.09,12.96,13.3,20.99,17.97c0.84,0.49,1.69,0.94,2.55,1.36c0.56,0.28,1.12,0.53,1.69,0.78
			c12.58,5.46,27.64,4.64,40.95,0.61c14.85-4.49,28.21-12.53,42-19.49c14.28-7.2,29.15-13.29,44.44-18.19
			c16.21-5.19,34.42-8.94,49.98-2.11c14.43,6.33,23.49,20.44,35.74,30.03c0.55,0.43,1.12,0.86,1.69,1.27
			c2.29,1.68,4.7,3.18,7.29,4.44c29.35,14.31,63.52-8.51,96.39-8.06c27.68,0.38,53.67,19.05,63.58,44.02
			c0.15,0.39,0.3,0.78,0.45,1.17c0.23,0.61,0.45,1.23,0.66,1.86c8.32,24.31,2.26,52.52-14.42,72.51
			c-6.06,7.26-3.87,19.51,1.24,33.27c0.22,0.62,0.46,1.24,0.69,1.86c8.5,22.05,23.7,47.47,24.2,62.26
			c0.67,19.48-12.06,24.36-14.68,35.85c-0.14,0.6-0.25,1.22-0.32,1.86c-0.43,3.48,0.06,7.58,2,12.79c3.2,8.6,19.12,19.92,22,43.75
			c1.75,14.5,1.87,31.21-15.75,51.25C695.32,426.11,687.62,432.82,692.14,438.74z"/>
	</g>
	<g>
		<rect x="39.667" y="401.99" style="fill:#FFFFFF;" width="444.832" height="1.86"/>
		<rect x="393.31" y="401.68" style="fill:#FFFFFF;" width="1.69" height="48.12"/>
		
			<rect x="414.411" y="383.165" transform="matrix(-5.245337e-06 1 -1 -5.245337e-06 817.4888 -49.4626)" style="fill:#FFFFFF;" width="38.129" height="1.691"/>
		
			<rect x="501.517" y="330.157" transform="matrix(-5.245351e-06 1 -1 -5.245351e-06 851.5872 -189.5769)" style="fill:#FFFFFF;" width="38.129" height="1.691"/>
		
			<rect x="583.126" y="292.029" transform="matrix(-5.245337e-06 1 -1 -5.245337e-06 895.0681 -309.3146)" style="fill:#FFFFFF;" width="38.129" height="1.691"/>
		<path style="fill:#FFFFFF;" d="M526.92,61.67v41.72h-1.69V60.4C525.78,60.83,526.35,61.26,526.92,61.67z"/>
		<path style="fill:#FFFFFF;" d="M312.12,69.55v33.84h-1.69V68.77C310.99,69.05,311.55,69.3,312.12,69.55z"/>
		
			<rect x="587.354" y="192.057" transform="matrix(-7.868006e-06 1 -1 -7.868006e-06 799.3269 -413.5143)" style="fill:#FFFFFF;" width="38.129" height="1.691"/>
		
			<rect x="489.114" y="229.101" transform="matrix(-7.613594e-06 1 -1 -7.613594e-06 738.1288 -278.2302)" style="fill:#FFFFFF;" width="38.129" height="1.691"/>
		
			<rect x="387.208" y="122.852" transform="matrix(-5.245351e-06 1 -1 -5.245351e-06 529.973 -282.5743)" style="fill:#FFFFFF;" width="38.129" height="1.691"/>
		
			<rect x="626.961" y="122.852" transform="matrix(-5.245351e-06 1 -1 -5.245351e-06 769.7272 -522.3271)" style="fill:#FFFFFF;" width="38.129" height="1.691"/>
		
			<rect x="130.965" y="122.852" transform="matrix(-7.868027e-06 1 -1 -7.868027e-06 273.7282 -26.3301)" style="fill:#FFFFFF;" width="38.129" height="1.691"/>
		
			<rect x="219.902" y="292.029" transform="matrix(-2.622669e-06 1 -1 -2.622669e-06 531.842 53.9081)" style="fill:#FFFFFF;" width="38.129" height="1.691"/>
		<rect x="193.72" y="401.68" style="fill:#FFFFFF;" width="1.69" height="48.12"/>
		<path style="fill:#FFFFFF;" d="M694.63,103.24c0.23,0.61,0.45,1.23,0.66,1.86H108.37c1.49-0.56,2.95-1.18,4.36-1.86H694.63z"/>
		<path style="fill:#FFFFFF;" d="M682.11,210.88c0.22,0.62,0.46,1.24,0.69,1.86H471.39v-1.86H682.11z"/>
		<path style="fill:#FFFFFF;" d="M692.32,310.85c-0.14,0.6-0.25,1.22-0.32,1.86H176.67v-1.86H692.32z"/>
	</g>
	<g>
		<path style="fill:#00CDBE;" d="M657.961,314.26l12.813-8.211c0,0-16.241-11.496,21.715-13.686c0,0-14.415,33.394-20.985,15.146
			l-13.543,9.125"/>
		<path style="fill:#00CDBE;" d="M657.007,320.934l-12.193-12.1c0,0-8.679,20.715-20.409-20.565c0,0,40.329,7.684,21.838,19.402
			l13.377,12.681"/>
		<path style="fill:#00CDBE;" d="M647.768,282.987l-10.088-6.347c0,0-2.739,15.341-16.935-10.834c0,0,28.472-0.906,17.726,9.829
			l10.979,6.561"/>
		<path style="fill:#00CDBE;" d="M645.778,266.518l9.94-6.578c0,0-12.851-8.815,16.847-10.968c0,0-10.903,26.317-16.258,12.103
			l-10.501,7.302"/>
		<path style="fill:#00CDBE;" d="M653.293,213.978l-5.143-8.931c0,0-8.298,10.615-8.558-15.13c0,0,22.124,10.826,9.57,14.682
			l5.736,9.455"/>
		<path style="fill:#00CDBE;" d="M655.737,225.455l-8.529-5.784c0,0-2.823,13.175-14.311-9.866c0,0,24.631,0.064,15.025,9.021
			l9.292,5.996"/>
		<path style="fill:#00CDBE;" d="M657.437,230.073l3.966-9.512c0,0,9.58,9.473,6.565-16.096c0,0-20.569,13.551-7.625,15.78
			l-4.486,10.108"/>
		<path style="fill:#00CDBE;" d="M653.638,247.092l-7.552-7.013c0,0,12.204-5.71-12.829-11.73c0,0,5.594,23.987,12.166,12.616
			l7.93,7.708"/>
		<path style="fill:#00CDBE;" d="M654.392,248.313l8.83-8.462c0,0,5.92,14.853,14.785-14.387c0,0-28.806,4.968-15.787,13.54
			l-9.681,8.862"/>
		<path style="fill:#00CDBE;" d="M657.801,297.007l8.025-12.818c0,0,11.596,16.015,13.369-21.727c0,0-33.032,14.68-14.828,21.014
			l-8.923,13.556"/>
		<path style="fill:#00CDBE;" d="M647.238,263.92l-11.379-9.962c0,0,17.656-8.9-19.322-16.655c0,0,9.238,34.946,18.387,17.982
			l11.964,10.967"/>
		<g>
			<path style="fill:#010060;" d="M658.167,358.167L650.833,361c0.061-0.3,11.202-60.244-0.825-74.886
				c-9.684-11.789-4.623-23.125-0.158-33.127c1.614-3.615,3.139-7.03,3.826-10.186c2.53-11.622,1.554-24.377-2.486-32.493
				l1.356-0.673c4.3,8.641,6.459,21.555,3.805,33.748c-0.747,3.432-2.327,6.972-4.001,10.72c-4.344,9.73-8.817,19.776-0.227,30.273
				C667.5,303.167,658.426,356.889,658.167,358.167z"/>
		</g>
	</g>
	<path style="fill:#FFFFFF;stroke:#010060;stroke-miterlimit:10;" d="M659.562,355.071h-10.401h-32.299
		c5.188,78.923,30.029,94.846,30.029,94.846h2.27h10.401h2.374c0,0,24.841-15.923,30.029-94.846H659.562z"/>
	<g>
		
			<rect x="79.382" y="300.616" transform="matrix(-1 -1.224647e-16 1.224647e-16 -1 241.0108 626.5407)" style="fill:none;stroke:#DDE7E8;stroke-miterlimit:10;" width="82.247" height="25.309"/>
	</g>
	<path style="fill:#010060;" d="M242.908,371.592c5.781-4.483-39.902,0-39.902,0L187.045,449.8h14.365
		C201.41,449.8,216.839,391.809,242.908,371.592z"/>
	<path style="fill:#010060;" d="M554.654,371.592c-5.781-4.483,39.903,0,39.903,0l15.961,78.209h-14.365
		C596.152,449.8,580.723,391.809,554.654,371.592z"/>
	<path style="fill:#FF5778;" d="M558.631,421.071H238.602c-18.778,0-34-15.222-34-34v-11.046h388.029v11.046
		C592.631,405.848,577.409,421.071,558.631,421.071z"/>
	<g>
		<path style="fill:#C63867;" d="M398.79,203.42v149.51H188.64l22.76-122.02c4.69-25.18,26.68-43.45,52.3-43.45h119.13
			C391.65,187.46,398.79,194.61,398.79,203.42z"/>
		<path style="fill:#FF5778;" d="M392.79,203.42v149.51H188.64l22.76-122.02c4.69-25.18,26.68-43.45,52.3-43.45h113.13
			C385.65,187.46,392.79,194.61,392.79,203.42z"/>
	</g>
	<path style="fill:#FF5778;" d="M398.793,352.926h210.153l-22.755-122.013c-4.697-25.187-26.68-43.449-52.302-43.449H414.754
		c-8.815,0-15.961,7.146-15.961,15.961V352.926z"/>
	<g>
		<path style="fill:#00CDBE;" d="M95.146,281.761L95.146,281.761c11.618,0,21.036-9.418,21.036-21.036v-81.818h8.512v81.818
			c0,11.618,9.418,21.036,21.036,21.036l0,0c3.24,0,5.867,2.627,5.867,5.867h-26.903h-8.512H89.279
			C89.279,284.387,91.906,281.761,95.146,281.761z"/>
		<g>
			<polygon style="fill:#FFFFFF;stroke:#010060;stroke-miterlimit:10;" points="81.19,224.516 159.821,224.516 138.542,162.503 
				102.469,162.503 			"/>
			<polygon style="fill:#FFFFFF;stroke:#010060;stroke-miterlimit:10;" points="90.123,224.516 150.887,224.516 134.444,162.503 
				106.567,162.503 			"/>
			<polygon style="fill:#FFFFFF;stroke:#010060;stroke-miterlimit:10;" points="101.523,224.516 139.488,224.516 129.214,162.503 
				111.797,162.503 			"/>
			<polygon style="fill:#FFFFFF;stroke:#010060;stroke-miterlimit:10;" points="112.162,224.516 128.849,224.516 124.333,162.503 
				116.678,162.503 			"/>
		</g>
		<rect x="116" y="224.542" style="fill:#0B0B38;" width="8.833" height="6.958"/>
	</g>
	<g>
		<path style="fill:#C63867;" d="M518.867,237.19c-2.204,0.292-8.531,4.316-8.676,4.082c-0.084-0.133,6.196-4.049,7.512-5.634
			c-0.24-0.542-0.377-1.136-0.377-1.765c0-0.682,0.168-1.318,0.444-1.893c-0.008-0.017-0.032-0.017-0.033-0.042
			c-0.078-0.977-4.734-5.666-4.645-5.756c0.147-0.144,4.03,3.848,5.626,4.5c0.604-0.569,1.364-0.968,2.215-1.124
			c0.618-2.127,0.633-9.224,0.787-9.224c0.265,0,0.198,6.931,1.006,9.271c0.914,0.214,1.708,0.715,2.302,1.403
			c1.768-0.588,5.901-3.819,6.024-3.661c0.074,0.092-4.502,3.612-5.269,4.856c0.211,0.514,0.334,1.077,0.334,1.67
			c0,0.569-0.117,1.108-0.314,1.606c0.878,1.866,5.977,7.226,5.865,7.332c-0.185,0.175-4.528-4.442-6.833-5.838
			c-0.607,0.609-1.392,1.04-2.272,1.209c-0.004,0.014,0.008,0.021,0,0.035c-0.774,1.258-0.696,7.357-0.911,7.357
			c-0.129,0.001-0.131-6.608-0.766-7.354c-0.011-0.014,0.001-0.024-0.001-0.038C520.117,238.033,519.435,237.679,518.867,237.19z"/>
		<path style="fill:#C63867;" d="M273.018,237.19c-2.204,0.292-8.53,4.316-8.676,4.082c-0.083-0.133,6.195-4.05,7.512-5.634
			c-0.239-0.542-0.376-1.136-0.376-1.765c0-0.682,0.167-1.318,0.444-1.893c-0.009-0.017-0.033-0.017-0.035-0.042
			c-0.077-0.977-4.734-5.666-4.643-5.756c0.146-0.144,4.03,3.848,5.625,4.5c0.604-0.569,1.365-0.968,2.215-1.124
			c0.617-2.127,0.634-9.224,0.787-9.224c0.265,0,0.198,6.931,1.005,9.271c0.914,0.214,1.708,0.715,2.302,1.403
			c1.768-0.588,5.902-3.819,6.025-3.661c0.073,0.092-4.503,3.612-5.27,4.856c0.212,0.514,0.333,1.077,0.333,1.67
			c0,0.569-0.117,1.108-0.314,1.606c0.878,1.866,5.977,7.226,5.865,7.332c-0.184,0.175-4.528-4.442-6.832-5.838
			c-0.607,0.609-1.393,1.04-2.273,1.209c-0.004,0.014,0.008,0.021,0,0.035c-0.774,1.258-0.696,7.357-0.912,7.357
			c-0.128,0.001-0.131-6.608-0.765-7.354c-0.01-0.014,0.001-0.024-0.001-0.038C274.268,238.033,273.586,237.679,273.018,237.19z"/>
		<path style="fill:#C63867;" d="M336.668,237.19c-2.204,0.292-8.53,4.316-8.676,4.082c-0.083-0.133,6.195-4.05,7.512-5.634
			c-0.239-0.542-0.376-1.136-0.376-1.765c0-0.682,0.167-1.318,0.444-1.893c-0.009-0.017-0.033-0.017-0.035-0.042
			c-0.077-0.977-4.734-5.666-4.643-5.756c0.146-0.144,4.03,3.848,5.625,4.5c0.604-0.569,1.365-0.968,2.215-1.124
			c0.617-2.127,0.634-9.224,0.787-9.224c0.265,0,0.198,6.931,1.005,9.271c0.914,0.214,1.708,0.715,2.302,1.403
			c1.768-0.588,5.902-3.819,6.025-3.661c0.073,0.092-4.503,3.612-5.27,4.856c0.212,0.514,0.333,1.077,0.333,1.67
			c0,0.569-0.117,1.108-0.314,1.606c0.878,1.866,5.977,7.226,5.865,7.332c-0.184,0.175-4.528-4.442-6.832-5.838
			c-0.607,0.609-1.393,1.04-2.273,1.209c-0.004,0.014,0.008,0.021,0,0.035c-0.773,1.258-0.696,7.357-0.912,7.357
			c-0.128,0.001-0.131-6.608-0.765-7.354c-0.01-0.014,0.001-0.024-0.001-0.038C337.918,238.033,337.236,237.679,336.668,237.19z"/>
		<path style="fill:#C63867;" d="M448.753,237.19c-2.204,0.292-8.531,4.316-8.676,4.082c-0.084-0.133,6.196-4.049,7.512-5.634
			c-0.24-0.542-0.377-1.136-0.377-1.765c0-0.682,0.168-1.318,0.444-1.893c-0.008-0.017-0.032-0.017-0.034-0.042
			c-0.078-0.977-4.734-5.666-4.645-5.756c0.147-0.144,4.03,3.848,5.626,4.5c0.604-0.569,1.364-0.968,2.215-1.124
			c0.618-2.127,0.633-9.224,0.787-9.224c0.266,0,0.198,6.931,1.006,9.271c0.914,0.214,1.708,0.715,2.301,1.403
			c1.768-0.588,5.901-3.819,6.024-3.661c0.074,0.092-4.502,3.612-5.269,4.856c0.211,0.514,0.334,1.077,0.334,1.67
			c0,0.569-0.117,1.108-0.315,1.606c0.878,1.866,5.977,7.226,5.865,7.332c-0.184,0.175-4.527-4.442-6.833-5.838
			c-0.607,0.609-1.392,1.04-2.272,1.209c-0.004,0.014,0.008,0.021,0,0.035c-0.774,1.258-0.696,7.357-0.911,7.357
			c-0.129,0.001-0.131-6.608-0.766-7.354c-0.011-0.014,0.001-0.024-0.001-0.038C450.004,238.033,449.322,237.679,448.753,237.19z"/>
	</g>
	<g>
		<path style="fill:#C63867;" d="M518.867,287.721c-2.204,0.292-8.531,4.316-8.676,4.082c-0.084-0.133,6.196-4.049,7.512-5.634
			c-0.24-0.542-0.377-1.136-0.377-1.765c0-0.682,0.168-1.318,0.444-1.893c-0.008-0.017-0.032-0.017-0.033-0.042
			c-0.078-0.977-4.734-5.666-4.645-5.756c0.147-0.144,4.03,3.848,5.626,4.5c0.604-0.569,1.364-0.968,2.215-1.124
			c0.618-2.127,0.633-9.224,0.787-9.224c0.265,0,0.198,6.931,1.006,9.271c0.914,0.214,1.708,0.715,2.302,1.403
			c1.768-0.588,5.901-3.819,6.024-3.661c0.074,0.092-4.502,3.612-5.269,4.856c0.211,0.514,0.334,1.077,0.334,1.67
			c0,0.569-0.117,1.108-0.314,1.606c0.878,1.865,5.977,7.226,5.865,7.332c-0.185,0.175-4.528-4.442-6.833-5.838
			c-0.607,0.609-1.392,1.04-2.272,1.209c-0.004,0.014,0.008,0.021,0,0.035c-0.774,1.258-0.696,7.357-0.911,7.357
			c-0.129,0.001-0.131-6.608-0.766-7.354c-0.011-0.014,0.001-0.024-0.001-0.038C520.117,288.565,519.435,288.21,518.867,287.721z"/>
		<path style="fill:#C63867;" d="M273.018,287.721c-2.204,0.292-8.53,4.316-8.676,4.082c-0.083-0.133,6.195-4.05,7.512-5.634
			c-0.239-0.542-0.376-1.136-0.376-1.765c0-0.682,0.167-1.318,0.444-1.893c-0.009-0.017-0.033-0.017-0.035-0.042
			c-0.077-0.977-4.734-5.666-4.643-5.756c0.146-0.144,4.03,3.848,5.625,4.5c0.604-0.569,1.365-0.968,2.215-1.124
			c0.617-2.127,0.634-9.224,0.787-9.224c0.265,0,0.198,6.931,1.005,9.271c0.914,0.214,1.708,0.715,2.302,1.403
			c1.768-0.588,5.902-3.819,6.025-3.661c0.073,0.092-4.503,3.612-5.27,4.856c0.212,0.514,0.333,1.077,0.333,1.67
			c0,0.569-0.117,1.108-0.314,1.606c0.878,1.865,5.977,7.226,5.865,7.332c-0.184,0.175-4.528-4.442-6.832-5.838
			c-0.607,0.609-1.393,1.04-2.273,1.209c-0.004,0.014,0.008,0.021,0,0.035c-0.774,1.258-0.696,7.357-0.912,7.357
			c-0.128,0.001-0.131-6.608-0.765-7.354c-0.01-0.014,0.001-0.024-0.001-0.038C274.268,288.565,273.586,288.21,273.018,287.721z"/>
		<path style="fill:#C63867;" d="M336.668,287.721c-2.204,0.292-8.53,4.316-8.676,4.082c-0.083-0.133,6.195-4.05,7.512-5.634
			c-0.239-0.542-0.376-1.136-0.376-1.765c0-0.682,0.167-1.318,0.444-1.893c-0.009-0.017-0.033-0.017-0.035-0.042
			c-0.077-0.977-4.734-5.666-4.643-5.756c0.146-0.144,4.03,3.848,5.625,4.5c0.604-0.569,1.365-0.968,2.215-1.124
			c0.617-2.127,0.634-9.224,0.787-9.224c0.265,0,0.198,6.931,1.005,9.271c0.914,0.214,1.708,0.715,2.302,1.403
			c1.768-0.588,5.902-3.819,6.025-3.661c0.073,0.092-4.503,3.612-5.27,4.856c0.212,0.514,0.333,1.077,0.333,1.67
			c0,0.569-0.117,1.108-0.314,1.606c0.878,1.865,5.977,7.226,5.865,7.332c-0.184,0.175-4.528-4.442-6.832-5.838
			c-0.607,0.609-1.393,1.04-2.273,1.209c-0.004,0.014,0.008,0.021,0,0.035c-0.773,1.258-0.696,7.357-0.912,7.357
			c-0.128,0.001-0.131-6.608-0.765-7.354c-0.01-0.014,0.001-0.024-0.001-0.038C337.918,288.565,337.236,288.21,336.668,287.721z"/>
		<path style="fill:#C63867;" d="M448.753,287.721c-2.204,0.292-8.531,4.316-8.676,4.082c-0.084-0.133,6.196-4.049,7.512-5.634
			c-0.24-0.542-0.377-1.136-0.377-1.765c0-0.682,0.168-1.318,0.444-1.893c-0.008-0.017-0.032-0.017-0.034-0.042
			c-0.078-0.977-4.734-5.666-4.645-5.756c0.147-0.144,4.03,3.848,5.626,4.5c0.604-0.569,1.364-0.968,2.215-1.124
			c0.618-2.127,0.633-9.224,0.787-9.224c0.266,0,0.198,6.931,1.006,9.271c0.914,0.214,1.708,0.715,2.301,1.403
			c1.768-0.588,5.901-3.819,6.024-3.661c0.074,0.092-4.502,3.612-5.269,4.856c0.211,0.514,0.334,1.077,0.334,1.67
			c0,0.569-0.117,1.108-0.315,1.606c0.878,1.865,5.977,7.226,5.865,7.332c-0.184,0.175-4.527-4.442-6.833-5.838
			c-0.607,0.609-1.392,1.04-2.272,1.209c-0.004,0.014,0.008,0.021,0,0.035c-0.774,1.258-0.696,7.357-0.911,7.357
			c-0.129,0.001-0.131-6.608-0.766-7.354c-0.011-0.014,0.001-0.024-0.001-0.038C450.004,288.565,449.322,288.21,448.753,287.721z"/>
	</g>
	<path style="fill:#0064A1;" d="M248.379,293.449c0,0,69.634-37.168,103.733-50.679c3.502-1.387,12.519-2.001,15.045,0.792
		c14.996,16.579,57.805,94.231,57.805,94.231l-36.722,1.485l-32.806-53.344l-69.43,54.533L248.379,293.449z"/>
	<path style="fill:#0064A1;" d="M302.454,282.263c6.108,0.596,24.527,3.82,47.404,8.044l-63.355,49.766l-0.5,0.394l-0.33-0.415
		l-37.296-46.606c0,0,10.492-5.597,25.335-13.248C281.385,280.093,290.6,281.103,302.454,282.263z"/>
	<path style="fill:#0064A1;" d="M424.96,337.797l-36.721,1.479l-29.049-47.234c14.205,2.65,29.624,5.576,44.584,8.449
		C415.426,320.506,424.96,337.797,424.96,337.797z"/>
	<path style="fill:#0064A1;" d="M476.577,341.138c-2.043,3.501-5.831,5.799-10.098,5.799H276.778
		c-6.576,0.192-20.09-0.83-19.377-0.83c-4.363-0.734-8.449-2.394-11.864-5.31c-7.949-6.757-10.066-18.642-7.98-28.74
		c0.309-1.5,0.734-2.958,1.288-4.363c-1.149,9.098,1.053,18.994,7.831,25.101c3.341,3.011,7.385,4.788,11.726,5.65
		c0.819,0.128,13.141,1.383,19.334,1.383l7.938,0.224l0.83,0.021l180.859,5.15C470.991,345.32,474.343,343.745,476.577,341.138z"/>
	<g>
		<rect x="185.01" y="346.94" style="fill:#E83F67;" width="427.66" height="38.66"/>
		<g>
			<path style="fill:#C63867;" d="M463.861,346.328c0.25,1.518-1.33,2.974-3.382,3.799c-2.051,0.826-4.508,1.139-6.91,1.405
				c-16.192,1.786-32.81,2.05-49.126,0.781c-4.027-0.313-8.082-0.72-12.123-0.489c-6.033,0.346-11.607,2.084-17.005,3.806
				c-4.808,1.534-10.332,3.116-15.395,1.947c-1.923-0.444-3.567-1.251-5.359-1.874c-9.536-3.313-21.303-1.016-31.745,0.955
				c-6.492,1.226-13.129,2.308-19.907,2.426c-6.778,0.118-13.775-0.796-19.299-3.258c-4.884-2.177-9.748-8.158-14.455-10.482
				c10.452-5,26.104-2.41,39.259-2.355c34.388,0.144,68.776,0.287,103.165,0.431c17.278,0.072,34.624,0.148,51.716,1.735"/>
		</g>
		<path style="fill:#C63867;" d="M601.98,385.6H198.32c-8.38-5.79-9.78-20.46-10.02-38.66c-0.05-3.68-0.05-7.51-0.05-11.43v-2.76
			c3.71,5.29,7.42,10,11.12,14.19c45.13,51.17,88.89,24.21,131.43,29.36c13.65,0,164.24-0.33,210.26,5.23
			c13.65,0,27.3-5.7,40.95-8.55c10.61-2.71,18.98-10.59,25.11-26.04c0.18-0.45,0.36-0.9,0.53-1.36v1.36
			C607.74,365.63,607.68,378.61,601.98,385.6z"/>
	</g>
	<g>
		<path style="fill:#F7920D;" d="M275.763,259.262c0,0-10.52,2.977-19.371,5.115c-8.851,2.138-34.999,2.729-42.98,2.845
			c-7.981,0.116-25.765-4.358-30.741-3.302c-4.975,1.057-4.624,10.106,2.167,14.048c6.791,3.941,9.608,13.47,10.939,15.474
			c1.332,2.003,0.242,26.478-0.437,32.296c-0.678,5.819-2.29,16.574-2.29,16.574s-2.591,5.193,5.103,5.654
			c7.693,0.461,52.298-1.182,52.298-1.182s46.203,0.725,47.655-2.743c1.451-3.467,0.173-7.871-7.43-12.413
			c0,0-6.642-23.186-6.968-33.401c-0.325-10.215-0.963-31.228,1.039-34.684C286.75,260.088,283.833,255.065,275.763,259.262z"/>
		<path style="fill:#FFB33F;" d="M191.92,279.15c0,0,4.304,1.249,6.892,7.159c2.588,5.913,2.17,13.082,2.17,13.082
			s3.53-10.413-1.754-17.309C196.499,278.519,193.704,279.026,191.92,279.15z"/>
		<path style="fill:#FFB33F;" d="M283.548,341.51c0,0-0.625-2.508,1.822-5.085c2.447-2.577,6.496-3.847,6.496-3.847
			s-6.769,0.316-8.934,4.505C281.813,339.249,282.938,340.603,283.548,341.51z"/>
		<path style="fill:#FFB33F;" d="M278.474,287.387c0,0-0.955,6.933,0.127,13.086c1.24,7.05,3.722,14.604,3.46,14.41
			c-0.862-0.634-4.011-9.539-4.66-14.104C276.752,296.216,276.772,291.878,278.474,287.387z"/>
		<path style="fill:#FFB33F;" d="M201.769,312.21c0,0,1.178,6.899,0.295,13.082c-1.011,7.086-3.249,14.717-2.993,14.517
			c0.841-0.662,3.701-9.664,4.202-14.246C203.775,320.98,203.615,316.643,201.769,312.21z"/>
	</g>
	<g>
		<path style="fill:#FF5778;stroke:#FFFFFF;stroke-miterlimit:10;" d="M610.609,385.602h4.036c17.397,0,31.5-14.103,31.5-31.5
			v-18.933c0-17.397-14.103-31.5-31.5-31.5h-4.036c-17.397,0-31.5,14.103-31.5,31.5v18.933
			C579.109,371.499,593.212,385.602,610.609,385.602z"/>
		<path style="fill:#E83F67;" d="M611.623,364.941h2.008c8.621,0,15.61-6.989,15.61-15.61v-9.392c0-8.621-6.989-15.61-15.61-15.61
			h-2.008c-8.621,0-15.61,6.989-15.61,15.61v9.392C596.013,357.952,603.002,364.941,611.623,364.941z"/>
		<path style="fill:none;stroke:#FFFFFF;stroke-miterlimit:10;" d="M611.957,358.202h1.34c5.76,0,10.43-4.67,10.43-10.43v-6.274
			c0-5.76-4.67-10.43-10.43-10.43h-1.34c-5.76,0-10.43,4.67-10.43,10.43v6.274C601.527,353.532,606.197,358.202,611.957,358.202z"/>
	</g>
	<g>
		<polygon style="fill:#010060;" points="155.886,449.928 164.152,449.928 166.783,405.215 153.256,405.215 		"/>
		<polygon style="fill:#010060;" points="76.886,449.928 85.152,449.928 87.783,405.215 74.256,405.215 		"/>
		<polygon style="fill:#010060;" points="131.261,436.553 139.527,436.553 142.158,391.84 128.631,391.84 		"/>
		<polygon style="fill:#010060;" points="99.261,436.553 107.527,436.553 110.158,391.84 96.631,391.84 		"/>
		
			<rect x="67.657" y="287.628" transform="matrix(-1 -1.224647e-16 1.224647e-16 -1 239.7951 697.6154)" style="fill:#FFFFFF;stroke:#010060;stroke-miterlimit:10;" width="104.482" height="122.36"/>
		
			<rect x="74.225" y="295.319" transform="matrix(-1 -1.224647e-16 1.224647e-16 -1 239.7951 697.6154)" style="fill:#FFFFFF;stroke:#010060;stroke-miterlimit:10;" width="91.346" height="106.976"/>
		
			<rect x="74.225" y="330.401" transform="matrix(-1 -1.224647e-16 1.224647e-16 -1 239.7951 732.6967)" style="fill:#FFFFFF;stroke:#010060;stroke-miterlimit:10;" width="91.346" height="71.895"/>
		<g>
			
				<rect x="85.473" y="338.484" transform="matrix(0.9348 0.3552 -0.3552 0.9348 137.5363 -9.188)" style="fill:#010060;" width="16.636" height="62.979"/>
			
				<rect x="89.181" y="340.867" transform="matrix(0.9347 0.3555 -0.3555 0.9347 136.703 -8.8545)" style="fill:#FFFFFF;" width="6.536" height="53.473"/>
		</g>
		<g>
			
				<rect x="122.063" y="345.166" transform="matrix(-1.836970e-16 1 -1 -1.836970e-16 507.0357 246.2744)" style="fill:#00CDBE;" width="16.636" height="62.979"/>
			
				<rect x="128.895" y="347.839" transform="matrix(-1.836970e-16 1 -1 -1.836970e-16 506.7387 242.4125)" style="fill:#FFFFFF;" width="6.536" height="53.473"/>
		</g>
		<g>
			
				<rect x="118.498" y="361.802" transform="matrix(-1.836970e-16 1 -1 -1.836970e-16 520.1067 266.4753)" style="fill:#FFB33F;" width="16.636" height="62.979"/>
			
				<rect x="125.33" y="364.475" transform="matrix(-1.836970e-16 1 -1 -1.836970e-16 519.8097 262.6135)" style="fill:#FFFFFF;" width="6.536" height="53.473"/>
		</g>
		<path style="fill:#010060;" d="M115.966,313.27c0,2.507,2.032,4.539,4.539,4.539c2.507,0,4.54-2.032,4.54-4.539
			c0-2.507-2.032-4.539-4.54-4.539C117.998,308.731,115.966,310.763,115.966,313.27z"/>
	</g>
	<g>
		<g>
			<g id="XMLID_143_">
				<g>
					<path style="fill:#010060;" d="M451.938,135.853c1.049-0.946,2.163-1.786,3.397-2.477c1.295-0.725,2.617-2.075,2.263,0.186
						c-0.37,2.362-1.517,4.741-0.985,7.129c0.185,0.83,1.154,1.093,1.836,0.747c2.221-1.127,4.41-2.306,6.573-3.54
						c1.397-0.797,0.139-2.958-1.262-2.159c-2.163,1.234-4.352,2.413-6.573,3.54c0.612,0.249,1.224,0.498,1.836,0.747
						c-0.529-2.378,3.394-8.792-0.219-10.207c-2.657-1.041-6.859,2.664-8.634,4.265
						C448.973,135.165,450.746,136.929,451.938,135.853L451.938,135.853z"/>
				</g>
			</g>
			<g id="XMLID_144_">
				<g>
					<path style="fill:#010060;" d="M471.678,133.376c1.609,0,1.611-2.5,0-2.5C470.069,130.876,470.067,133.376,471.678,133.376
						L471.678,133.376z"/>
				</g>
			</g>
			<g id="XMLID_145_">
				<g>
					<path style="fill:#010060;" d="M478.672,130.373c1.609,0,1.611-2.5,0-2.5C477.064,127.873,477.061,130.373,478.672,130.373
						L478.672,130.373z"/>
				</g>
			</g>
			<g id="XMLID_146_">
				<g>
					<path style="fill:#010060;" d="M484.958,125.849c1.609,0,1.611-2.5,0-2.5C483.349,123.349,483.347,125.849,484.958,125.849
						L484.958,125.849z"/>
				</g>
			</g>
			<g id="XMLID_101_">
				<g>
					<path style="fill:#010060;" d="M489.626,113.671c1.866-1.47,3.809-2.791,5.842-4.016c-0.627-0.36-1.254-0.719-1.881-1.079
						c0.073,2.685-1.438,4.847-2.246,7.314c-0.761,2.325-0.892,4.694-0.592,7.111c0.103,0.832,1.02,1.699,1.881,1.079
						c2.284-1.644,4.629-3.179,7.049-4.615c1.382-0.82,0.126-2.982-1.262-2.159c-2.42,1.436-4.765,2.972-7.049,4.615
						c0.627,0.36,1.254,0.719,1.881,1.079c-0.401-3.226,0.222-5.89,1.479-8.847c0.788-1.856,1.414-3.537,1.359-5.577
						c-0.025-0.93-1.048-1.581-1.881-1.079c-2.217,1.335-4.316,2.806-6.348,4.407C486.595,112.898,488.375,114.656,489.626,113.671
						L489.626,113.671z"/>
				</g>
			</g>
			<g id="XMLID_141_">
				<g>
					<path style="fill:#010060;" d="M501.296,108.855c1.778-0.873,3.555-1.745,5.333-2.618c-0.612-0.249-1.224-0.498-1.836-0.747
						c0.522,1.767-0.383,3.916-0.942,5.601c-0.359,1.079-1.395,2.62-0.944,3.793c1.055,2.745,5.365-0.676,6.592-1.557
						c1.296-0.929,0.049-3.099-1.262-2.159c-0.532,0.382-3.08,2.449-3.793,2.178c0.291,0.291,0.582,0.582,0.873,0.873
						c-0.065-0.3,0.603-1.476,0.732-1.842c0.327-0.931,0.617-1.874,0.872-2.826c0.427-1.592,0.76-3.112,0.283-4.726
						c-0.241-0.816-1.109-1.104-1.836-0.747c-1.778,0.873-3.555,1.745-5.333,2.618C498.59,107.406,499.856,109.562,501.296,108.855
						L501.296,108.855z"/>
				</g>
			</g>
		</g>
		<g>
			<path style="fill:#010060;" d="M439.846,159.427c28.267-6.64,52.438-24.784,73.268-20.192
				c11.586,2.554,18.622,9.016,22.715,17.951c3.816,8.331,5.072,18.811,5.072,30.278H432.55L439.846,159.427z"/>
			<path style="fill:#0B0B38;" d="M439.846,163.104c28.267-5.769,52.438-21.533,73.268-17.543
				c11.586,2.219,18.622,7.834,22.715,15.597c3.816,7.238,5.072,16.344,5.072,26.307H432.55L439.846,163.104z"/>
			<path style="fill:#010060;" d="M477.143,187.465c0-4.546,4.946-7.843,10.253-7.279l6.436,0.684
				c1.774-15.327,12.476-31.589,24.038-31.589c12.659,0,22.922,13.31,22.922,29.728c0,2.961-0.344,5.815-0.966,8.514H493.65
				c-0.001-0.019-0.001-0.039-0.003-0.058H477.143z"/>
			<path style="fill:#010060;" d="M505.338,222.336c32.609,2.544,40.976-33.402,32.79-55.095l-2.545,0.696
				c2.253,5.314,5.548,32.418-9.316,39.307c-14.872,6.894-26.174,0.031-29.48,6.433
				C493.721,219.616,500.542,221.962,505.338,222.336z"/>
			<path style="fill:#010060;" d="M441.653,185.783c12.89-8.072,9.51-30.923,9.51-30.923s-16.286-0.988-25.044,4.913
				c-8.758,5.902-9.931,24.747-9.931,24.747S432.857,191.29,441.653,185.783z"/>
			<path style="fill:#010060;" d="M434.002,141.802c0,0,7.36,5.178,9.297,15.525l-12.59,0.822
				C429.934,152.588,434.002,141.802,434.002,141.802z"/>
			<path style="fill:#373766;" d="M434.779,145.03c0,0,4.872,3.427,6.154,10.276l-8.334,0.544
				C432.086,152.17,434.779,145.03,434.779,145.03z"/>
			<path style="fill:#010060;" d="M408.281,162.245c0,0,2.11,9.03,10.709,14.489l5.056-12.125
				C419.333,161.936,408.281,162.245,408.281,162.245z"/>
			<path style="fill:#373766;" d="M410.842,164.265c0,0,1.364,5.838,6.923,9.368l3.27-7.84
				C417.988,164.065,410.842,164.265,410.842,164.265z"/>
			<path style="fill:#FFEBEA;" d="M438.729,176.833c-2.015,2.229-5.043-1.678-5.043-1.678s2.274,3.73-0.349,5.906
				c-2.623,2.176-7.396-1.564-0.811-6.977C438.322,169.321,443.797,171.229,438.729,176.833z"/>
			<path style="fill:#0B0B38;" d="M434.479,176.799c1.887-1.241,1.253-3.908,0.169-4.337c-1.084-0.429-4.063,2.118-3.818,2.966
				C431.076,176.274,433.257,177.603,434.479,176.799z"/>
			<path style="fill:#FFEBEA;" d="M437.201,165.755c-0.852,0.702-1.134,1.796-0.747,2.579c-0.058-0.056-0.135-0.085-0.184-0.152
				c-0.57-0.782-0.277-2.038,0.654-2.806c0.932-0.768,2.15-0.758,2.72,0.024c0.049,0.067,0.056,0.154,0.093,0.227
				C439.119,165.034,438.052,165.053,437.201,165.755z"/>
			<path style="fill:#FFEBEA;" d="M425.017,176.861c-0.851,0.702-1.134,1.796-0.747,2.579c-0.058-0.056-0.135-0.085-0.184-0.152
				c-0.57-0.782-0.277-2.038,0.654-2.806c0.932-0.768,2.15-0.758,2.72,0.024c0.049,0.067,0.056,0.154,0.093,0.227
				C426.936,176.139,425.869,176.158,425.017,176.861z"/>
			<g>
				<path style="fill:#010060;" d="M433.535,178.321c0,0.132-0.107,0.239-0.239,0.239c-0.132,0-0.239-0.107-0.239-0.239
					c0-0.132,0.107-0.239,0.239-0.239C433.428,178.082,433.535,178.189,433.535,178.321z"/>
				<circle style="fill:#010060;" cx="431.64" cy="179.137" r="0.239"/>
				<path style="fill:#010060;" d="M431.281,178.019c0,0.132-0.107,0.239-0.239,0.239c-0.132,0-0.239-0.107-0.239-0.239
					s0.107-0.239,0.239-0.239C431.174,177.781,431.281,177.887,431.281,178.019z"/>
				<path style="fill:#010060;" d="M430.082,179.147c0.129,0.026,0.213,0.152,0.186,0.282c-0.026,0.129-0.152,0.213-0.282,0.186
					c-0.129-0.026-0.213-0.152-0.186-0.282C429.827,179.204,429.953,179.12,430.082,179.147z"/>
				<path style="fill:#010060;" d="M433.453,179.693c0.129,0.026,0.213,0.152,0.186,0.282c-0.026,0.129-0.152,0.213-0.282,0.186
					c-0.129-0.026-0.213-0.152-0.186-0.282C433.198,179.75,433.324,179.666,433.453,179.693z"/>
				<path style="fill:#010060;" d="M431.707,180.527c0.129,0.026,0.213,0.152,0.186,0.282c-0.026,0.129-0.152,0.213-0.282,0.186
					c-0.129-0.026-0.213-0.153-0.186-0.282C431.451,180.585,431.577,180.501,431.707,180.527z"/>
			</g>
			<g>
				<path style="fill:#010060;" d="M439.881,172.613c0,0.132-0.107,0.239-0.239,0.239c-0.132,0-0.239-0.107-0.239-0.239
					c0-0.132,0.107-0.239,0.239-0.239C439.774,172.374,439.881,172.481,439.881,172.613z"/>
				<path style="fill:#010060;" d="M438.224,173.428c0,0.132-0.107,0.239-0.239,0.239c-0.132,0-0.239-0.107-0.239-0.239
					s0.107-0.239,0.239-0.239C438.117,173.189,438.224,173.296,438.224,173.428z"/>
				<path style="fill:#010060;" d="M437.627,172.311c0,0.132-0.107,0.239-0.239,0.239c-0.132,0-0.239-0.107-0.239-0.239
					c0-0.132,0.107-0.239,0.239-0.239C437.52,172.072,437.627,172.179,437.627,172.311z"/>
				<path style="fill:#010060;" d="M436.427,173.438c0.129,0.026,0.213,0.153,0.186,0.282c-0.026,0.129-0.152,0.213-0.282,0.186
					c-0.129-0.026-0.213-0.152-0.186-0.282C436.172,173.495,436.298,173.412,436.427,173.438z"/>
				<path style="fill:#010060;" d="M439.799,173.984c0.129,0.026,0.213,0.152,0.186,0.282c-0.026,0.129-0.152,0.213-0.282,0.186
					c-0.129-0.026-0.213-0.152-0.186-0.282S439.669,173.958,439.799,173.984z"/>
				<path style="fill:#010060;" d="M438.052,174.819c0.129,0.026,0.213,0.152,0.186,0.282c-0.026,0.129-0.152,0.213-0.282,0.186
					c-0.129-0.026-0.213-0.153-0.186-0.282S437.923,174.792,438.052,174.819z"/>
			</g>
		</g>
	</g>
	<g>
		<path style="fill:#010060;" d="M619.684,421.531c0,0,0.045-10.584-5.07-21.632c-8.45-18.253-26.027-25.013-21.633-30.759
			c0,0-23.098-2.366-25.127-0.676c6.198,4.508-0.299,19.045-0.449,28.507c-0.225,14.196,8.614,17.186,3.829,21.97
			c0,0,11.268,22.533,24.788,21.181C609.544,438.77,619.684,421.531,619.684,421.531z"/>
		<path style="fill:#010060;" d="M611.798,450.229c0,0,21.185-22.536,11.719-32.901c-9.465-10.365-28.393,12.62-28.393,12.62
			s-20.281-21.635-28.844-13.972c-8.563,7.662,11.717,34.253,11.717,34.253H611.798z"/>
		<path style="fill:#010060;" d="M608.64,449.939c0,0,23.681,3.351,28.527-13.904c4.847-17.255-9.106-34.462-5.591-38.048
			c2.77-2.826,4.504,3.756,7.858,1.469c3.354-2.287-7.133-12.923-12.387-4.626c-5.253,8.297,9.79,21.577,4.466,40.435
			c0,0-0.346,9.202-19.182,10.092L608.64,449.939z"/>
		<g>
			<path style="fill:#0B0B38;" d="M593.103,450.229h-15.106c0,0-20.28-26.59-11.717-34.252c1.667-1.491,3.779-1.863,6.097-1.511
				c-1.097-3.378-5.125-7.846-4.972-17.496c0.15-9.461,6.647-23.999,0.449-28.507c2.028-1.69,26.634-5.764,25.127,0.676
				c-3.718,15.887-32.28,15.21-22.985,38.871c4.281,7.774,4.448-5.806,10.31-5.746c11.154,0.113,19.603,19.943,38.447,10.816
				l0.254,1.69C619.008,414.771,599.871,420.289,593.103,450.229z"/>
		</g>
		<path style="fill:#010060;" d="M568.193,400.688c0,0,0.113,5.938-4.619,49.541h4.732c0,0,5.972-26.445,8.564-47.74
			L568.193,400.688z"/>
		<path style="fill:#010060;" d="M586.783,400.688c0,0,0.114,5.938-4.618,49.541h4.732c0,0,5.971-26.445,8.564-47.74
			L586.783,400.688z"/>
		<path style="fill:#FFFFFF;" d="M584.417,371.168c0,0,3.034,3.668,2.429,8.746c-0.81,6.803-3.622,16.693-7.351,16.528
			c-3.501-0.155-8.26-9.725-8.26-16.853c0-5.02,2.006-8.422,2.006-8.422H584.417z"/>
		<path style="opacity:0.28;fill:#2C1E3E;" d="M586.909,378.244c-3.962,3.399-9.92,7.002-13.778,10.392
			c-1.486-2.122-1.897-5.853-1.897-9.047c0-5.02,2.006-8.422,2.006-8.422h11.175C584.417,371.168,586.788,374.054,586.909,378.244z"
			/>
		<path style="fill:#010060;" d="M590.614,344.805c0,0,4.872-6.522,13.454-6.383c0,0,0.95,9.849-4.853,18.532L590.614,344.805z"/>
		<path style="fill:#373766;" d="M591.879,346.234c0,0,4.076-5.204,9.989-4.758c0,0-0.416,8.18-5.37,15.134L591.879,346.234z"/>
		<path style="fill:#010060;" d="M580.242,342.605c0,0-1.682-8.288-8.3-12.939c0,0-7.026,5.907-6.567,17.929L580.242,342.605z"/>
		<path style="fill:#373766;" d="M577.851,342.044c0,0-1.349-6.098-6.046-8.99c0,0-4.75,5.114-4.168,14.143L577.851,342.044z"/>
		<path style="fill:#010060;" d="M561.178,352.433c-0.051,1.1,0.489,4.297,1.812,7.86c1.914,5.182,5.508,11.139,11.373,12.503
			c8.431,1.965,15.527-0.662,20.17-3.655c3.36-2.169,5.437-4.521,5.814-5.468c0.876-2.26-2.546-17.961-13.919-22.308
			C575.086,337.048,561.372,347.984,561.178,352.433z"/>
		<path style="fill:#010060;" d="M568.312,450.263c0,0-2.538-3.439-7.217-4.451c-4.679-1.012-5.27,2.628-4.944,4.451H568.312z"/>
		<path style="fill:#010060;" d="M586.958,450.263c0,0-2.538-3.439-7.217-4.451c-4.679-1.012-5.27,2.628-4.944,4.451H586.958z"/>
		<path style="fill:#373766;" d="M610.256,424.106c1.75-3.003,4.627-5.308,8.205-6.311c0.302-0.085,0.477,0.374,0.172,0.46
			c-3.425,0.961-6.189,3.147-7.889,6.001C610.594,424.172,610.426,424.123,610.256,424.106z"/>
		<path style="fill:#373766;" d="M568.52,427.822c-0.127,1.75-0.439,3.458-0.948,5.138c-0.094,0.311-0.583,0.178-0.488-0.135
			c0.495-1.636,0.806-3.298,0.929-5.004C568.037,427.498,568.543,427.496,568.52,427.822L568.52,427.822z"/>
		<path style="fill:#373766;" d="M628.425,442.072c3.086-1.98,4.818-5.325,4.708-8.983c-0.011-0.369,0.562-0.339,0.573,0.029
			c0.116,3.867-1.766,7.378-5.016,9.463C628.378,442.781,628.117,442.27,628.425,442.072L628.425,442.072z"/>
		<path style="fill:#FFEBEA;" d="M581.218,366.269c-3.846-0.561-1.827-6.627-1.827-6.627s-2.371,5.128-6.597,3.876
			c-4.226-1.252-3.643-9.073,6.913-5.893C588.996,360.423,590.888,367.68,581.218,366.269z"/>
		<path style="fill:#0B0B38;" d="M578.468,361.241c2.381,1.003,4.513-1.297,4.23-2.601c-0.283-1.304-4.601-2.513-5.25-1.741
			C576.799,357.672,576.925,360.591,578.468,361.241z"/>
		<path style="fill:#FFEBEA;" d="M590.697,355.867c-1.21-0.362-2.43,0.066-2.927,0.932c0.016-0.091-0.005-0.182,0.027-0.272
			c0.38-1.04,1.76-1.561,3.084-1.165c1.324,0.397,2.089,1.561,1.709,2.6c-0.033,0.09-0.11,0.151-0.157,0.233
			C592.604,357.231,591.907,356.229,590.697,355.867z"/>
		<path style="fill:#FFEBEA;" d="M573.312,350.43c-1.21-0.362-2.43,0.066-2.927,0.932c0.016-0.091-0.005-0.182,0.027-0.272
			c0.38-1.04,1.76-1.561,3.084-1.165c1.324,0.397,2.089,1.561,1.709,2.6c-0.033,0.09-0.11,0.152-0.157,0.233
			C575.219,351.795,574.522,350.793,573.312,350.43z"/>
		<g>
			<path style="fill:#010060;" d="M576.419,361.313c-0.125,0.084-0.295,0.05-0.379-0.075c-0.084-0.125-0.051-0.295,0.075-0.379
				c0.125-0.084,0.295-0.05,0.379,0.075C576.578,361.059,576.545,361.229,576.419,361.313z"/>
			<path style="fill:#010060;" d="M574.589,360.258c-0.125,0.084-0.295,0.05-0.379-0.075c-0.084-0.125-0.051-0.295,0.075-0.379
				c0.125-0.084,0.295-0.05,0.379,0.075C574.748,360.004,574.715,360.174,574.589,360.258z"/>
			<path style="fill:#010060;" d="M575.271,358.978c-0.125,0.084-0.295,0.05-0.379-0.075c-0.084-0.125-0.05-0.295,0.075-0.379
				c0.125-0.084,0.295-0.05,0.379,0.075C575.43,358.725,575.396,358.894,575.271,358.978z"/>
			<path style="fill:#010060;" d="M573.436,358.556c0.057,0.14-0.009,0.299-0.149,0.356c-0.14,0.057-0.299-0.009-0.356-0.149
				c-0.057-0.14,0.009-0.299,0.149-0.357C573.219,358.35,573.378,358.417,573.436,358.556z"/>
			<path style="fill:#010060;" d="M575.064,362.108c0.057,0.14-0.009,0.299-0.149,0.357c-0.14,0.057-0.299-0.009-0.357-0.149
				c-0.057-0.14,0.01-0.299,0.149-0.357C574.847,361.902,575.006,361.969,575.064,362.108z"/>
			<path style="fill:#010060;" d="M573.158,360.98c0.057,0.14-0.01,0.299-0.149,0.357c-0.14,0.057-0.299-0.009-0.357-0.149
				c-0.057-0.14,0.009-0.299,0.149-0.357C572.941,360.773,573.101,360.84,573.158,360.98z"/>
		</g>
		<g>
			<path style="fill:#010060;" d="M585.886,363.709c-0.125,0.084-0.295,0.05-0.379-0.075c-0.084-0.125-0.05-0.295,0.075-0.379
				c0.125-0.084,0.295-0.05,0.379,0.075C586.045,363.455,586.011,363.625,585.886,363.709z"/>
			<path style="fill:#010060;" d="M584.056,362.654c-0.125,0.084-0.295,0.05-0.379-0.075c-0.084-0.125-0.05-0.295,0.075-0.379
				c0.125-0.084,0.295-0.05,0.379,0.075C584.215,362.4,584.181,362.57,584.056,362.654z"/>
			<path style="fill:#010060;" d="M584.738,361.374c-0.125,0.084-0.295,0.05-0.379-0.075c-0.084-0.125-0.05-0.295,0.075-0.379
				c0.125-0.084,0.295-0.05,0.379,0.075C584.896,361.121,584.863,361.29,584.738,361.374z"/>
			<path style="fill:#010060;" d="M582.902,360.952c0.057,0.14-0.01,0.299-0.149,0.356c-0.14,0.057-0.299-0.009-0.356-0.149
				c-0.057-0.14,0.009-0.299,0.149-0.356C582.685,360.746,582.845,360.813,582.902,360.952z"/>
			<path style="fill:#010060;" d="M584.53,364.504c0.057,0.14-0.01,0.299-0.149,0.356c-0.14,0.057-0.299-0.009-0.357-0.149
				c-0.057-0.14,0.01-0.299,0.149-0.357C584.313,364.298,584.473,364.365,584.53,364.504z"/>
			<path style="fill:#010060;" d="M582.625,363.376c0.057,0.14-0.009,0.299-0.149,0.356c-0.14,0.057-0.299-0.009-0.356-0.149
				c-0.057-0.14,0.009-0.299,0.149-0.356C582.408,363.169,582.567,363.236,582.625,363.376z"/>
		</g>
	</g>
	<g>
		<g>
			<path style="fill:#FFB0A8;" d="M336.61,209.778c-0.157-0.511-0.304-1.04-0.252-1.572c0.159-1.609,1.936-2.444,3.421-3.082
				c4.557-1.958,8.676-4.93,11.97-8.638c3.245-3.654,5.695-8.001,9.246-11.359c3.551-3.358,8.779-5.637,13.337-3.876
				c0.302,0.117,0.62,0.271,0.761,0.562c0.132,0.272,0.074,0.594,0.013,0.89c-0.682,3.334-1.365,6.669-2.137,9.983
				c-1.001,4.298-2.233,8.717-5.087,12.083c-2.831,3.338-6.964,5.281-11.103,6.703c-4.139,1.422-8.445,2.435-12.36,4.392
				c-1.379,0.689-2.969,1.509-4.373,0.875C338.033,215.831,337.188,211.662,336.61,209.778z"/>
			<path style="fill:#010060;" d="M269.633,192.613c5.926,5.425,11.789,11.239,19.184,14.378c0.996,0.422,2.056,0.823,2.762,1.642
				c0.365,0.423,0.624,0.946,1.073,1.278c1.06,0.783,2.545,0.156,3.861,0.235c2.985,0.18,6.462-0.815,7.111,2.104
				c0.504-1.695-0.299-1.531,0.096-1.848c0.637-0.512,1.563-0.297,2.36-0.118c3.242,0.731,6.71,0.42,9.77-0.876
				c2.552-1.081,4.814-2.819,7.459-3.645c3.159-0.986,6.659-0.605,9.726-1.848c1.13-0.458,2.277-1.143,3.478-0.932
				c1.591,0.28,2.472,1.965,3.057,3.471c1.51,3.886,2.648,7.916,3.395,12.018c0.08,0.441,0.152,0.916-0.035,1.323
				c-0.179,0.387-0.557,0.637-0.918,0.866c-2.494,1.584-4.989,3.169-7.553,4.636c-7.725,4.418-16.032,7.734-24.448,10.627
				c-4.729,1.626-9.568,3.136-14.563,3.376c-4.409,0.213-8.797-0.571-13.183-1.066c-5.509-0.622-11.079-0.793-16.522-1.849
				c-5.443-1.056-10.861-3.087-14.889-6.896c-3.791-3.585-6.07-8.453-8.06-13.277c-2.276-5.518-4.304-11.202-5.041-17.125
				c-0.608-4.882-1.035-14.692,3.658-18.108c5.255-3.826,13.91,0.811,18.445,3.766C263.368,187.032,266.549,189.789,269.633,192.613
				z"/>
			<path style="fill:#C63867;" d="M389.647,166.256l-24.051-12.973c0,0,0.875,8.892-5.102,29.444
				c-5.976,20.552-8.746,25.071-8.746,25.071s8.892,3.79,12.244,6.122c3.353,2.332,8.163,0,8.163,0L389.647,166.256z"/>
		</g>
		<g>
			<g>
				<path style="fill:#FFB0A8;" d="M470.861,325.298c0.064-0.52,0.168-1.074,0.541-1.441c0.321-0.316,0.783-0.432,1.221-0.536
					c6.195-1.471,12.39-2.942,18.585-4.413c0.29-0.069,0.603-0.136,0.878-0.023c0.343,0.141,0.521,0.512,0.663,0.855
					c3.1,7.522,3.147,16.252,0.127,23.806c-0.129,0.323-0.278,0.662-0.564,0.861c-0.265,0.184-0.604,0.217-0.926,0.229
					c-4.871,0.177-9.15-3.027-13.825-4.404c-2.205-0.649-4.519-0.893-6.694-1.637c-0.47-0.161-0.977-0.387-1.172-0.843
					c-0.15-0.351-0.075-0.752,0.001-1.125C470.501,332.715,470.369,329.184,470.861,325.298z"/>
				<path style="fill:#EA918C;" d="M491.673,318.83c1.016,4.898,0.699,9.888-2.513,14.252c-1.642,2.232-5.08,2.69-6.953,0.411
					c-1.592-1.938-2.19-4.039-2.258-6.52c-0.047-1.718,0.593-3.768-0.726-5.037c-0.052-0.05-0.09-0.101-0.138-0.151
					c-2.154,0.511-4.308,1.023-6.461,1.534c-0.438,0.104-0.9,0.221-1.221,0.536c-0.373,0.367-0.477,0.922-0.541,1.441
					c-0.492,3.887-0.359,7.418-1.163,11.329c-0.077,0.373-0.151,0.774-0.001,1.125c0.195,0.456,0.702,0.682,1.172,0.843
					c2.174,0.744,4.489,0.988,6.694,1.637c4.676,1.377,8.955,4.58,13.825,4.404c0.322-0.012,0.661-0.044,0.926-0.229
					c0.286-0.199,0.434-0.538,0.564-0.861c3.02-7.554,2.973-16.284-0.127-23.806c-0.141-0.343-0.319-0.715-0.663-0.855
					C491.955,318.83,491.815,318.821,491.673,318.83z"/>
			</g>
			<path style="fill:#EA918C;" d="M234.384,174.587c-0.233,0.486-0.474,1.04-0.285,1.544c0.139,0.371,0.482,0.621,0.806,0.849
				c6.24,4.381,12.48,8.761,18.719,13.142c0.812,0.57,1.848,1.162,2.733,0.715c0.537-0.271,0.834-0.852,1.078-1.402
				c3.891-8.752,3.889-19.565,10.598-26.401c1.334-1.359,2.961-2.611,3.473-4.445c0.302-1.081,0.167-2.235-0.06-3.334
				c-1.708-8.258-9.016-15.045-17.377-16.139c-2.41-0.315-4.965-0.172-7.103,0.982c-4.934,2.664-4.638,10.809-5.814,15.589
				C239.55,162.196,237.28,168.541,234.384,174.587z"/>
			<path style="fill:#D37F7D;" d="M260.155,140.981c-0.906,2.079-1.761,4.082-2.602,5.832c-1.579,3.286-3.119,6.697-3.371,10.334
				c-0.433,6.256,3.159,12.217,8.219,16.016c1.23-3.772,2.852-7.295,5.634-10.13c1.334-1.359,2.961-2.611,3.473-4.445
				c0.302-1.081,0.167-2.235-0.06-3.334C270.172,149.092,265.777,143.751,260.155,140.981z"/>
			<g>
				<path style="fill:#FFB0A8;" d="M282.489,134.195c0.476,4.495-2.401,8.967-1.428,13.382c0.553,2.507,2.292,4.63,2.839,7.138
					c-1.673,0.507-3.443,0.691-5.184,0.537c-0.328,1.548-0.655,3.096-0.983,4.645c-0.518,0.172-1.036,0.344-1.554,0.517
					c0.869,0.083,0.931,1.423,0.375,2.096c-0.556,0.674-1.434,1.073-1.834,1.849c-0.477,0.928-0.112,2.051-0.207,3.09
					c-0.186,2.035-2.214,3.524-4.246,3.735c-2.032,0.212-4.033-0.563-5.868-1.463c-5.85-2.869-11.187-7.469-13.294-13.634
					c-1.575-4.609-1.219-9.635-0.615-14.468c0.623-4.983,1.724-10.367,5.554-13.615C262.546,122.491,281.361,123.54,282.489,134.195
					z"/>
				<path style="fill:#000064;" d="M255.879,141.487c0.58,0.587,0.751,1.474,0.702,2.297c-0.035,0.586-0.153,1.229,0.172,1.719
					c0.313,0.472,0.925,0.623,1.48,0.735c0.979,0.198,2.208,0.294,2.762-0.537c0.223-0.335,0.275-0.752,0.321-1.152
					c0.265-2.313,0.529-4.625,0.794-6.938c0.201-1.754,0.482-3.671,1.793-4.852c0.954-0.86,2.289-1.158,3.57-1.236
					c4.995-0.304,9.906,2.24,14.864,1.567c3.159-0.429,6.108-2.221,7.943-4.828c1.191-1.691,1.871-4.668,1.388-6.679
					s-1.913-5.269-3.25-6.583c-6.476-6.363-13.74-2.372-15.167-1.25c-2.507,1.972-5.861,1.993-9.047,2.162
					c-3.185,0.169-6.366-0.361-9.486-1.024c-2.613-0.555-5.378-1.423-7.92-0.606c-10.796,3.468-12.455,16.487-12.109,23.006
					c0.315,5.934,3.048,11.501,3.686,17.409c0.065,0.6,0.128,1.25,0.535,1.695c0.298,0.325,0.731,0.484,1.148,0.627
					c2.123,0.726,4.598,1.29,6.499,0.098c2.241-1.404,2.556-4.461,2.926-7.079C249.727,148.291,252.533,138.101,255.879,141.487z"/>
				<path style="fill:#FFB0A8;" d="M254.561,138.331c-1.431-1.43-3.868-2.019-5.515-0.844c-1.347,0.961-1.798,2.752-1.917,4.402
					c-0.259,3.596,0.637,7.307,2.726,10.245c0.484,0.681,1.059,1.341,1.83,1.661c3.634,1.505,5.209-3.69,5.563-6.229
					C257.656,144.636,256.689,140.458,254.561,138.331z"/>
				<g>
					<path style="fill:#000064;" d="M277.146,154.988c0.846-0.029,1.692-0.057,2.538-0.086c0.321-0.011,0.322-0.511,0-0.5
						c-0.846,0.029-1.692,0.057-2.538,0.086C276.825,154.499,276.823,154.999,277.146,154.988L277.146,154.988z"/>
					<path style="fill:#000064;" d="M276.135,160.109c-1.756-0.208-3.569-0.983-5.265-1.479c-0.309-0.091-0.441,0.392-0.133,0.482
						c1.741,0.51,3.595,1.284,5.398,1.497C276.454,160.646,276.451,160.146,276.135,160.109L276.135,160.109z"/>
					<path style="fill:#000064;" d="M272.47,139.816c2.834-2.227,5.473,0.23,8.535,0.161c0.643-0.015,0.645-1.015,0-1
						c-1.89,0.043-3.507-0.958-5.35-1.168c-1.529-0.175-2.712,0.374-3.892,1.3C271.257,139.506,271.969,140.209,272.47,139.816
						L272.47,139.816z"/>
					<path style="fill:#000064;" d="M271.401,143.349c0.222-0.569,3.166,0.088,3.572,0.14c1.142,0.145,2.285,0.29,3.427,0.434
						c0.318,0.04,0.315-0.46,0-0.5c-1.845-0.234-3.691-0.468-5.536-0.702c-0.734-0.093-1.622-0.332-1.945,0.495
						C270.802,143.516,271.285,143.646,271.401,143.349L271.401,143.349z"/>
					<g>
						<path style="fill:#000064;" d="M277.006,145.09c-0.227,0.74-1.098,1.128-1.946,0.868c-0.848-0.26-1.352-1.07-1.126-1.809
							c0.227-0.74,1.098-1.128,1.946-0.869C276.729,143.54,277.233,144.35,277.006,145.09z"/>
					</g>
					<path style="fill:#000064;" d="M250.253,139.986c0.428-0.095,1.643,2.45,1.84,2.829c0.724,1.396,1.367,2.836,1.099,4.443
						c-0.052,0.315,0.429,0.45,0.482,0.133c0.306-1.837-0.428-3.477-1.28-5.074c-0.359-0.674-1.251-3.041-2.274-2.814
						C249.806,139.573,249.939,140.055,250.253,139.986L250.253,139.986z"/>
					<path style="fill:#000064;" d="M249.413,143.834c0.108,0.135,0.687-0.07,0.881-0.06c0.357,0.018,0.682,0.149,0.986,0.329
						c0.443,0.263,0.806,0.637,1.163,1.003c0.225,0.231,0.579-0.123,0.354-0.354c-0.709-0.726-1.529-1.482-2.61-1.478
						c-0.408,0.001-1.621,0.296-1.127,0.913C249.26,144.439,249.612,144.083,249.413,143.834L249.413,143.834z"/>
				</g>
			</g>
			<g>
				<path style="fill:#010060;" d="M527.991,303.992c2.099-25.593,0.039-30.866-6.044-31.32
					c-7.718-0.575-12.882,13.778-14.106,29.018c-0.007,0.081-0.013,0.163-0.019,0.244c-0.22,2.893-1.769,5.518-4.235,7.047
					l-10.947,6.786c-0.855,0.53-1.407,1.435-1.488,2.438l-2.054,25.584c-0.107,1.327,0.892,2.501,2.22,2.607l30.118,2.418
					l1.911-23.145C526.586,320.904,527.224,313.339,527.991,303.992z"/>
				<path style="fill:#FFFFFF;" d="M524.277,349.085l-3.352-0.269c-1.101-0.088-1.922-1.053-1.833-2.154l5.971-74.392
					c0.088-1.101,1.053-1.922,2.154-1.834l3.352,0.269c1.101,0.088,1.922,1.053,1.834,2.154l-5.971,74.392
					C526.343,348.353,525.378,349.174,524.277,349.085z"/>
				<path style="fill:#FFFFFF;" d="M512.084,336.196c-0.274,3.413-3.263,5.958-6.676,5.684c-3.413-0.274-5.958-3.263-5.684-6.676
					c0.274-3.413,3.263-5.958,6.676-5.684C509.813,329.794,512.358,332.783,512.084,336.196z"/>
			</g>
			<g>
				<path style="fill:#FFB33F;" d="M424.96,337.797l-36.721,1.479l-25.516-41.488l-3.533-5.746l-3.756-6.108l-5.565,4.373h-0.011
					l-5.788,4.554l-58.066,45.606l-36.923-46.149l-0.702-0.872c0,0,10.492-5.597,25.335-13.248h0.011
					c23.378-12.045,57.534-29.166,78.39-37.423c3.501-1.394,12.513-2.011,15.046,0.787c7.917,8.757,23.59,34.54,36.615,56.927
					c0.851,1.458,1.681,2.894,2.501,4.309C416.756,322.921,424.96,337.797,424.96,337.797z"/>
				<path style="fill:#010060;" d="M302.454,282.263c6.108,0.596,24.527,3.82,47.404,8.044l-5.788,4.554
					c-21.398-3.309-38.402-5.757-44.223-6.161c-25.421-1.766-38.721-3.139-50.405,5.352c-0.117,0.085-0.245,0.181-0.362,0.266
					c-4.629,3.448-8.215,8.055-10.236,13.375c0.149-1.309,0.383-2.607,0.681-3.862c1.702-7.257,6.235-13.439,12.396-17.653
					c6.352-4.341,13.077-5.874,21.792-5.98h0.011C281.396,280.093,290.611,281.103,302.454,282.263z"/>
				<path style="fill:#010060;" d="M406.275,304.8c-14.439-2.362-29.464-4.788-43.552-7.012l-3.533-5.746
					c14.205,2.65,29.624,5.576,44.584,8.449C404.625,301.948,405.455,303.385,406.275,304.8z"/>
				<path style="fill:#FFB0A8;" d="M347.703,225.949c0.696-1.652,1.033-3.472,2.018-4.97c0.85-1.292,2.115-2.241,3.297-3.239
					c4.77-4.026,8.518-9.252,10.802-15.061c0.635,0.12,0.867,0.899,0.941,1.542c0.456,3.995-0.344,8.124-2.261,11.659
					c-0.549,1.012-1.191,1.988-1.542,3.084c-0.402,1.255-0.4,2.602-0.298,3.916c0.354,4.552,1.786,9.499-0.542,13.427
					c-1.038,1.751-2.7,3.026-4.321,4.256c-2.673,2.029-5.347,4.057-8.021,6.085c-3.485,2.645-11.359,4.949-14.379,0.059
					c-3.405-5.514,4.564-10.383,8.034-13.277C343.945,231.335,346.408,229.023,347.703,225.949z"/>
				<path style="fill:#E83F67;" d="M358.637,217.02l24.583-54.114l11.75,4.948l-22.573,48.084
					C372.398,215.937,360.338,217.329,358.637,217.02z"/>
				<path style="fill:#FFB0A8;" d="M372.004,208.397c1.427-2.323,2.585-4.806,4.08-7.086c0.507-0.773,1.114-1.567,1.997-1.838
					c0.884-0.27,2.055,0.299,2.038,1.223c-0.254-0.684,0.813-1.24,1.43-0.85c0.616,0.39,0.782,1.207,0.829,1.935
					c0.255,3.933-1.265,7.739-2.758,11.386c-0.897,2.193-1.794,4.385-2.691,6.578c-0.485,1.185-0.974,2.377-1.67,3.451
					c-0.791,1.22-1.83,2.256-2.861,3.281c-5.71,5.681-11.541,11.451-18.698,15.145c-0.767,0.396-1.605,0.777-2.461,0.66
					c-0.729-0.099-1.365-0.552-1.88-1.078c-1.926-1.966-2.447-5.013-1.855-7.702c0.592-2.688,2.155-5.066,3.932-7.168
					c1.622-1.918,3.205-2.29,5.334-3.276c2.009-0.931,3.961-2.646,5.677-4.03C366.171,216.025,369.494,212.484,372.004,208.397z"/>
				<path style="fill:#FF5778;" d="M370.063,222.079l-0.39-0.313c5.015-6.224,8.556-13.643,10.242-21.457l0.488,0.105
					C378.702,208.303,375.126,215.795,370.063,222.079z"/>
				<g>
					<path style="fill:#FFB33F;" d="M479.37,328.67l-1.33,8.4c-0.24,1.47-0.74,2.83-1.46,4.06c0,0.01,0,0.01,0,0.01
						c-2.17,2.52-5.4,6.09-8.9,6.08h-0.32l-3.61,0.04h-0.5l-176.75-0.19l-0.83-0.02l-7.93-0.22c-6.2,0-17.52-1.26-18.34-1.38
						c-4.34-0.87-8.38-2.64-11.72-5.65c-6.78-6.11-7.58-22.95-6.43-32.05c2.07-5.46,3.39-10.22,8.19-13.7
						c11.69-8.49,24.99-7.12,50.41-5.35c16.62,1.15,127.29,19.565,168.4,26.425c1.46,0.25-0.15-0.115,1.13,0.105
						c0.13,0.02,0.25,0.04,0.37,0.06C476.09,316.35,480.38,322.31,479.37,328.67z"/>
					<g style="opacity:0.36;">
						<g>
							<path style="fill:#FFFFFF;" d="M249.054,296.433c1.974,5.859,4.147,11.816,8.14,16.637
								c4.126,4.981,10.001,7.639,16.261,8.794c7.049,1.301,14.354,1.271,21.496,1.501c8.124,0.262,16.25,0.417,24.378,0.516
								c32.495,0.396,65.021-0.114,97.483,1.695c18.298,1.02,36.556,2.8,54.63,5.87c1.888,0.321,2.7-2.57,0.798-2.893
								c-61.836-10.503-124.673-5.76-187.025-8.556c-7.349-0.33-15.395-0.769-21.654-5.093c-6.425-4.438-9.225-12.181-11.613-19.269
								C251.333,293.815,248.435,294.596,249.054,296.433L249.054,296.433z"/>
						</g>
					</g>
					<path style="fill:#FFB33F;" d="M469.77,323.51c-0.17,3.79-0.33,7.57-0.5,11.36c-0.16,3.45-0.13,6.9-1.49,10.13
						c-0.03,0.08-0.06,0.15-0.1,0.22v0.01l-0.21,1.99h-0.11l-3.61,0.04c0.02-0.04,0.04-0.08,0.05-0.1
						c1.66-3.44,1.39-10.45,1.55-14.18c0.17-3.79,0.35-7.58,0.51-11.36c0.09-2.36-0.46-4.73-0.59-7.08
						c1.46,0.25,2.83,0.47,4.11,0.69c0.18,1.1,0.45,2.21,0.51,3.27C469.98,320.17,469.85,321.84,469.77,323.51z"/>
					<path style="fill:#F7920D;" d="M466.516,313.92c3.682-0.495,7.413-0.629,11.122-0.399c0.496,0.031,1.045,0.094,1.371,0.469
						c0.214,0.247,0.287,0.583,0.35,0.903c2.126,10.836,1.509,22.199-1.779,32.741c-0.17,0.544-0.365,1.116-0.799,1.486
						c-0.353,0.301-0.819,0.428-1.271,0.534c-2.314,0.54-9.418,1.903-10.627-0.839c-1.028-2.331,1.764-8.772,2.146-11.387
						C468.167,329.636,468.006,321.653,466.516,313.92z"/>
				</g>
				<g>
					<path style="fill:#00CDBE;" d="M285.79,280.74c-0.51,1.87-1.9,3.35-3.26,4.73c-10.02,10.18-20.95,19.93-27.48,32.63
						c-0.14,0.27-0.28,0.54-0.41,0.82c-1.69,3.52-0.98,3.75-3.38,7.59c-0.22,0.34-0.44,0.69-0.68,1.02
						c-2.53,3.69-6.02,6.89-10.33,7.97c-4.14,1.04-8.43-0.08-12.04-2.43c-2.38-1.56-5.43-2.71-6.96-5.07
						c-3.86-5.94-8.23-8.43-8.75-15.5c-0.52-7.06,0.98-15.38-1.17-22.13c-1.91-5.98-5.42-11.49-6.31-17.71
						c-0.9-6.3,1-12.67,0.86-19.03c-0.17-7.74-3.33-15.16-3.64-22.89c-0.28-6.92,1.74-13.71,3.93-20.28
						c3.2-9.59,6.81-19.04,10.82-28.32c1.4-3.24,2.94-6.58,5.67-8.81c1.8-1.48,3.99-2.33,6.3-2.68c2.31-0.34,4.74-0.18,7.03,0.39
						c0.21,0.05,0.43,0.11,0.64,0.17c3.79,1.07,7.2,3.08,10.49,5.25c4.58,2.19,8.42,5.56,11.64,9.54c1.69,2.06,3.21,4.29,4.58,6.61
						c1.24,2.09,2.36,4.26,3.38,6.44c0.1,0.22,0.21,0.44,0.3,0.66c1.14,2.47,2.18,4.98,3.11,7.52c0.71,1.91,1.36,3.84,1.95,5.79
						c0.2,0.65,0.39,1.3,0.57,1.95c0.19,0.66,0.37,1.31,0.54,1.97c0.17,0.65,0.34,1.31,0.5,1.97c0.31,1.26,0.59,2.53,0.85,3.8
						c0.14,0.68,0.27,1.36,0.39,2.04c0.13,0.68,0.25,1.36,0.36,2.05c0.11,0.68,0.22,1.37,0.31,2.06c0.1,0.69,0.2,1.37,0.28,2.06
						c0.98,7.95,1.05,16.06,3.06,23.82c1.9,7.34,5.5,14.21,6.81,21.68C286,277.85,286.17,279.34,285.79,280.74z"/>
					<path style="fill:#010060;" d="M285.79,280.74c-0.51,1.87-1.9,3.35-3.26,4.73c-10.02,10.18-20.95,19.93-27.48,32.63
						c-0.14,0.27-0.28,0.54-0.41,0.82c-1.41,2.84-2.63,5.78-4.06,8.61c-2.53,3.69-6.02,6.89-10.33,7.97
						c-4.14,1.04-8.43-0.08-12.04-2.43c0.94-1.32,1.78-2.77,2.49-4.37c3.56-7.96,3.9-17.24,7.88-24.96
						c3.79-7.33,12.98-5.27,14.2-14.86c0.54-4.25-0.48-7.26-2.21-11.08c-1.68-3.71-2.33-7.98-4.49-11.47
						c-1.99-3.24-6.03-5-7.03-8.63c-0.93-3.37-0.06-7.16-1.17-10.65c-1.36-4.31-5.48-7.1-6.76-11.28
						c-1.69-5.49,2.35-12.47,5.2-16.86c2.6-4.01,5.79-7.85,9.48-10.92c4.89-4.07,5.47-2.06,11.45-3.24c2.4-0.47,5.41,2.82,7,1.75
						c1.13,2.47,3.06,0.2,4,2.75c0.7,1.91,3.23,1.82,3.83,3.77c0.19,0.65,0.38,1.3,0.57,1.95c0.19,0.66,0.37,1.31,0.54,1.97
						c0.17,0.65,0.34,1.31,0.5,1.97c0.31,1.26,0.59,2.53,0.85,3.8c0.14,0.68,0.27,1.36,0.39,2.04c0.13,0.68,0.25,1.36,0.36,2.05
						c0.11,0.68,0.22,1.37,0.31,2.06c0.1,0.69,0.2,1.37,0.28,2.06c0.98,7.95,1.05,16.06,3.06,23.82c1.9,7.34,5.5,14.21,6.81,21.68
						C286,277.85,286.17,279.34,285.79,280.74z"/>
					<path style="fill:#0BDDC8;" d="M233.077,164.727c0.174-0.411,0.372-0.841,0.738-1.096c0.404-0.282,0.933-0.296,1.426-0.285
						c11.267,0.241,21.431,7.978,26.981,17.786c0.574,1.014,1.117,2.085,1.229,3.245c0.071,0.741-0.037,1.486-0.146,2.222
						c-0.686,4.662,5.194,10.484,3.861,13.817c-6.104-15.292-20.434-25.642-33.601-27.307c-2.871-0.363-4.734-1.456-4.602-2.721
						C229.158,168.522,232.45,166.208,233.077,164.727z"/>
					<path style="fill:#00CDBE;" d="M346.936,247.651c-1.691-5.671-4.332-11.057-7.781-15.865c-0.352-0.491-0.758-1.008-1.342-1.16
						c-0.792-0.206-1.567,0.327-2.228,0.809c-11.651,8.504-27.384,9.902-38.9,18.589c0.217-1.442-1.333-2.843-2.746-2.48
						c-0.625,0.16-1.234,0.594-1.856,0.422c-0.606-0.168-0.91-0.828-1.139-1.414c-5.722-14.599-13.671-28.324-23.488-40.551
						c-3.993-4.973-8.304-9.712-13.135-13.877c-2.907-2.506-6.181-4.879-9.984-5.394c-4.425-0.6-8.876,1.474-12.159,4.5
						c-3.283,3.026-5.6,6.932-7.868,10.779c0,0-3.804,7.212-2.585,14.105c1.22,6.893,4.628,13.201,8.431,19.078
						c11.589,17.909,27.377,33.082,45.733,43.95c6.505,3.851,13.865,7.266,21.35,6.204c5.563-0.789,10.459-3.956,15.152-7.044
						c11.57-7.614,23.232-15.302,32.994-25.128c0.824-0.83,1.672-1.745,1.882-2.896
						C347.427,249.402,347.191,248.505,346.936,247.651z"/>
					<g>
						<path style="fill:#FFEBEA;" d="M221.501,268.055c-0.53,0.53-1.389,0.53-1.919,0c-0.53-0.53-0.53-1.389,0-1.919
							c0.53-0.53,1.389-0.53,1.919,0C222.031,266.666,222.031,267.526,221.501,268.055z"/>
						<path style="fill:#FFEBEA;" d="M245.834,216.055c-0.53,0.53-1.389,0.53-1.919,0c-0.53-0.53-0.53-1.389,0-1.919
							c0.53-0.53,1.389-0.53,1.919,0C246.364,214.666,246.364,215.525,245.834,216.055z"/>
						<path style="fill:#FFEBEA;" d="M277.459,229.459c-0.53,0.53-1.389,0.53-1.919,0c-0.53-0.53-0.53-1.389,0-1.919
							c0.53-0.53,1.389-0.53,1.919,0C277.989,228.07,277.989,228.93,277.459,229.459z"/>
						<path style="fill:#FFEBEA;" d="M274.026,252.766c-0.53,0.53-1.389,0.53-1.919,0c-0.53-0.53-0.53-1.389,0-1.919
							c0.53-0.53,1.389-0.53,1.919,0C274.556,251.377,274.556,252.236,274.026,252.766z"/>
						<circle style="fill:#FFEBEA;" cx="219.233" cy="203.973" r="1.357"/>
						<path style="fill:#FFEBEA;" d="M232.459,180.626c-0.53,0.53-1.389,0.53-1.919,0c-0.53-0.53-0.53-1.389,0-1.919
							c0.53-0.53,1.389-0.53,1.919,0C232.989,179.237,232.989,180.096,232.459,180.626z"/>
						<path style="fill:#FFEBEA;" d="M257.667,195.667c-0.53,0.53-1.389,0.53-1.919,0c-0.53-0.53-0.53-1.389,0-1.919
							c0.53-0.53,1.389-0.53,1.919,0C258.197,194.278,258.197,195.137,257.667,195.667z"/>
						<path style="fill:#FFEBEA;" d="M330.959,251.126c-0.53,0.53-1.389,0.53-1.919,0c-0.53-0.53-0.53-1.389,0-1.919
							c0.53-0.53,1.389-0.53,1.919,0C331.489,249.737,331.489,250.596,330.959,251.126z"/>
						<path style="fill:#FFEBEA;" d="M287.126,275.626c-0.53,0.53-1.389,0.53-1.919,0c-0.53-0.53-0.53-1.389,0-1.919
							c0.53-0.53,1.389-0.53,1.919,0C287.656,274.237,287.656,275.096,287.126,275.626z"/>
						<path style="fill:#FFEBEA;" d="M220.793,305.459c-0.53,0.53-1.389,0.53-1.919,0c-0.53-0.53-0.53-1.389,0-1.919
							c0.53-0.53,1.389-0.53,1.919,0C221.323,304.07,221.323,304.93,220.793,305.459z"/>
						<path style="fill:#FFEBEA;" d="M254.585,248.585c-0.53,0.53-1.389,0.53-1.919,0c-0.53-0.53-0.53-1.389,0-1.919
							c0.53-0.53,1.389-0.53,1.919,0C255.115,247.197,255.115,248.056,254.585,248.585z"/>
						<path style="fill:#FFEBEA;" d="M226.833,324.419c-0.53,0.53-1.389,0.53-1.919,0c-0.53-0.53-0.53-1.389,0-1.919
							c0.53-0.53,1.389-0.53,1.919,0C227.363,323.03,227.363,323.889,226.833,324.419z"/>
						<path style="fill:#FFEBEA;" d="M215.334,281.305c-0.53,0.53-1.389,0.53-1.919,0c-0.53-0.53-0.53-1.389,0-1.919
							c0.53-0.53,1.389-0.53,1.919,0C215.864,279.916,215.864,280.776,215.334,281.305z"/>
						<path style="fill:#FFEBEA;" d="M240.918,282.639c-0.53,0.53-1.389,0.53-1.919,0c-0.53-0.53-0.53-1.389,0-1.919
							c0.53-0.53,1.389-0.53,1.919,0C241.448,281.25,241.448,282.109,240.918,282.639z"/>
						<path style="fill:#FFEBEA;" d="M219.168,247.972c-0.53,0.53-1.389,0.53-1.919,0c-0.53-0.53-0.53-1.389,0-1.919
							c0.53-0.53,1.389-0.53,1.919,0C219.698,246.583,219.698,247.442,219.168,247.972z"/>
						<path style="fill:#FFEBEA;" d="M229.959,297.543c-0.53,0.53-1.389,0.53-1.919,0c-0.53-0.53-0.53-1.389,0-1.919
							c0.53-0.53,1.389-0.53,1.919,0C230.489,296.154,230.489,297.013,229.959,297.543z"/>
						<path style="fill:#FFEBEA;" d="M230,223.085c-0.53,0.53-1.389,0.53-1.919,0c-0.53-0.53-0.53-1.389,0-1.919
							c0.53-0.53,1.389-0.53,1.919,0C230.53,221.697,230.53,222.556,230,223.085z"/>
						<path style="fill:#FFEBEA;" d="M241.626,198.126c-0.53,0.53-1.389,0.53-1.919,0c-0.53-0.53-0.53-1.389,0-1.919
							c0.53-0.53,1.389-0.53,1.919,0C242.156,196.737,242.156,197.596,241.626,198.126z"/>
						<path style="fill:#FFEBEA;" d="M313.959,269.626c-0.53,0.53-1.389,0.53-1.919,0c-0.53-0.53-0.53-1.389,0-1.919
							c0.53-0.53,1.389-0.53,1.919,0C314.489,268.237,314.489,269.096,313.959,269.626z"/>
						<path style="fill:#FFEBEA;" d="M209.959,226.959c-0.53,0.53-1.389,0.53-1.919,0c-0.53-0.53-0.53-1.389,0-1.919
							c0.53-0.53,1.389-0.53,1.919,0C210.489,225.57,210.489,226.43,209.959,226.959z"/>
					</g>
				</g>
			</g>
		</g>
	</g>
	<g>
		<path style="fill:#FF5778;stroke:#FFFFFF;stroke-miterlimit:10;" d="M186.978,385.602h-4.036c-17.397,0-31.5-14.103-31.5-31.5
			v-18.933c0-17.397,14.103-31.5,31.5-31.5h4.036c17.397,0,31.5,14.103,31.5,31.5v18.933
			C218.478,371.499,204.375,385.602,186.978,385.602z"/>
		<path style="fill:#E83F67;" d="M185.964,364.941h-2.008c-8.621,0-15.61-6.989-15.61-15.61v-9.392c0-8.621,6.989-15.61,15.61-15.61
			h2.008c8.621,0,15.61,6.989,15.61,15.61v9.392C201.574,357.952,194.585,364.941,185.964,364.941z"/>
		<path style="fill:none;stroke:#FFFFFF;stroke-miterlimit:10;" d="M185.63,358.202h-1.34c-5.76,0-10.43-4.67-10.43-10.43v-6.274
			c0-5.76,4.67-10.43,10.43-10.43h1.34c5.76,0,10.43,4.67,10.43,10.43v6.274C196.06,353.532,191.39,358.202,185.63,358.202z"/>
	</g>
	<g>
		<g style="opacity:0.36;">
			<rect x="354" y="407.109" style="fill:#FFFFFF;" width="2.9" height="6.693"/>
			<rect x="361.431" y="407.109" style="fill:#FFFFFF;" width="2.9" height="6.693"/>
			<rect x="368.862" y="407.109" style="fill:#FFFFFF;" width="2.9" height="6.693"/>
			<rect x="376.293" y="407.109" style="fill:#FFFFFF;" width="2.9" height="6.693"/>
			<rect x="383.724" y="407.109" style="fill:#FFFFFF;" width="2.9" height="6.693"/>
			<rect x="391.155" y="407.109" style="fill:#FFFFFF;" width="2.9" height="6.693"/>
			<rect x="398.587" y="407.109" style="fill:#FFFFFF;" width="2.9" height="6.693"/>
			<rect x="406.018" y="407.109" style="fill:#FFFFFF;" width="2.9" height="6.693"/>
			<rect x="413.449" y="407.109" style="fill:#FFFFFF;" width="2.9" height="6.693"/>
			<rect x="420.88" y="407.109" style="fill:#FFFFFF;" width="2.9" height="6.693"/>
			<rect x="428.311" y="407.109" style="fill:#FFFFFF;" width="2.9" height="6.693"/>
			<rect x="435.742" y="407.109" style="fill:#FFFFFF;" width="2.9" height="6.693"/>
			<rect x="443.173" y="407.109" style="fill:#FFFFFF;" width="2.9" height="6.693"/>
			<rect x="450.604" y="407.109" style="fill:#FFFFFF;" width="2.9" height="6.693"/>
			<rect x="458.035" y="407.109" style="fill:#FFFFFF;" width="2.9" height="6.693"/>
			<rect x="465.466" y="407.109" style="fill:#FFFFFF;" width="2.9" height="6.693"/>
			<rect x="472.898" y="407.109" style="fill:#FFFFFF;" width="2.9" height="6.693"/>
		</g>
		<g>
			<rect x="354" y="347.08" style="fill:#FF5778;" width="121.8" height="60.06"/>
			<g>
				<polygon style="opacity:0.36;fill:#FFFFFF;" points="364.71,347.08 354,357.78 354,356.72 363.63,347.08 				"/>
				<polygon style="opacity:0.36;fill:#FFFFFF;" points="377.71,347.08 354,370.78 354,369.72 376.63,347.08 				"/>
				<polygon style="opacity:0.36;fill:#FFFFFF;" points="390.71,347.08 354,383.78 354,382.72 389.63,347.08 				"/>
				<polygon style="opacity:0.36;fill:#FFFFFF;" points="403.71,347.08 354,396.78 354,395.72 402.63,347.08 				"/>
				<polygon style="opacity:0.36;fill:#FFFFFF;" points="416.71,347.08 356.64,407.14 355.58,407.14 415.63,347.08 				"/>
				<polygon style="opacity:0.36;fill:#FFFFFF;" points="429.71,347.08 369.64,407.14 368.58,407.14 428.63,347.08 				"/>
				<polygon style="opacity:0.36;fill:#FFFFFF;" points="442.71,347.08 382.64,407.14 381.58,407.14 441.63,347.08 				"/>
				<polygon style="opacity:0.36;fill:#FFFFFF;" points="455.71,347.08 395.64,407.14 394.58,407.14 454.63,347.08 				"/>
				<polygon style="opacity:0.36;fill:#FFFFFF;" points="468.71,347.08 408.64,407.14 407.58,407.14 467.63,347.08 				"/>
				<polygon style="opacity:0.36;fill:#FFFFFF;" points="475.8,351.91 475.8,352.99 421.64,407.14 420.58,407.14 				"/>
				<polygon style="opacity:0.36;fill:#FFFFFF;" points="475.8,364.91 475.8,365.99 434.64,407.14 433.58,407.14 				"/>
				<polygon style="opacity:0.36;fill:#FFFFFF;" points="475.8,377.91 475.8,378.99 447.64,407.14 446.58,407.14 				"/>
				<polygon style="opacity:0.36;fill:#FFFFFF;" points="475.8,390.91 475.8,391.99 460.64,407.14 459.58,407.14 				"/>
				<polygon style="opacity:0.36;fill:#FFFFFF;" points="475.8,403.91 475.8,404.99 473.65,407.14 472.57,407.14 				"/>
			</g>
		</g>
		<rect x="354.125" y="402.75" style="fill:#E83F67;" width="121.672" height="4.359"/>
	</g>
</g>
</svg>
