<?xml version="1.0" encoding="utf-8"?>
<!-- Generator: Adobe Illustrator 27.5.0, SVG Export Plug-In . SVG Version: 6.00 Build 0)  -->
<svg version="1.1" xmlns="http://www.w3.org/2000/svg" xmlns:xlink="http://www.w3.org/1999/xlink" x="0px" y="0px"
	 viewBox="0 0 500 500" style="enable-background:new 0 0 500 500;" xml:space="preserve">
<g id="OBJECTS">
	<g>
		<g>
			<path style="fill:#6251BD;" d="M282.992,251.356c0,0-17.005-0.904-4.49-14.129c12.515-13.225,45.412-11.572,45.412-11.572
				S276.608,296.978,282.992,251.356z"/>
			<path style="fill:none;stroke:#39236E;stroke-miterlimit:10;" d="M262.014,349.796c0,0-18.089-66.328,30.149-107.783"/>
		</g>
		<g>
			<path style="fill:#6251BD;" d="M240.988,248.973c0,0,14.368-1.024,3.582-12.018c-10.786-10.994-38.584-9.094-38.584-9.094
				S247.083,287.461,240.988,248.973z"/>
			<path style="fill:none;stroke:#39236E;stroke-miterlimit:10;" d="M260.232,331.909c0,0,14.287-56.373-27.144-90.698"/>
		</g>
		<g>
			<path style="fill:#6251BD;" d="M258.628,226.64c0,0-19.58,0.02-3.856-15.704c17.592-17.592,47.458-2.455,47.458-2.455
				S259.272,254.712,258.628,226.64z"/>
			<path style="fill:none;stroke:#39236E;stroke-miterlimit:10;" d="M268.727,349.149c0,0-36.454-119.929,2.409-134.94"/>
		</g>
		<g>
			<polygon points="270.995,425.76 248.902,425.76 236.528,308.446 283.369,308.446 			"/>
		</g>
	</g>
	<g>
		<path style="fill:#CAE0DF;" d="M342.712,27.663c0,2.9-5.336,5.252-11.919,5.252c-6.583,0-11.919-2.351-11.919-5.252
			s5.336-5.252,11.919-5.252C337.376,22.411,342.712,24.762,342.712,27.663z"/>
		
			<line style="fill:none;stroke:#000000;stroke-linecap:round;stroke-miterlimit:10;" x1="331.002" y1="27.24" x2="331.002" y2="120.351"/>
		<g>
			<polygon style="fill:#D43B8D;" points="305.461,156.317 357.938,156.317 331.213,126.904 			"/>
			<rect x="324.961" y="115.89" style="fill:#D43B8D;" width="12.957" height="19.177"/>
			<polygon points="324.961,134.063 337.902,134.16 322.969,136.346 			"/>
		</g>
	</g>
	<g>
		<ellipse style="fill:#CAE0DF;" cx="386.266" cy="419.66" rx="71.256" ry="4.154"/>
		<g>
			<g>
				
					<line style="fill:none;stroke:#000000;stroke-linecap:round;stroke-miterlimit:10;" x1="323.601" y1="306.679" x2="442.679" y2="419.597"/>
				
					<line style="fill:none;stroke:#000000;stroke-linecap:round;stroke-miterlimit:10;" x1="442.679" y1="306.679" x2="323.601" y2="419.597"/>
				<rect x="313.578" y="302.383" width="137.466" height="9.205"/>
			</g>
			<g>
				<rect x="388.662" y="280.285" style="fill:#CAE0DF;" width="15.853" height="21.377"/>
				<rect x="388.662" y="280.285" width="15.853" height="9.367"/>
				<g>
					<path d="M439.045,285.089h-84.353c-2.176,0-3.94-1.764-3.94-3.94v-54.81c0-2.176,1.764-3.94,3.94-3.94h84.353
						c2.176,0,3.94,1.764,3.94,3.94v54.81C442.985,283.325,441.221,285.089,439.045,285.089z"/>
				</g>
				<path style="fill:#CAE0DF;" d="M350.752,276.622v5.601c0,1.583,1.283,2.866,2.866,2.866h86.502c1.583,0,2.866-1.283,2.866-2.866
					v-5.601H350.752z"/>
				<rect x="383.558" y="297.339" style="fill:#CAE0DF;" width="26.061" height="5.044"/>
				<path d="M398.57,280.796c0,0.94-0.762,1.701-1.701,1.701s-1.701-0.762-1.701-1.701c0-0.94,0.762-1.701,1.701-1.701
					S398.57,279.856,398.57,280.796z"/>
				<rect x="353.763" y="226.501" style="fill:#FFFFFF;" width="86.136" height="46.828"/>
			</g>
			<g>
				<g>
					
						<rect x="330.147" y="252.061" transform="matrix(0.9991 0.0413 -0.0413 0.9991 11.4478 -13.5234)" style="fill:#D43B8D;" width="5.421" height="36.207"/>
					
						<rect x="332.043" y="252.943" transform="matrix(0.0413 -0.9991 0.9991 0.0413 64.3383 575.8558)" width="0.426" height="2.915"/>
					
						<rect x="331.951" y="255.165" transform="matrix(0.0413 -0.9991 0.9991 0.0413 62.029 577.8942)" width="0.426" height="2.915"/>
					
						<rect x="331.859" y="257.388" transform="matrix(0.0413 -0.9991 0.9991 0.0413 59.7202 579.9338)" width="0.426" height="2.915"/>
					
						<rect x="331.767" y="259.611" transform="matrix(0.0413 -0.9991 0.9991 0.0413 57.4109 581.9724)" width="0.426" height="2.915"/>
					
						<rect x="331.675" y="261.834" transform="matrix(0.0413 -0.9991 0.9991 0.0413 55.1025 584.0116)" width="0.426" height="2.915"/>
					
						<rect x="331.583" y="264.057" transform="matrix(0.0413 -0.9991 0.9991 0.0413 52.7928 586.0504)" width="0.426" height="2.915"/>
					
						<rect x="331.491" y="266.279" transform="matrix(0.0413 -0.9991 0.9991 0.0413 50.4844 588.0897)" width="0.426" height="2.915"/>
					
						<rect x="331.399" y="268.502" transform="matrix(0.0413 -0.9991 0.9991 0.0413 48.1752 590.1281)" width="0.426" height="2.915"/>
					
						<rect x="331.307" y="270.724" transform="matrix(0.0413 -0.9991 0.9991 0.0413 45.8663 592.167)" width="0.426" height="2.915"/>
					
						<rect x="331.215" y="272.947" transform="matrix(0.0413 -0.9991 0.9991 0.0413 43.5576 594.2067)" width="0.426" height="2.915"/>
					
						<rect x="331.123" y="275.17" transform="matrix(0.0413 -0.9991 0.9991 0.0413 41.2482 596.2451)" width="0.426" height="2.915"/>
					
						<rect x="331.031" y="277.393" transform="matrix(0.0413 -0.9991 0.9991 0.0413 38.9399 598.2844)" width="0.426" height="2.915"/>
					
						<rect x="330.94" y="279.616" transform="matrix(0.0413 -0.9991 0.9991 0.0413 36.6302 600.3232)" width="0.426" height="2.915"/>
					
						<rect x="330.848" y="281.838" transform="matrix(0.0413 -0.9991 0.9991 0.0413 34.3218 602.3624)" width="0.426" height="2.915"/>
					
						<rect x="330.756" y="284.061" transform="matrix(0.0413 -0.9991 0.9991 0.0413 32.0125 604.4009)" width="0.426" height="2.915"/>
				</g>
				<g>
					
						<rect x="324.341" y="266.512" transform="matrix(0.9846 -0.1749 0.1749 0.9846 -43.8115 61.374)" style="fill:#3C2575;" width="3.989" height="25.529"/>
					<polygon style="fill:#FFA880;" points="322.139,267.058 326.066,266.36 323.55,263.313 					"/>
					<polygon points="323.55,263.313 322.936,264.941 324.644,264.638 					"/>
				</g>
				<g>
					
						<rect x="332.187" y="270.197" transform="matrix(0.9584 0.2854 -0.2854 0.9584 94.642 -83.5972)" style="fill:#3C2575;" width="3.989" height="25.529"/>
					<polygon style="fill:#FFA880;" points="335.913,270.159 339.736,271.297 338.854,267.445 					"/>
					<polygon points="338.854,267.445 337.575,268.625 339.237,269.12 					"/>
				</g>
				<polygon style="fill:#F29827;" points="337.744,302.383 324.698,302.383 321.074,281.364 341.368,281.364 				"/>
			</g>
			<g>
				<g>
					<rect x="361.203" y="239.456" style="fill:#F29827;" width="35.058" height="20.722"/>
					<polyline style="fill:none;stroke:#000000;stroke-width:0.5;stroke-linecap:round;stroke-miterlimit:10;" points="
						362.324,240.424 378.596,252.297 395.14,240.424 					"/>
					
						<line style="fill:none;stroke:#000000;stroke-width:0.5;stroke-linecap:round;stroke-miterlimit:10;" x1="372.21" y1="247.813" x2="362.019" y2="259.295"/>
					
						<line style="fill:none;stroke:#000000;stroke-width:0.5;stroke-linecap:round;stroke-miterlimit:10;" x1="385.255" y1="247.813" x2="395.446" y2="259.295"/>
				</g>
				<g>
					<circle style="fill:#D43B8D;" cx="394.44" cy="245.194" r="7.354"/>
					
						<text transform="matrix(0.9998 0.0201 -0.0201 0.9998 388.9121 247.3742)" style="fill:#FFFFFF; font-family:'Karla-Regular'; font-size:7.1835px;">+15</text>
				</g>
			</g>
			<g>
				<g>
					<path style="fill:#D43B8D;" d="M416.527,237.3c-5.466,0.57-9.975,4.82-10.909,10.235c-0.365,2.113-0.167,4.132,0.436,5.97
						c0.145,0.441,0.154,0.915-0.009,1.349l-1.497,3.991c-0.087,0.232,0.101,0.474,0.347,0.447l3.709-0.408
						c0.542-0.06,1.073,0.123,1.499,0.464c2.559,2.055,5.938,3.128,9.58,2.607c5.436-0.777,9.793-5.189,10.499-10.635
						C431.225,243.263,424.547,236.464,416.527,237.3z"/>
					<g>
						
							<line style="fill:none;stroke:#FFFFFF;stroke-width:0.75;stroke-miterlimit:10;" x1="411.486" y1="247.359" x2="417.563" y2="247.359"/>
						
							<line style="fill:none;stroke:#FFFFFF;stroke-width:0.75;stroke-miterlimit:10;" x1="411.613" y1="250.839" x2="421.303" y2="250.839"/>
						
							<line style="fill:none;stroke:#FFFFFF;stroke-width:0.75;stroke-miterlimit:10;" x1="411.613" y1="254.059" x2="421.303" y2="254.059"/>
					</g>
				</g>
				<g>
					<circle style="fill:#F29827;" cx="428.793" cy="245.194" r="7.354"/>
					
						<text transform="matrix(0.9998 0.0201 -0.0201 0.9998 423.2648 247.3739)" style="fill:#FFFFFF; font-family:'Karla-Regular'; font-size:7.1835px;">+79</text>
				</g>
			</g>
		</g>
		<g>
			<polygon style="fill:#F29827;" points="399.84,190.32 392.989,206.76 397.868,206.76 396.518,217.08 406.069,201.48 
				399.84,201.48 			"/>
			<g>
				<line style="fill:none;stroke:#000000;stroke-miterlimit:10;" x1="399.206" y1="176.28" x2="399.206" y2="182.774"/>
				<line style="fill:none;stroke:#000000;stroke-miterlimit:10;" x1="381.587" y1="183.334" x2="386.179" y2="187.926"/>
				<line style="fill:none;stroke:#000000;stroke-miterlimit:10;" x1="416.653" y1="183.751" x2="412.061" y2="188.343"/>
			</g>
		</g>
	</g>
	<g>
		<g>
			<g>
				<g>
					<path style="fill:#6251BD;" d="M310.505,382.805c-0.435-9.778,3.083-8.441-2.244-17.457
						c-5.327-9.016-1.541-11.072-1.503-17.284c0.038-6.212-1.4-13.804,2.441-14.639c3.841-0.834,4.236,10.404,7.687,12.589
						c3.451,2.186,10.562,7.729,8.652,16.615c-1.537,7.152-0.461,9.656,5.997,15.825c6.458,6.169-9.045,13.822-9.045,13.822
						S310.94,392.583,310.505,382.805z"/>
					<path style="fill:none;stroke:#39236E;stroke-miterlimit:10;" d="M325.151,397.059c-6.769-7.297-8.676-13.556-9.144-17.972
						c-0.485-4.579,0.606-6.916,0.31-12.407c-0.396-7.345-3.156-9.38-4.895-16.977c-0.804-3.513-2.729-9.585-2.224-16.278"/>
				</g>
				<g>
					<path style="fill:#6251BD;" d="M313.531,394.18c-2.992-4.93-0.796-5.235-6.1-8.387c-5.305-3.152-3.93-5.286-5.668-8.508
						c-1.738-3.221-4.63-6.738-2.882-8.256c1.749-1.518,5.134,4.178,7.536,4.331c2.402,0.153,7.646,1.005,9.174,6.139
						c1.229,4.131,2.494,5.121,7.578,6.481c5.083,1.36-0.763,9.703-0.763,9.703S316.524,399.11,313.531,394.18z"/>
					<path style="fill:none;stroke:#39236E;stroke-miterlimit:10;" d="M325.136,397.402c-5.564-1.856-8.321-4.551-9.812-6.701
						c-1.546-2.229-1.644-3.746-3.351-6.5c-2.284-3.684-4.286-3.955-7.335-7.389c-1.41-1.588-4.123-4.181-5.756-7.783"/>
				</g>
				<g>
					<path style="fill:#6251BD;" d="M319.778,381.249c3.303-7.37,5.401-5.081,4.815-13.702c-0.586-8.621,2.968-8.734,5.298-13.301
						c2.33-4.566,4.084-10.697,7.224-9.889c3.141,0.808-0.732,9.24,1.002,12.131c1.734,2.89,4.923,9.613,0.221,15.457
						c-3.784,4.703-3.919,6.948-1.443,13.89c2.475,6.941-11.791,6.839-11.791,6.839S316.475,388.62,319.778,381.249z"/>
					<path style="fill:none;stroke:#39236E;stroke-miterlimit:10;" d="M325.294,397.187c-2.286-7.889-1.373-13.21-0.081-16.64
						c1.339-3.556,3.01-4.875,4.826-9.033c2.43-5.563,1.149-8.086,2.683-14.331c0.709-2.888,1.54-8.078,4.393-12.826"/>
				</g>
			</g>
		</g>
		<polygon points="331.936,420.567 313.693,420.567 308.626,391.175 337.004,391.175 		"/>
	</g>
	<g>
		<rect x="428.28" y="341.22" style="fill:#CAE0DF;" width="46.08" height="88.56"/>
		<line style="fill:none;stroke:#A1B3B2;stroke-miterlimit:10;" x1="428.22" y1="419.52" x2="464.58" y2="419.52"/>
		<line style="fill:none;stroke:#A1B3B2;stroke-miterlimit:10;" x1="428.22" y1="414" x2="471.48" y2="414"/>
		<line style="fill:none;stroke:#A1B3B2;stroke-miterlimit:10;" x1="439.8" y1="408.48" x2="464.58" y2="408.48"/>
		<line style="fill:none;stroke:#A1B3B2;stroke-miterlimit:10;" x1="437.82" y1="391.92" x2="474.18" y2="391.92"/>
		<line style="fill:none;stroke:#A1B3B2;stroke-miterlimit:10;" x1="428.22" y1="386.4" x2="464.58" y2="386.4"/>
		<line style="fill:none;stroke:#A1B3B2;stroke-miterlimit:10;" x1="428.22" y1="380.88" x2="451.98" y2="380.88"/>
		<line style="fill:none;stroke:#A1B3B2;stroke-miterlimit:10;" x1="433.26" y1="375.36" x2="469.62" y2="375.36"/>
		<line style="fill:none;stroke:#A1B3B2;stroke-miterlimit:10;" x1="433.8" y1="369.84" x2="459.9" y2="369.84"/>
		<line style="fill:none;stroke:#A1B3B2;stroke-miterlimit:10;" x1="437.996" y1="358.8" x2="474.356" y2="358.8"/>
		<line style="fill:none;stroke:#A1B3B2;stroke-miterlimit:10;" x1="428.22" y1="353.28" x2="464.58" y2="353.28"/>
		<line style="fill:none;stroke:#A1B3B2;stroke-miterlimit:10;" x1="428.22" y1="347.76" x2="464.58" y2="347.76"/>
	</g>
	<g>
		<g>
			<rect x="407.07" y="397.518" style="fill:#D43B8D;" width="49.92" height="40.8"/>
			<path d="M437.91,418.998h-11.04c-1.524,0-2.76-1.236-2.76-2.76l0,0c0-1.524,1.236-2.76,2.76-2.76h11.04
				c1.524,0,2.76,1.236,2.76,2.76l0,0C440.67,417.763,439.434,418.998,437.91,418.998z"/>
			<rect x="402.9" y="396.858" style="fill:#D43B8D;" width="57.69" height="10.08"/>
			
				<line style="fill:none;stroke:#000000;stroke-linecap:round;stroke-miterlimit:10;" x1="407.07" y1="406.878" x2="456.99" y2="406.878"/>
		</g>
		<rect x="423.84" y="426.978" style="fill:#CAE0DF;" width="17.46" height="3.42"/>
	</g>
	<g>
		<ellipse style="fill:#B6C9C7;" cx="175.352" cy="455.691" rx="156.739" ry="9.492"/>
		<g>
			<ellipse style="fill:#3C2575;" cx="101.485" cy="427.38" rx="68.341" ry="37.116"/>
			<ellipse style="fill:#4A2D8F;" cx="106.697" cy="414.779" rx="52.424" ry="27.954"/>
			<ellipse style="fill:#3C2575;" cx="105.499" cy="412.203" rx="37.784" ry="22.11"/>
		</g>
		<path d="M109.735,223.347c0,0-27.39,26.682-34.553,80.577c0,0,31.791,17.212,59.174,12.574
			C134.355,316.498,174.857,204.776,109.735,223.347z"/>
		
			<ellipse transform="matrix(0.9973 -0.074 0.074 0.9973 -29.2893 9.5106)" style="fill:#F29827;" cx="113.739" cy="400.13" rx="43.171" ry="33.89"/>
		<path style="fill:#FFB180;" d="M139.63,246.946c3.342,0.285,5.768,3.846,5.419,7.956c-0.35,4.109-3.343,7.21-6.685,6.926"/>
		<path style="fill:#FFB180;" d="M105.167,257.723c-3.13-0.285-5.402-3.847-5.075-7.956c0.328-4.109,3.131-7.21,6.261-6.926"/>
		
			<ellipse transform="matrix(1 -0.0074 0.0074 1 -2.4697 0.8633)" style="fill:#D43B8D;" cx="115.982" cy="335.771" rx="41.346" ry="54.098"/>
		<polygon style="fill:#D43B8D;" points="168.155,383.345 71.767,386.276 74.078,338.735 155.432,340.412 		"/>
		<path style="fill:#FFB180;" d="M127.109,287.366c0.298,4.809-4.537,8.356-8.99,6.514c-3.49-1.444-6.624-4.783-6.678-12.108
			l-1.785-28.793l15.262-0.946L127.109,287.366z"/>
		<path d="M125.027,253.871l-15.262,0.947l1.029,16.592c4.426,3.233,9.368,4.826,14.374,4.17c0.406-0.053,0.792-0.168,1.19-0.249
			L125.027,253.871z"/>
		<path style="fill:#FFB180;" d="M143.262,250.354c-2.776,15.894-13.343,25.99-23.604,22.549
			c-10.26-3.441-16.328-19.115-13.552-35.009c2.776-15.894,13.818-23.173,24.078-19.732
			C140.444,221.603,146.037,234.46,143.262,250.354z"/>
		<path d="M144.632,250.789c0.516-13.643,2.418-30.997-14.593-33.385c-19.727-2.77-32.355,14.692-25.917,28.888
			c8.765,5.458,20.633,4.211,27.979-7.123C134.822,248.794,141.595,250.753,144.632,250.789z"/>
		<path style="fill:#FFB180;" d="M88.674,378.639c-2.652,0.56-5.479,0.135-7.908-1.311c-3.884-2.311-5.959-6.764-5.232-11.224
			l-5.929-46.477L90.9,308.483l2.229,46.551l44.973-24.551l5.298,8.464l-50.27,37.63C91.789,377.614,90.262,378.303,88.674,378.639z
			"/>
		<g>
			<g>
				<path d="M160.67,296.96l0.251-1.827c0.072-0.52-0.066-1.047-0.384-1.466l0,0c-0.741-0.977-1.947-1.486-3.163-1.334
					l-14.363,1.789c-1.545,0.193-2.768,1.4-2.98,2.942l-6.108,44.412c-0.124,0.903,0.115,1.818,0.666,2.545l0,0
					c0.515,0.68,1.354,1.033,2.2,0.928l0.511-0.064l15.378-4.359L160.67,296.96z"/>
				<path style="fill:#333333;" d="M152.811,342.954l-15.51,1.932c-0.948,0.118-1.75-0.695-1.62-1.641l6.189-45.006
					c0.126-0.919,0.854-1.638,1.775-1.752l14.745-1.837c1.335-0.166,2.464,0.978,2.281,2.31l-6.084,44.241
					C154.46,342.12,153.731,342.839,152.811,342.954z"/>
			</g>
			<path style="fill:#FFB180;" d="M129.865,335.108c0,0,0.005-6.238,3.684-8.616c2.949-1.906,1.19-6.835,2.882-6.415
				c1.108,0.275,1.57,9.026,1.57,9.026s10.764-2.394,12.413-5.291c1.648-2.898,3.269-1.05,1.87,2.757
				c-1.398,3.807-12.578,8.768-12.578,8.768L129.865,335.108z"/>
			<path style="fill:#FFB180;" d="M130.929,341.003l6.59,1.773c1.322,0.355,2.711,0.3,3.998-0.167
				c3.199-1.161,9.138-3.604,10.014-6.021c1.208-3.333,0.434-4.064,0.434-4.064s1.649-5.088-0.48-4.69
				c-1.154,0.216-16.745,5.445-16.745,5.445L130.929,341.003z"/>
			<path style="fill:#808080;" d="M152.557,305.821c-0.438,2.669-1.746,4.677-2.923,4.484s-1.776-2.513-1.339-5.182
				c0.438-2.669,1.746-4.677,2.923-4.484S152.994,303.152,152.557,305.821z"/>
		</g>
		<g>
			<polygon style="fill:#FFB180;" points="323.361,436.755 294.72,437.298 285.42,414.856 314.769,417.029 			"/>
			<path d="M323.238,435.994l22.207,15.59c2.121,1.489,1.049,4.816-1.544,4.794l-49.836-0.421l0.013-20.209L323.238,435.994z"/>
			<path style="fill:#F29827;" d="M284.368,433.528l-65.332-93.225l-72.749,81.271l-28.458-25.342l87.375-97.609
				c3.68-4.111,8.971-6.427,14.489-6.353c5.525,0.075,10.745,2.535,14.311,6.744l105.831,133.193L284.368,433.528z"/>
			<polygon style="fill:#FFB180;" points="247.175,440.905 218.534,441.447 209.234,419.005 238.583,421.178 			"/>
			<path d="M247.051,440.143l22.207,15.59c2.121,1.489,1.049,4.816-1.544,4.794l-49.836-0.421l0.013-20.209L247.051,440.143z"/>
			<path style="fill:#F29827;" d="M210.414,438.811L171.779,346.3L99.03,427.57l-19.427-26.849l78.344-96.102
				c3.681-4.111,8.969-6.428,14.489-6.353c5.524,0.075,10.745,2.535,14.31,6.744l84.416,131.819L210.414,438.811z"/>
			<polyline style="fill:none;stroke:#000000;stroke-width:0.75;stroke-linecap:round;stroke-miterlimit:10;" points="
				131.178,401.173 173.454,355.902 185.009,377.61 			"/>
			<polygon points="192.669,313.064 213.386,346.575 216.729,342.778 			"/>
		</g>
		<g>
			<path style="fill:#D43B8D;" d="M184.646,254.613h-29.41c-1.117,0-2.023,0.906-2.023,2.023v27.956
				c0,1.117,0.906,2.023,2.023,2.023h7.978c0.598,0,1.165,0.264,1.549,0.722l3.794,4.52c0.834,0.994,2.375,0.956,3.16-0.077
				l3.315-4.366c0.382-0.504,0.978-0.799,1.611-0.799h8.003c1.117,0,2.023-0.906,2.023-2.023v-27.956
				C186.669,255.519,185.763,254.613,184.646,254.613z"/>
			<g>
				<g>
					<path style="fill:#FFFFFF;" d="M177.097,266.554l-5.8,0.07l3.218-3.612c0.598-0.671,0.539-1.7-0.132-2.298
						c-0.67-0.598-1.699-0.539-2.298,0.132l-5.907,6.631c-0.201,0.184-0.381,0.389-0.528,0.621
						c-0.091,0.129-0.167,0.265-0.216,0.409c-0.17,0.388-0.268,0.815-0.262,1.266l0.08,6.64c0.02,1.699,1.414,3.059,3.113,3.039
						l6.445-0.077c1.456-0.018,2.664-1.044,2.966-2.407c0.135-0.608,0.255-1.22,0.463-1.808l1.971-5.568
						C180.189,267.894,178.796,266.533,177.097,266.554z"/>
					<path style="fill:#FFFFFF;" d="M163.288,268.428l-2.319,0.028c-0.33,0.004-0.595,0.275-0.591,0.605l0.113,9.415
						c0.004,0.33,0.275,0.595,0.605,0.591l2.319-0.028c0.33-0.004,0.595-0.275,0.591-0.605l-0.113-9.415
						C163.89,268.689,163.619,268.424,163.288,268.428z M162.24,277.682c-0.253,0.003-0.46-0.199-0.463-0.452
						c-0.003-0.253,0.199-0.46,0.452-0.463c0.253-0.003,0.46,0.199,0.463,0.452C162.695,277.472,162.493,277.679,162.24,277.682z"/>
				</g>
			</g>
		</g>
		<path style="fill:#D43B8D;" d="M103.533,285.038c0,0-40.201,6.526-38.055,52.417l36.647-6.933L103.533,285.038z"/>
		
			<line style="fill:none;stroke:#000000;stroke-width:0.75;stroke-miterlimit:10;" x1="91.271" y1="311.207" x2="92.261" y2="332.337"/>
	</g>
	<g>
		<g>
			<g>
				
					<ellipse transform="matrix(0.2265 -0.974 0.974 0.2265 26.9295 296.091)" style="fill:#F29827;" cx="199.885" cy="131.091" rx="33.624" ry="33.624"/>
				
					<line style="fill:none;stroke:#000000;stroke-width:0.5;stroke-linecap:round;stroke-miterlimit:10;" x1="200.345" y1="100.284" x2="200.345" y2="108.368"/>
				
					<line style="fill:none;stroke:#000000;stroke-width:0.5;stroke-linecap:round;stroke-miterlimit:10;" x1="178.41" y1="109.065" x2="184.127" y2="114.782"/>
				
					<line style="fill:none;stroke:#000000;stroke-width:0.5;stroke-linecap:round;stroke-miterlimit:10;" x1="169.109" y1="130.784" x2="177.194" y2="130.784"/>
				
					<line style="fill:none;stroke:#000000;stroke-width:0.5;stroke-linecap:round;stroke-miterlimit:10;" x1="177.891" y1="152.719" x2="183.607" y2="147.002"/>
				
					<line style="fill:none;stroke:#000000;stroke-width:0.5;stroke-linecap:round;stroke-miterlimit:10;" x1="199.61" y1="162.02" x2="199.61" y2="153.935"/>
				
					<line style="fill:none;stroke:#000000;stroke-width:0.5;stroke-linecap:round;stroke-miterlimit:10;" x1="221.544" y1="153.238" x2="215.828" y2="147.522"/>
				
					<line style="fill:none;stroke:#000000;stroke-width:0.5;stroke-linecap:round;stroke-miterlimit:10;" x1="230.845" y1="131.519" x2="222.76" y2="131.519"/>
				
					<line style="fill:none;stroke:#000000;stroke-width:0.5;stroke-linecap:round;stroke-miterlimit:10;" x1="222.064" y1="109.585" x2="216.347" y2="115.301"/>
			</g>
			<circle style="fill:#FFFFFF;" cx="199.651" cy="131.358" r="2.005"/>
			<polyline style="fill:none;stroke:#FFFFFF;stroke-miterlimit:10;" points="207.506,115.616 199.685,131.09 215.527,140.683 			
				"/>
		</g>
		<g>
			<path style="fill:none;stroke:#FFFFFF;stroke-width:0.75;stroke-linecap:round;stroke-miterlimit:10;" d="M213.77,90.518
				c6.168,2.017,11.968,5.476,16.87,10.379"/>
			<path style="fill:none;stroke:#FFFFFF;stroke-width:0.75;stroke-linecap:round;stroke-miterlimit:10;" d="M159.245,141.974
				c-3.744-14.196-0.052-29.947,11.078-41.077c8.538-8.538,19.796-12.7,30.985-12.484"/>
			<path style="fill:none;stroke:#FFFFFF;stroke-width:0.75;stroke-linecap:round;stroke-miterlimit:10;" d="M215.247,171.08
				c-15.127,5.57-32.777,2.281-44.924-9.866"/>
			<path style="fill:none;stroke:#FFFFFF;stroke-width:0.75;stroke-linecap:round;stroke-miterlimit:10;" d="M230.64,100.897
				c5.888,5.888,9.695,13.07,11.42,20.631"/>
		</g>
		<g>
			<path style="fill:none;stroke:#FFFFFF;stroke-width:0.75;stroke-linecap:round;stroke-miterlimit:10;" d="M246.809,147.548
				c-2.457,7.516-6.672,14.582-12.646,20.556"/>
			<path style="fill:none;stroke:#FFFFFF;stroke-width:0.75;stroke-linecap:round;stroke-miterlimit:10;" d="M184.112,81.112
				c17.298-4.563,36.489-0.063,50.051,13.498c10.404,10.403,15.474,24.12,15.211,37.754"/>
			<path style="fill:none;stroke:#FFFFFF;stroke-width:0.75;stroke-linecap:round;stroke-miterlimit:10;" d="M148.648,149.348
				c-6.786-18.431-2.779-39.938,12.021-54.738"/>
			<path style="fill:none;stroke:#FFFFFF;stroke-width:0.75;stroke-linecap:round;stroke-miterlimit:10;" d="M234.163,168.104
				c-7.175,7.175-15.925,11.813-25.138,13.915"/>
		</g>
	</g>
</g>
</svg>
